%
M48
M72
T01C0.01575
T02C0.03937
T03C0.05118
T04C0.05709
T05C0.12598
%
T01
X172260Y189639
X178165Y193576
X166354Y193576
X195882Y193576
X195882Y217198
X195882Y232946
X209661Y268379
X89583Y179796
X81709Y181765
X77772Y181765
X77772Y197513
X81709Y197513
X85646Y197513
X85646Y221135
X71866Y252631
X52181Y203418
X46276Y199481
X26591Y124678
X34465Y79403
T02
X59898Y156174
X69898Y156174
X79898Y156174
X107142Y156174
X117142Y156174
X127142Y156174
X154386Y156174
X164386Y156174
X174386Y156174
X201630Y156174
X211630Y156174
X221630Y156174
X256906Y188261
X256906Y198261
X256906Y208261
X256906Y218261
X256906Y228261
X256906Y238261
T03
X219504Y34127
X199504Y34127
X179504Y34127
X150606Y34127
X130606Y34127
X110606Y34127
X81709Y34127
X61709Y34127
T04
X69898Y54088
X117142Y54088
X164386Y54088
X211630Y54088
X211630Y144088
X164386Y144088
X117142Y144088
X69898Y144088
T05
X256906Y30190
X256906Y270348
X24622Y270348
X24622Y30190
M30
