G75*
%MOIN*%
%OFA0B0*%
%FSLAX25Y25*%
%IPPOS*%
%LPD*%
%AMOC8*
5,1,8,0,0,1.08239X$1,22.5*
%
%ADD10C,0.00000*%
%ADD11C,0.00984*%
%ADD12C,0.00787*%
%ADD13C,0.10000*%
%ADD14C,0.23000*%
%ADD15C,0.07874*%
%ADD16C,0.05906*%
%ADD17C,0.00689*%
%ADD18R,0.07000X0.07000*%
%ADD19C,0.07000*%
%ADD20R,0.05315X0.01575*%
%ADD21R,0.06299X0.08268*%
%ADD22R,0.07480X0.07087*%
%ADD23R,0.07480X0.07480*%
%ADD24C,0.01600*%
%ADD25C,0.02775*%
%ADD26C,0.01000*%
%ADD27C,0.00600*%
%ADD28C,0.11811*%
D10*
X0024622Y0016411D02*
X0256906Y0016411D01*
X0256906Y0016410D02*
X0257239Y0016414D01*
X0257572Y0016426D01*
X0257904Y0016446D01*
X0258236Y0016474D01*
X0258567Y0016510D01*
X0258897Y0016555D01*
X0259226Y0016607D01*
X0259554Y0016667D01*
X0259880Y0016735D01*
X0260204Y0016810D01*
X0260526Y0016894D01*
X0260846Y0016985D01*
X0261164Y0017084D01*
X0261480Y0017191D01*
X0261792Y0017305D01*
X0262102Y0017427D01*
X0262409Y0017557D01*
X0262713Y0017693D01*
X0263013Y0017837D01*
X0263310Y0017988D01*
X0263603Y0018147D01*
X0263892Y0018312D01*
X0264177Y0018484D01*
X0264458Y0018663D01*
X0264734Y0018849D01*
X0265006Y0019042D01*
X0265273Y0019241D01*
X0265535Y0019446D01*
X0265792Y0019658D01*
X0266044Y0019876D01*
X0266290Y0020099D01*
X0266531Y0020329D01*
X0266767Y0020565D01*
X0266997Y0020806D01*
X0267220Y0021052D01*
X0267438Y0021304D01*
X0267650Y0021561D01*
X0267855Y0021823D01*
X0268054Y0022090D01*
X0268247Y0022362D01*
X0268433Y0022638D01*
X0268612Y0022919D01*
X0268784Y0023204D01*
X0268949Y0023493D01*
X0269108Y0023786D01*
X0269259Y0024083D01*
X0269403Y0024383D01*
X0269539Y0024687D01*
X0269669Y0024994D01*
X0269791Y0025304D01*
X0269905Y0025616D01*
X0270012Y0025932D01*
X0270111Y0026250D01*
X0270202Y0026570D01*
X0270286Y0026892D01*
X0270361Y0027216D01*
X0270429Y0027542D01*
X0270489Y0027870D01*
X0270541Y0028199D01*
X0270586Y0028529D01*
X0270622Y0028860D01*
X0270650Y0029192D01*
X0270670Y0029524D01*
X0270682Y0029857D01*
X0270686Y0030190D01*
X0270685Y0030190D02*
X0270685Y0270348D01*
X0270686Y0270348D02*
X0270682Y0270681D01*
X0270670Y0271014D01*
X0270650Y0271346D01*
X0270622Y0271678D01*
X0270586Y0272009D01*
X0270541Y0272339D01*
X0270489Y0272668D01*
X0270429Y0272996D01*
X0270361Y0273322D01*
X0270286Y0273646D01*
X0270202Y0273968D01*
X0270111Y0274288D01*
X0270012Y0274606D01*
X0269905Y0274922D01*
X0269791Y0275234D01*
X0269669Y0275544D01*
X0269539Y0275851D01*
X0269403Y0276155D01*
X0269259Y0276455D01*
X0269108Y0276752D01*
X0268949Y0277045D01*
X0268784Y0277334D01*
X0268612Y0277619D01*
X0268433Y0277900D01*
X0268247Y0278176D01*
X0268054Y0278448D01*
X0267855Y0278715D01*
X0267650Y0278977D01*
X0267438Y0279234D01*
X0267220Y0279486D01*
X0266997Y0279732D01*
X0266767Y0279973D01*
X0266531Y0280209D01*
X0266290Y0280439D01*
X0266044Y0280662D01*
X0265792Y0280880D01*
X0265535Y0281092D01*
X0265273Y0281297D01*
X0265006Y0281496D01*
X0264734Y0281689D01*
X0264458Y0281875D01*
X0264177Y0282054D01*
X0263892Y0282226D01*
X0263603Y0282391D01*
X0263310Y0282550D01*
X0263013Y0282701D01*
X0262713Y0282845D01*
X0262409Y0282981D01*
X0262102Y0283111D01*
X0261792Y0283233D01*
X0261480Y0283347D01*
X0261164Y0283454D01*
X0260846Y0283553D01*
X0260526Y0283644D01*
X0260204Y0283728D01*
X0259880Y0283803D01*
X0259554Y0283871D01*
X0259226Y0283931D01*
X0258897Y0283983D01*
X0258567Y0284028D01*
X0258236Y0284064D01*
X0257904Y0284092D01*
X0257572Y0284112D01*
X0257239Y0284124D01*
X0256906Y0284128D01*
X0256906Y0284127D02*
X0024622Y0284127D01*
X0024622Y0284128D02*
X0024289Y0284124D01*
X0023956Y0284112D01*
X0023624Y0284092D01*
X0023292Y0284064D01*
X0022961Y0284028D01*
X0022631Y0283983D01*
X0022302Y0283931D01*
X0021974Y0283871D01*
X0021648Y0283803D01*
X0021324Y0283728D01*
X0021002Y0283644D01*
X0020682Y0283553D01*
X0020364Y0283454D01*
X0020048Y0283347D01*
X0019736Y0283233D01*
X0019426Y0283111D01*
X0019119Y0282981D01*
X0018815Y0282845D01*
X0018515Y0282701D01*
X0018218Y0282550D01*
X0017925Y0282391D01*
X0017636Y0282226D01*
X0017351Y0282054D01*
X0017070Y0281875D01*
X0016794Y0281689D01*
X0016522Y0281496D01*
X0016255Y0281297D01*
X0015993Y0281092D01*
X0015736Y0280880D01*
X0015484Y0280662D01*
X0015238Y0280439D01*
X0014997Y0280209D01*
X0014761Y0279973D01*
X0014531Y0279732D01*
X0014308Y0279486D01*
X0014090Y0279234D01*
X0013878Y0278977D01*
X0013673Y0278715D01*
X0013474Y0278448D01*
X0013281Y0278176D01*
X0013095Y0277900D01*
X0012916Y0277619D01*
X0012744Y0277334D01*
X0012579Y0277045D01*
X0012420Y0276752D01*
X0012269Y0276455D01*
X0012125Y0276155D01*
X0011989Y0275851D01*
X0011859Y0275544D01*
X0011737Y0275234D01*
X0011623Y0274922D01*
X0011516Y0274606D01*
X0011417Y0274288D01*
X0011326Y0273968D01*
X0011242Y0273646D01*
X0011167Y0273322D01*
X0011099Y0272996D01*
X0011039Y0272668D01*
X0010987Y0272339D01*
X0010942Y0272009D01*
X0010906Y0271678D01*
X0010878Y0271346D01*
X0010858Y0271014D01*
X0010846Y0270681D01*
X0010842Y0270348D01*
X0010843Y0270348D02*
X0010843Y0030190D01*
X0010842Y0030190D02*
X0010846Y0029857D01*
X0010858Y0029524D01*
X0010878Y0029192D01*
X0010906Y0028860D01*
X0010942Y0028529D01*
X0010987Y0028199D01*
X0011039Y0027870D01*
X0011099Y0027542D01*
X0011167Y0027216D01*
X0011242Y0026892D01*
X0011326Y0026570D01*
X0011417Y0026250D01*
X0011516Y0025932D01*
X0011623Y0025616D01*
X0011737Y0025304D01*
X0011859Y0024994D01*
X0011989Y0024687D01*
X0012125Y0024383D01*
X0012269Y0024083D01*
X0012420Y0023786D01*
X0012579Y0023493D01*
X0012744Y0023204D01*
X0012916Y0022919D01*
X0013095Y0022638D01*
X0013281Y0022362D01*
X0013474Y0022090D01*
X0013673Y0021823D01*
X0013878Y0021561D01*
X0014090Y0021304D01*
X0014308Y0021052D01*
X0014531Y0020806D01*
X0014761Y0020565D01*
X0014997Y0020329D01*
X0015238Y0020099D01*
X0015484Y0019876D01*
X0015736Y0019658D01*
X0015993Y0019446D01*
X0016255Y0019241D01*
X0016522Y0019042D01*
X0016794Y0018849D01*
X0017070Y0018663D01*
X0017351Y0018484D01*
X0017636Y0018312D01*
X0017925Y0018147D01*
X0018218Y0017988D01*
X0018515Y0017837D01*
X0018815Y0017693D01*
X0019119Y0017557D01*
X0019426Y0017427D01*
X0019736Y0017305D01*
X0020048Y0017191D01*
X0020364Y0017084D01*
X0020682Y0016985D01*
X0021002Y0016894D01*
X0021324Y0016810D01*
X0021648Y0016735D01*
X0021974Y0016667D01*
X0022302Y0016607D01*
X0022631Y0016555D01*
X0022961Y0016510D01*
X0023292Y0016474D01*
X0023624Y0016446D01*
X0023956Y0016426D01*
X0024289Y0016414D01*
X0024622Y0016410D01*
D11*
X0024918Y0110013D02*
X0024918Y0112965D01*
X0028264Y0112965D01*
X0028264Y0110013D01*
X0024918Y0110013D01*
X0024918Y0110948D02*
X0028264Y0110948D01*
X0028264Y0111883D02*
X0024918Y0111883D01*
X0024918Y0112818D02*
X0028264Y0112818D01*
X0024918Y0116706D02*
X0024918Y0119658D01*
X0028264Y0119658D01*
X0028264Y0116706D01*
X0024918Y0116706D01*
X0024918Y0117641D02*
X0028264Y0117641D01*
X0028264Y0118576D02*
X0024918Y0118576D01*
X0024918Y0119511D02*
X0028264Y0119511D01*
X0029445Y0180289D02*
X0029445Y0183241D01*
X0035547Y0183241D01*
X0035547Y0180289D01*
X0029445Y0180289D01*
X0029445Y0181224D02*
X0035547Y0181224D01*
X0035547Y0182159D02*
X0029445Y0182159D01*
X0029445Y0183094D02*
X0035547Y0183094D01*
X0029445Y0192100D02*
X0029445Y0195052D01*
X0035547Y0195052D01*
X0035547Y0192100D01*
X0029445Y0192100D01*
X0029445Y0193035D02*
X0035547Y0193035D01*
X0035547Y0193970D02*
X0029445Y0193970D01*
X0029445Y0194905D02*
X0035547Y0194905D01*
X0036531Y0197808D02*
X0033579Y0197808D01*
X0033579Y0201154D01*
X0036531Y0201154D01*
X0036531Y0197808D01*
X0036531Y0198743D02*
X0033579Y0198743D01*
X0033579Y0199678D02*
X0036531Y0199678D01*
X0036531Y0200613D02*
X0033579Y0200613D01*
X0040272Y0197808D02*
X0043224Y0197808D01*
X0040272Y0197808D02*
X0040272Y0201154D01*
X0043224Y0201154D01*
X0043224Y0197808D01*
X0043224Y0198743D02*
X0040272Y0198743D01*
X0040272Y0199678D02*
X0043224Y0199678D01*
X0043224Y0200613D02*
X0040272Y0200613D01*
X0050508Y0206470D02*
X0050508Y0209422D01*
X0053854Y0209422D01*
X0053854Y0206470D01*
X0050508Y0206470D01*
X0050508Y0207405D02*
X0053854Y0207405D01*
X0053854Y0208340D02*
X0050508Y0208340D01*
X0050508Y0209275D02*
X0053854Y0209275D01*
X0050508Y0213163D02*
X0050508Y0216115D01*
X0053854Y0216115D01*
X0053854Y0213163D01*
X0050508Y0213163D01*
X0050508Y0214098D02*
X0053854Y0214098D01*
X0053854Y0215033D02*
X0050508Y0215033D01*
X0050508Y0215968D02*
X0053854Y0215968D01*
X0058185Y0251155D02*
X0064287Y0251155D01*
X0058185Y0251155D02*
X0058185Y0254107D01*
X0064287Y0254107D01*
X0064287Y0251155D01*
X0064287Y0252090D02*
X0058185Y0252090D01*
X0058185Y0253025D02*
X0064287Y0253025D01*
X0064287Y0253960D02*
X0058185Y0253960D01*
X0058185Y0266903D02*
X0064287Y0266903D01*
X0058185Y0266903D02*
X0058185Y0269855D01*
X0064287Y0269855D01*
X0064287Y0266903D01*
X0064287Y0267838D02*
X0058185Y0267838D01*
X0058185Y0268773D02*
X0064287Y0268773D01*
X0064287Y0269708D02*
X0058185Y0269708D01*
X0079445Y0266903D02*
X0085547Y0266903D01*
X0079445Y0266903D02*
X0079445Y0269855D01*
X0085547Y0269855D01*
X0085547Y0266903D01*
X0085547Y0267838D02*
X0079445Y0267838D01*
X0079445Y0268773D02*
X0085547Y0268773D01*
X0085547Y0269708D02*
X0079445Y0269708D01*
X0079445Y0251155D02*
X0085547Y0251155D01*
X0079445Y0251155D02*
X0079445Y0254107D01*
X0085547Y0254107D01*
X0085547Y0251155D01*
X0085547Y0252090D02*
X0079445Y0252090D01*
X0079445Y0253025D02*
X0085547Y0253025D01*
X0085547Y0253960D02*
X0079445Y0253960D01*
X0088697Y0250367D02*
X0091649Y0250367D01*
X0091649Y0247021D01*
X0088697Y0247021D01*
X0088697Y0250367D01*
X0088697Y0247956D02*
X0091649Y0247956D01*
X0091649Y0248891D02*
X0088697Y0248891D01*
X0088697Y0249826D02*
X0091649Y0249826D01*
X0095390Y0250367D02*
X0098342Y0250367D01*
X0098342Y0247021D01*
X0095390Y0247021D01*
X0095390Y0250367D01*
X0095390Y0247956D02*
X0098342Y0247956D01*
X0098342Y0248891D02*
X0095390Y0248891D01*
X0095390Y0249826D02*
X0098342Y0249826D01*
X0105823Y0247218D02*
X0112713Y0247218D01*
X0105823Y0247218D02*
X0105823Y0250170D01*
X0112713Y0250170D01*
X0112713Y0247218D01*
X0112713Y0248153D02*
X0105823Y0248153D01*
X0105823Y0249088D02*
X0112713Y0249088D01*
X0112713Y0250023D02*
X0105823Y0250023D01*
X0105823Y0239344D02*
X0112713Y0239344D01*
X0105823Y0239344D02*
X0105823Y0242296D01*
X0112713Y0242296D01*
X0112713Y0239344D01*
X0112713Y0240279D02*
X0105823Y0240279D01*
X0105823Y0241214D02*
X0112713Y0241214D01*
X0112713Y0242149D02*
X0105823Y0242149D01*
X0105823Y0231470D02*
X0112713Y0231470D01*
X0105823Y0231470D02*
X0105823Y0234422D01*
X0112713Y0234422D01*
X0112713Y0231470D01*
X0112713Y0232405D02*
X0105823Y0232405D01*
X0105823Y0233340D02*
X0112713Y0233340D01*
X0112713Y0234275D02*
X0105823Y0234275D01*
X0098342Y0234619D02*
X0095390Y0234619D01*
X0098342Y0234619D02*
X0098342Y0231273D01*
X0095390Y0231273D01*
X0095390Y0234619D01*
X0095390Y0232208D02*
X0098342Y0232208D01*
X0098342Y0233143D02*
X0095390Y0233143D01*
X0095390Y0234078D02*
X0098342Y0234078D01*
X0091649Y0234619D02*
X0088697Y0234619D01*
X0091649Y0234619D02*
X0091649Y0231273D01*
X0088697Y0231273D01*
X0088697Y0234619D01*
X0088697Y0232208D02*
X0091649Y0232208D01*
X0091649Y0233143D02*
X0088697Y0233143D01*
X0088697Y0234078D02*
X0091649Y0234078D01*
X0091649Y0219462D02*
X0088697Y0219462D01*
X0088697Y0222808D01*
X0091649Y0222808D01*
X0091649Y0219462D01*
X0091649Y0220397D02*
X0088697Y0220397D01*
X0088697Y0221332D02*
X0091649Y0221332D01*
X0091649Y0222267D02*
X0088697Y0222267D01*
X0095390Y0219462D02*
X0098342Y0219462D01*
X0095390Y0219462D02*
X0095390Y0222808D01*
X0098342Y0222808D01*
X0098342Y0219462D01*
X0098342Y0220397D02*
X0095390Y0220397D01*
X0095390Y0221332D02*
X0098342Y0221332D01*
X0098342Y0222267D02*
X0095390Y0222267D01*
X0095390Y0214934D02*
X0098342Y0214934D01*
X0098342Y0211588D01*
X0095390Y0211588D01*
X0095390Y0214934D01*
X0095390Y0212523D02*
X0098342Y0212523D01*
X0098342Y0213458D02*
X0095390Y0213458D01*
X0095390Y0214393D02*
X0098342Y0214393D01*
X0091649Y0214934D02*
X0088697Y0214934D01*
X0091649Y0214934D02*
X0091649Y0211588D01*
X0088697Y0211588D01*
X0088697Y0214934D01*
X0088697Y0212523D02*
X0091649Y0212523D01*
X0091649Y0213458D02*
X0088697Y0213458D01*
X0088697Y0214393D02*
X0091649Y0214393D01*
X0091649Y0207060D02*
X0088697Y0207060D01*
X0091649Y0207060D02*
X0091649Y0203714D01*
X0088697Y0203714D01*
X0088697Y0207060D01*
X0088697Y0204649D02*
X0091649Y0204649D01*
X0091649Y0205584D02*
X0088697Y0205584D01*
X0088697Y0206519D02*
X0091649Y0206519D01*
X0095390Y0207060D02*
X0098342Y0207060D01*
X0098342Y0203714D01*
X0095390Y0203714D01*
X0095390Y0207060D01*
X0095390Y0204649D02*
X0098342Y0204649D01*
X0098342Y0205584D02*
X0095390Y0205584D01*
X0095390Y0206519D02*
X0098342Y0206519D01*
X0098342Y0195840D02*
X0095390Y0195840D01*
X0095390Y0199186D01*
X0098342Y0199186D01*
X0098342Y0195840D01*
X0098342Y0196775D02*
X0095390Y0196775D01*
X0095390Y0197710D02*
X0098342Y0197710D01*
X0098342Y0198645D02*
X0095390Y0198645D01*
X0091649Y0195840D02*
X0088697Y0195840D01*
X0088697Y0199186D01*
X0091649Y0199186D01*
X0091649Y0195840D01*
X0091649Y0196775D02*
X0088697Y0196775D01*
X0088697Y0197710D02*
X0091649Y0197710D01*
X0091649Y0198645D02*
X0088697Y0198645D01*
X0085941Y0192493D02*
X0085941Y0189541D01*
X0085941Y0192493D02*
X0089287Y0192493D01*
X0089287Y0189541D01*
X0085941Y0189541D01*
X0085941Y0190476D02*
X0089287Y0190476D01*
X0089287Y0191411D02*
X0085941Y0191411D01*
X0085941Y0192346D02*
X0089287Y0192346D01*
X0093815Y0192493D02*
X0093815Y0189541D01*
X0093815Y0192493D02*
X0097161Y0192493D01*
X0097161Y0189541D01*
X0093815Y0189541D01*
X0093815Y0190476D02*
X0097161Y0190476D01*
X0097161Y0191411D02*
X0093815Y0191411D01*
X0093815Y0192346D02*
X0097161Y0192346D01*
X0093815Y0185800D02*
X0093815Y0182848D01*
X0093815Y0185800D02*
X0097161Y0185800D01*
X0097161Y0182848D01*
X0093815Y0182848D01*
X0093815Y0183783D02*
X0097161Y0183783D01*
X0097161Y0184718D02*
X0093815Y0184718D01*
X0093815Y0185653D02*
X0097161Y0185653D01*
X0085941Y0185800D02*
X0085941Y0182848D01*
X0085941Y0185800D02*
X0089287Y0185800D01*
X0089287Y0182848D01*
X0085941Y0182848D01*
X0085941Y0183783D02*
X0089287Y0183783D01*
X0089287Y0184718D02*
X0085941Y0184718D01*
X0085941Y0185653D02*
X0089287Y0185653D01*
X0105823Y0192100D02*
X0112713Y0192100D01*
X0105823Y0192100D02*
X0105823Y0195052D01*
X0112713Y0195052D01*
X0112713Y0192100D01*
X0112713Y0193035D02*
X0105823Y0193035D01*
X0105823Y0193970D02*
X0112713Y0193970D01*
X0112713Y0194905D02*
X0105823Y0194905D01*
X0105823Y0199974D02*
X0112713Y0199974D01*
X0105823Y0199974D02*
X0105823Y0202926D01*
X0112713Y0202926D01*
X0112713Y0199974D01*
X0112713Y0200909D02*
X0105823Y0200909D01*
X0105823Y0201844D02*
X0112713Y0201844D01*
X0112713Y0202779D02*
X0105823Y0202779D01*
X0105823Y0207848D02*
X0112713Y0207848D01*
X0105823Y0207848D02*
X0105823Y0210800D01*
X0112713Y0210800D01*
X0112713Y0207848D01*
X0112713Y0208783D02*
X0105823Y0208783D01*
X0105823Y0209718D02*
X0112713Y0209718D01*
X0112713Y0210653D02*
X0105823Y0210653D01*
X0105823Y0215722D02*
X0112713Y0215722D01*
X0105823Y0215722D02*
X0105823Y0218674D01*
X0112713Y0218674D01*
X0112713Y0215722D01*
X0112713Y0216657D02*
X0105823Y0216657D01*
X0105823Y0217592D02*
X0112713Y0217592D01*
X0112713Y0218527D02*
X0105823Y0218527D01*
X0105823Y0223596D02*
X0112713Y0223596D01*
X0105823Y0223596D02*
X0105823Y0226548D01*
X0112713Y0226548D01*
X0112713Y0223596D01*
X0112713Y0224531D02*
X0105823Y0224531D01*
X0105823Y0225466D02*
X0112713Y0225466D01*
X0112713Y0226401D02*
X0105823Y0226401D01*
X0119603Y0184225D02*
X0122555Y0184225D01*
X0119603Y0184225D02*
X0119603Y0191115D01*
X0122555Y0191115D01*
X0122555Y0184225D01*
X0122555Y0185160D02*
X0119603Y0185160D01*
X0119603Y0186095D02*
X0122555Y0186095D01*
X0122555Y0187030D02*
X0119603Y0187030D01*
X0119603Y0187965D02*
X0122555Y0187965D01*
X0122555Y0188900D02*
X0119603Y0188900D01*
X0119603Y0189835D02*
X0122555Y0189835D01*
X0122555Y0190770D02*
X0119603Y0190770D01*
X0127477Y0184225D02*
X0130429Y0184225D01*
X0127477Y0184225D02*
X0127477Y0191115D01*
X0130429Y0191115D01*
X0130429Y0184225D01*
X0130429Y0185160D02*
X0127477Y0185160D01*
X0127477Y0186095D02*
X0130429Y0186095D01*
X0130429Y0187030D02*
X0127477Y0187030D01*
X0127477Y0187965D02*
X0130429Y0187965D01*
X0130429Y0188900D02*
X0127477Y0188900D01*
X0127477Y0189835D02*
X0130429Y0189835D01*
X0130429Y0190770D02*
X0127477Y0190770D01*
X0135351Y0184225D02*
X0138303Y0184225D01*
X0135351Y0184225D02*
X0135351Y0191115D01*
X0138303Y0191115D01*
X0138303Y0184225D01*
X0138303Y0185160D02*
X0135351Y0185160D01*
X0135351Y0186095D02*
X0138303Y0186095D01*
X0138303Y0187030D02*
X0135351Y0187030D01*
X0135351Y0187965D02*
X0138303Y0187965D01*
X0138303Y0188900D02*
X0135351Y0188900D01*
X0135351Y0189835D02*
X0138303Y0189835D01*
X0138303Y0190770D02*
X0135351Y0190770D01*
X0143225Y0184225D02*
X0146177Y0184225D01*
X0143225Y0184225D02*
X0143225Y0191115D01*
X0146177Y0191115D01*
X0146177Y0184225D01*
X0146177Y0185160D02*
X0143225Y0185160D01*
X0143225Y0186095D02*
X0146177Y0186095D01*
X0146177Y0187030D02*
X0143225Y0187030D01*
X0143225Y0187965D02*
X0146177Y0187965D01*
X0146177Y0188900D02*
X0143225Y0188900D01*
X0143225Y0189835D02*
X0146177Y0189835D01*
X0146177Y0190770D02*
X0143225Y0190770D01*
X0151099Y0184225D02*
X0154051Y0184225D01*
X0151099Y0184225D02*
X0151099Y0191115D01*
X0154051Y0191115D01*
X0154051Y0184225D01*
X0154051Y0185160D02*
X0151099Y0185160D01*
X0151099Y0186095D02*
X0154051Y0186095D01*
X0154051Y0187030D02*
X0151099Y0187030D01*
X0151099Y0187965D02*
X0154051Y0187965D01*
X0154051Y0188900D02*
X0151099Y0188900D01*
X0151099Y0189835D02*
X0154051Y0189835D01*
X0154051Y0190770D02*
X0151099Y0190770D01*
X0158973Y0184225D02*
X0161925Y0184225D01*
X0158973Y0184225D02*
X0158973Y0191115D01*
X0161925Y0191115D01*
X0161925Y0184225D01*
X0161925Y0185160D02*
X0158973Y0185160D01*
X0158973Y0186095D02*
X0161925Y0186095D01*
X0161925Y0187030D02*
X0158973Y0187030D01*
X0158973Y0187965D02*
X0161925Y0187965D01*
X0161925Y0188900D02*
X0158973Y0188900D01*
X0158973Y0189835D02*
X0161925Y0189835D01*
X0161925Y0190770D02*
X0158973Y0190770D01*
X0168815Y0192100D02*
X0175705Y0192100D01*
X0168815Y0192100D02*
X0168815Y0195052D01*
X0175705Y0195052D01*
X0175705Y0192100D01*
X0175705Y0193035D02*
X0168815Y0193035D01*
X0168815Y0193970D02*
X0175705Y0193970D01*
X0175705Y0194905D02*
X0168815Y0194905D01*
X0168815Y0199974D02*
X0175705Y0199974D01*
X0168815Y0199974D02*
X0168815Y0202926D01*
X0175705Y0202926D01*
X0175705Y0199974D01*
X0175705Y0200909D02*
X0168815Y0200909D01*
X0168815Y0201844D02*
X0175705Y0201844D01*
X0175705Y0202779D02*
X0168815Y0202779D01*
X0168815Y0207848D02*
X0175705Y0207848D01*
X0168815Y0207848D02*
X0168815Y0210800D01*
X0175705Y0210800D01*
X0175705Y0207848D01*
X0175705Y0208783D02*
X0168815Y0208783D01*
X0168815Y0209718D02*
X0175705Y0209718D01*
X0175705Y0210653D02*
X0168815Y0210653D01*
X0168815Y0215722D02*
X0175705Y0215722D01*
X0168815Y0215722D02*
X0168815Y0218674D01*
X0175705Y0218674D01*
X0175705Y0215722D01*
X0175705Y0216657D02*
X0168815Y0216657D01*
X0168815Y0217592D02*
X0175705Y0217592D01*
X0175705Y0218527D02*
X0168815Y0218527D01*
X0168815Y0223596D02*
X0175705Y0223596D01*
X0168815Y0223596D02*
X0168815Y0226548D01*
X0175705Y0226548D01*
X0175705Y0223596D01*
X0175705Y0224531D02*
X0168815Y0224531D01*
X0168815Y0225466D02*
X0175705Y0225466D01*
X0175705Y0226401D02*
X0168815Y0226401D01*
X0168815Y0231470D02*
X0175705Y0231470D01*
X0168815Y0231470D02*
X0168815Y0234422D01*
X0175705Y0234422D01*
X0175705Y0231470D01*
X0175705Y0232405D02*
X0168815Y0232405D01*
X0168815Y0233340D02*
X0175705Y0233340D01*
X0175705Y0234275D02*
X0168815Y0234275D01*
X0168815Y0239344D02*
X0175705Y0239344D01*
X0168815Y0239344D02*
X0168815Y0242296D01*
X0175705Y0242296D01*
X0175705Y0239344D01*
X0175705Y0240279D02*
X0168815Y0240279D01*
X0168815Y0241214D02*
X0175705Y0241214D01*
X0175705Y0242149D02*
X0168815Y0242149D01*
X0168815Y0247218D02*
X0175705Y0247218D01*
X0168815Y0247218D02*
X0168815Y0250170D01*
X0175705Y0250170D01*
X0175705Y0247218D01*
X0175705Y0248153D02*
X0168815Y0248153D01*
X0168815Y0249088D02*
X0175705Y0249088D01*
X0175705Y0250023D02*
X0168815Y0250023D01*
X0183185Y0239147D02*
X0186137Y0239147D01*
X0183185Y0239147D02*
X0183185Y0242493D01*
X0186137Y0242493D01*
X0186137Y0239147D01*
X0186137Y0240082D02*
X0183185Y0240082D01*
X0183185Y0241017D02*
X0186137Y0241017D01*
X0186137Y0241952D02*
X0183185Y0241952D01*
X0189878Y0239147D02*
X0192830Y0239147D01*
X0189878Y0239147D02*
X0189878Y0242493D01*
X0192830Y0242493D01*
X0192830Y0239147D01*
X0192830Y0240082D02*
X0189878Y0240082D01*
X0189878Y0241017D02*
X0192830Y0241017D01*
X0192830Y0241952D02*
X0189878Y0241952D01*
X0195980Y0254107D02*
X0202082Y0254107D01*
X0202082Y0251155D01*
X0195980Y0251155D01*
X0195980Y0254107D01*
X0195980Y0252090D02*
X0202082Y0252090D01*
X0202082Y0253025D02*
X0195980Y0253025D01*
X0195980Y0253960D02*
X0202082Y0253960D01*
X0202082Y0269855D02*
X0195980Y0269855D01*
X0202082Y0269855D02*
X0202082Y0266903D01*
X0195980Y0266903D01*
X0195980Y0269855D01*
X0195980Y0267838D02*
X0202082Y0267838D01*
X0202082Y0268773D02*
X0195980Y0268773D01*
X0195980Y0269708D02*
X0202082Y0269708D01*
X0217240Y0269855D02*
X0223342Y0269855D01*
X0223342Y0266903D01*
X0217240Y0266903D01*
X0217240Y0269855D01*
X0217240Y0267838D02*
X0223342Y0267838D01*
X0223342Y0268773D02*
X0217240Y0268773D01*
X0217240Y0269708D02*
X0223342Y0269708D01*
X0223342Y0254107D02*
X0217240Y0254107D01*
X0223342Y0254107D02*
X0223342Y0251155D01*
X0217240Y0251155D01*
X0217240Y0254107D01*
X0217240Y0252090D02*
X0223342Y0252090D01*
X0223342Y0253025D02*
X0217240Y0253025D01*
X0217240Y0253960D02*
X0223342Y0253960D01*
X0192830Y0234619D02*
X0189878Y0234619D01*
X0192830Y0234619D02*
X0192830Y0231273D01*
X0189878Y0231273D01*
X0189878Y0234619D01*
X0189878Y0232208D02*
X0192830Y0232208D01*
X0192830Y0233143D02*
X0189878Y0233143D01*
X0189878Y0234078D02*
X0192830Y0234078D01*
X0186137Y0234619D02*
X0183185Y0234619D01*
X0186137Y0234619D02*
X0186137Y0231273D01*
X0183185Y0231273D01*
X0183185Y0234619D01*
X0183185Y0232208D02*
X0186137Y0232208D01*
X0186137Y0233143D02*
X0183185Y0233143D01*
X0183185Y0234078D02*
X0186137Y0234078D01*
X0186137Y0223399D02*
X0183185Y0223399D01*
X0183185Y0226745D01*
X0186137Y0226745D01*
X0186137Y0223399D01*
X0186137Y0224334D02*
X0183185Y0224334D01*
X0183185Y0225269D02*
X0186137Y0225269D01*
X0186137Y0226204D02*
X0183185Y0226204D01*
X0189878Y0223399D02*
X0192830Y0223399D01*
X0189878Y0223399D02*
X0189878Y0226745D01*
X0192830Y0226745D01*
X0192830Y0223399D01*
X0192830Y0224334D02*
X0189878Y0224334D01*
X0189878Y0225269D02*
X0192830Y0225269D01*
X0192830Y0226204D02*
X0189878Y0226204D01*
X0189878Y0218871D02*
X0192830Y0218871D01*
X0192830Y0215525D01*
X0189878Y0215525D01*
X0189878Y0218871D01*
X0189878Y0216460D02*
X0192830Y0216460D01*
X0192830Y0217395D02*
X0189878Y0217395D01*
X0189878Y0218330D02*
X0192830Y0218330D01*
X0186137Y0218871D02*
X0183185Y0218871D01*
X0186137Y0218871D02*
X0186137Y0215525D01*
X0183185Y0215525D01*
X0183185Y0218871D01*
X0183185Y0216460D02*
X0186137Y0216460D01*
X0186137Y0217395D02*
X0183185Y0217395D01*
X0183185Y0218330D02*
X0186137Y0218330D01*
X0186137Y0207651D02*
X0183185Y0207651D01*
X0183185Y0210997D01*
X0186137Y0210997D01*
X0186137Y0207651D01*
X0186137Y0208586D02*
X0183185Y0208586D01*
X0183185Y0209521D02*
X0186137Y0209521D01*
X0186137Y0210456D02*
X0183185Y0210456D01*
X0189878Y0207651D02*
X0192830Y0207651D01*
X0189878Y0207651D02*
X0189878Y0210997D01*
X0192830Y0210997D01*
X0192830Y0207651D01*
X0192830Y0208586D02*
X0189878Y0208586D01*
X0189878Y0209521D02*
X0192830Y0209521D01*
X0192830Y0210456D02*
X0189878Y0210456D01*
X0189878Y0199777D02*
X0192830Y0199777D01*
X0189878Y0199777D02*
X0189878Y0203123D01*
X0192830Y0203123D01*
X0192830Y0199777D01*
X0192830Y0200712D02*
X0189878Y0200712D01*
X0189878Y0201647D02*
X0192830Y0201647D01*
X0192830Y0202582D02*
X0189878Y0202582D01*
X0186137Y0199777D02*
X0183185Y0199777D01*
X0183185Y0203123D01*
X0186137Y0203123D01*
X0186137Y0199777D01*
X0186137Y0200712D02*
X0183185Y0200712D01*
X0183185Y0201647D02*
X0186137Y0201647D01*
X0186137Y0202582D02*
X0183185Y0202582D01*
X0183185Y0195249D02*
X0186137Y0195249D01*
X0186137Y0191903D01*
X0183185Y0191903D01*
X0183185Y0195249D01*
X0183185Y0192838D02*
X0186137Y0192838D01*
X0186137Y0193773D02*
X0183185Y0193773D01*
X0183185Y0194708D02*
X0186137Y0194708D01*
X0189878Y0195249D02*
X0192830Y0195249D01*
X0192830Y0191903D01*
X0189878Y0191903D01*
X0189878Y0195249D01*
X0189878Y0192838D02*
X0192830Y0192838D01*
X0192830Y0193773D02*
X0189878Y0193773D01*
X0189878Y0194708D02*
X0192830Y0194708D01*
D12*
X0017535Y0118970D02*
X0017535Y0116606D01*
X0017535Y0118970D02*
X0019899Y0118970D01*
X0019899Y0116606D01*
X0017535Y0116606D01*
X0017535Y0117354D02*
X0019899Y0117354D01*
X0019899Y0118102D02*
X0017535Y0118102D01*
X0017535Y0118850D02*
X0019899Y0118850D01*
X0017535Y0113065D02*
X0017535Y0110701D01*
X0017535Y0113065D02*
X0019899Y0113065D01*
X0019899Y0110701D01*
X0017535Y0110701D01*
X0017535Y0111449D02*
X0019899Y0111449D01*
X0019899Y0112197D02*
X0017535Y0112197D01*
X0017535Y0112945D02*
X0019899Y0112945D01*
D13*
X0069898Y0144088D03*
X0117142Y0144088D03*
X0164386Y0144088D03*
X0211630Y0144088D03*
X0211630Y0054088D03*
X0164386Y0054088D03*
X0117142Y0054088D03*
X0069898Y0054088D03*
D14*
X0024622Y0030190D03*
X0024622Y0270348D03*
X0256906Y0270348D03*
X0256906Y0030190D03*
D15*
X0219504Y0034127D03*
X0199504Y0034127D03*
X0179504Y0034127D03*
X0150606Y0034127D03*
X0130606Y0034127D03*
X0110606Y0034127D03*
X0081709Y0034127D03*
X0061709Y0034127D03*
D16*
X0059898Y0156174D03*
X0069898Y0156174D03*
X0079898Y0156174D03*
X0107142Y0156174D03*
X0117142Y0156174D03*
X0127142Y0156174D03*
X0154386Y0156174D03*
X0164386Y0156174D03*
X0174386Y0156174D03*
X0201630Y0156174D03*
X0211630Y0156174D03*
X0221630Y0156174D03*
D17*
X0043470Y0206518D02*
X0043470Y0208586D01*
X0046718Y0208586D01*
X0046718Y0206518D01*
X0043470Y0206518D01*
X0043470Y0207173D02*
X0046718Y0207173D01*
X0046718Y0207828D02*
X0043470Y0207828D01*
X0043470Y0208483D02*
X0046718Y0208483D01*
X0043470Y0213999D02*
X0043470Y0216067D01*
X0046718Y0216067D01*
X0046718Y0213999D01*
X0043470Y0213999D01*
X0043470Y0214654D02*
X0046718Y0214654D01*
X0046718Y0215309D02*
X0043470Y0215309D01*
X0043470Y0215964D02*
X0046718Y0215964D01*
X0033628Y0216067D02*
X0033628Y0213999D01*
X0033628Y0216067D02*
X0036876Y0216067D01*
X0036876Y0213999D01*
X0033628Y0213999D01*
X0033628Y0214654D02*
X0036876Y0214654D01*
X0036876Y0215309D02*
X0033628Y0215309D01*
X0033628Y0215964D02*
X0036876Y0215964D01*
X0033628Y0212326D02*
X0033628Y0210258D01*
X0033628Y0212326D02*
X0036876Y0212326D01*
X0036876Y0210258D01*
X0033628Y0210258D01*
X0033628Y0210913D02*
X0036876Y0210913D01*
X0036876Y0211568D02*
X0033628Y0211568D01*
X0033628Y0212223D02*
X0036876Y0212223D01*
X0033628Y0208586D02*
X0033628Y0206518D01*
X0033628Y0208586D02*
X0036876Y0208586D01*
X0036876Y0206518D01*
X0033628Y0206518D01*
X0033628Y0207173D02*
X0036876Y0207173D01*
X0036876Y0207828D02*
X0033628Y0207828D01*
X0033628Y0208483D02*
X0036876Y0208483D01*
D18*
X0256906Y0188261D03*
D19*
X0256906Y0198261D03*
X0256906Y0208261D03*
X0256906Y0218261D03*
X0256906Y0228261D03*
X0256906Y0238261D03*
D20*
X0027791Y0089600D03*
X0027791Y0087040D03*
X0027791Y0084481D03*
X0027791Y0081922D03*
X0027791Y0079363D03*
D21*
X0027299Y0072277D03*
X0027299Y0096686D03*
D22*
X0017260Y0099442D03*
X0017260Y0069521D03*
D23*
X0017260Y0079757D03*
X0017260Y0089206D03*
D24*
X0027791Y0089600D02*
X0030882Y0089600D01*
X0032496Y0091214D01*
X0032496Y0181765D01*
X0030296Y0178396D02*
X0030296Y0120742D01*
X0030295Y0120744D01*
X0030044Y0121120D01*
X0029725Y0121439D01*
X0029350Y0121690D01*
X0028932Y0121863D01*
X0028490Y0121951D01*
X0026775Y0121951D01*
X0026775Y0118367D01*
X0026406Y0118367D01*
X0026406Y0121951D01*
X0024692Y0121951D01*
X0024249Y0121863D01*
X0023832Y0121690D01*
X0023456Y0121439D01*
X0023137Y0121120D01*
X0022886Y0120744D01*
X0022713Y0120327D01*
X0022625Y0119884D01*
X0022625Y0118366D01*
X0026406Y0118366D01*
X0026406Y0117998D01*
X0022625Y0117998D01*
X0022625Y0116480D01*
X0022713Y0116037D01*
X0022886Y0115620D01*
X0023137Y0115245D01*
X0023456Y0114925D01*
X0023832Y0114675D01*
X0023916Y0114640D01*
X0023025Y0113749D01*
X0023025Y0113389D01*
X0021691Y0113389D01*
X0021691Y0113807D01*
X0020663Y0114836D01*
X0021691Y0115864D01*
X0021691Y0119713D01*
X0020641Y0120763D01*
X0020617Y0120763D01*
X0020617Y0216411D01*
X0023441Y0219235D01*
X0038205Y0219235D01*
X0041726Y0215714D01*
X0041726Y0215016D01*
X0041281Y0215461D01*
X0040602Y0216141D01*
X0039313Y0217429D01*
X0037980Y0217429D01*
X0037599Y0217811D01*
X0032905Y0217811D01*
X0031883Y0216789D01*
X0031883Y0213593D01*
X0031630Y0213154D01*
X0031483Y0212608D01*
X0031483Y0211292D01*
X0031483Y0209977D01*
X0031630Y0209431D01*
X0031883Y0208992D01*
X0031883Y0205796D01*
X0032855Y0204825D01*
X0032855Y0203047D01*
X0032795Y0203047D01*
X0031687Y0201938D01*
X0031687Y0199224D01*
X0030296Y0197834D01*
X0030296Y0196944D01*
X0028661Y0196944D01*
X0027553Y0195836D01*
X0027553Y0191316D01*
X0028661Y0190207D01*
X0036331Y0190207D01*
X0037439Y0191316D01*
X0037439Y0195836D01*
X0037337Y0195938D01*
X0038206Y0196806D01*
X0038240Y0196722D01*
X0038491Y0196347D01*
X0038811Y0196028D01*
X0039186Y0195777D01*
X0039603Y0195604D01*
X0040046Y0195516D01*
X0041564Y0195516D01*
X0041564Y0199297D01*
X0041932Y0199297D01*
X0041932Y0195516D01*
X0043450Y0195516D01*
X0043893Y0195604D01*
X0044310Y0195777D01*
X0044686Y0196028D01*
X0045005Y0196347D01*
X0045256Y0196722D01*
X0045428Y0197140D01*
X0045517Y0197582D01*
X0045517Y0199297D01*
X0041932Y0199297D01*
X0041932Y0199666D01*
X0041564Y0199666D01*
X0041564Y0203447D01*
X0040046Y0203447D01*
X0039603Y0203359D01*
X0039186Y0203186D01*
X0038811Y0202935D01*
X0038491Y0202616D01*
X0038240Y0202240D01*
X0038206Y0202156D01*
X0037315Y0203047D01*
X0037255Y0203047D01*
X0037255Y0204774D01*
X0037599Y0204774D01*
X0038177Y0205352D01*
X0039510Y0205352D01*
X0041281Y0207124D01*
X0041726Y0207569D01*
X0041726Y0205796D01*
X0042748Y0204774D01*
X0047441Y0204774D01*
X0048352Y0205685D01*
X0048477Y0205384D01*
X0048727Y0205008D01*
X0049047Y0204689D01*
X0049422Y0204438D01*
X0049839Y0204266D01*
X0050282Y0204177D01*
X0051997Y0204177D01*
X0051997Y0207762D01*
X0052365Y0207762D01*
X0052365Y0204177D01*
X0054080Y0204177D01*
X0054523Y0204266D01*
X0054940Y0204438D01*
X0055315Y0204689D01*
X0055635Y0205008D01*
X0055886Y0205384D01*
X0056058Y0205801D01*
X0056146Y0206244D01*
X0056146Y0207762D01*
X0052365Y0207762D01*
X0052365Y0208130D01*
X0056146Y0208130D01*
X0056146Y0209648D01*
X0056058Y0210091D01*
X0055975Y0210293D01*
X0059824Y0206444D01*
X0059824Y0196602D01*
X0067608Y0188817D01*
X0084049Y0188817D01*
X0084049Y0188757D01*
X0084939Y0187866D01*
X0084855Y0187832D01*
X0084480Y0187581D01*
X0084161Y0187261D01*
X0083910Y0186886D01*
X0083737Y0186469D01*
X0083649Y0186026D01*
X0083649Y0184508D01*
X0087430Y0184508D01*
X0087430Y0184140D01*
X0083649Y0184140D01*
X0083649Y0183767D01*
X0083288Y0184128D01*
X0082263Y0184552D01*
X0081154Y0184552D01*
X0080130Y0184128D01*
X0079740Y0183738D01*
X0079351Y0184128D01*
X0078326Y0184552D01*
X0077217Y0184552D01*
X0076193Y0184128D01*
X0075409Y0183344D01*
X0074984Y0182319D01*
X0074984Y0181210D01*
X0075409Y0180186D01*
X0075872Y0179723D01*
X0075872Y0174835D01*
X0061329Y0160293D01*
X0060763Y0160527D01*
X0059032Y0160527D01*
X0057432Y0159864D01*
X0056208Y0158640D01*
X0055545Y0157040D01*
X0055545Y0155309D01*
X0056208Y0153709D01*
X0057432Y0152484D01*
X0059032Y0151822D01*
X0060763Y0151822D01*
X0062363Y0152484D01*
X0062592Y0152713D01*
X0062592Y0142635D01*
X0063704Y0139949D01*
X0065759Y0137894D01*
X0068444Y0136782D01*
X0071351Y0136782D01*
X0074036Y0137894D01*
X0076091Y0139949D01*
X0077203Y0142635D01*
X0077203Y0152257D01*
X0077407Y0152109D01*
X0078073Y0151770D01*
X0078785Y0151539D01*
X0079524Y0151422D01*
X0079713Y0151422D01*
X0079713Y0155990D01*
X0080082Y0155990D01*
X0080082Y0156359D01*
X0079713Y0156359D01*
X0079713Y0160927D01*
X0079524Y0160927D01*
X0078785Y0160810D01*
X0078073Y0160579D01*
X0077407Y0160239D01*
X0076801Y0159800D01*
X0076449Y0159447D01*
X0076091Y0160313D01*
X0074036Y0162368D01*
X0071351Y0163480D01*
X0069890Y0163480D01*
X0079672Y0173261D01*
X0079672Y0179723D01*
X0079740Y0179791D01*
X0080130Y0179402D01*
X0081154Y0178977D01*
X0081652Y0178977D01*
X0103023Y0157606D01*
X0102789Y0157040D01*
X0102789Y0155309D01*
X0103452Y0153709D01*
X0104676Y0152484D01*
X0106276Y0151822D01*
X0108008Y0151822D01*
X0109607Y0152484D01*
X0109836Y0152713D01*
X0109836Y0142635D01*
X0110948Y0139949D01*
X0113003Y0137894D01*
X0115689Y0136782D01*
X0118595Y0136782D01*
X0121280Y0137894D01*
X0123335Y0139949D01*
X0124447Y0142635D01*
X0124447Y0152257D01*
X0124651Y0152109D01*
X0125317Y0151770D01*
X0126029Y0151539D01*
X0126768Y0151422D01*
X0126957Y0151422D01*
X0126957Y0155990D01*
X0127326Y0155990D01*
X0127326Y0151422D01*
X0127516Y0151422D01*
X0128255Y0151539D01*
X0128966Y0151770D01*
X0129633Y0152109D01*
X0130238Y0152549D01*
X0130767Y0153078D01*
X0131207Y0153683D01*
X0131546Y0154350D01*
X0131777Y0155061D01*
X0131894Y0155800D01*
X0131894Y0155990D01*
X0127326Y0155990D01*
X0127326Y0156359D01*
X0126957Y0156359D01*
X0126957Y0160927D01*
X0126768Y0160927D01*
X0126029Y0160810D01*
X0125317Y0160579D01*
X0124651Y0160239D01*
X0124046Y0159800D01*
X0123693Y0159447D01*
X0123335Y0160313D01*
X0121280Y0162368D01*
X0118595Y0163480D01*
X0115689Y0163480D01*
X0113003Y0162368D01*
X0110948Y0160313D01*
X0110424Y0159047D01*
X0109607Y0159864D01*
X0108008Y0160527D01*
X0106276Y0160527D01*
X0105710Y0160293D01*
X0085381Y0180622D01*
X0085715Y0180555D01*
X0087430Y0180555D01*
X0087430Y0184140D01*
X0087798Y0184140D01*
X0087798Y0180555D01*
X0089513Y0180555D01*
X0089956Y0180644D01*
X0090373Y0180816D01*
X0090749Y0181067D01*
X0091068Y0181386D01*
X0091319Y0181762D01*
X0091491Y0182179D01*
X0091551Y0182479D01*
X0091611Y0182179D01*
X0091784Y0181762D01*
X0092035Y0181386D01*
X0092354Y0181067D01*
X0092729Y0180816D01*
X0093146Y0180644D01*
X0093589Y0180555D01*
X0095304Y0180555D01*
X0095304Y0184140D01*
X0087798Y0184140D01*
X0087798Y0184508D01*
X0091580Y0184508D01*
X0095304Y0184508D01*
X0095304Y0184140D01*
X0095672Y0184140D01*
X0095672Y0180555D01*
X0097387Y0180555D01*
X0097830Y0180644D01*
X0098247Y0180816D01*
X0098623Y0181067D01*
X0098942Y0181386D01*
X0099193Y0181762D01*
X0099365Y0182179D01*
X0099454Y0182622D01*
X0099454Y0184140D01*
X0095673Y0184140D01*
X0095673Y0184508D01*
X0099454Y0184508D01*
X0099454Y0186026D01*
X0099365Y0186469D01*
X0099193Y0186886D01*
X0098942Y0187261D01*
X0098623Y0187581D01*
X0098247Y0187832D01*
X0098163Y0187866D01*
X0099054Y0188757D01*
X0099054Y0188817D01*
X0107620Y0188817D01*
X0108909Y0190106D01*
X0109010Y0190207D01*
X0113496Y0190207D01*
X0114605Y0191316D01*
X0114605Y0191676D01*
X0117710Y0191676D01*
X0117710Y0183442D01*
X0118819Y0182333D01*
X0123339Y0182333D01*
X0124447Y0183442D01*
X0124447Y0191899D01*
X0123339Y0193007D01*
X0119260Y0193007D01*
X0137614Y0211361D01*
X0166923Y0211361D01*
X0166923Y0207064D01*
X0168031Y0205955D01*
X0176488Y0205955D01*
X0176979Y0206446D01*
X0181293Y0202131D01*
X0181293Y0199631D01*
X0178687Y0202237D01*
X0177597Y0203327D01*
X0177597Y0203710D01*
X0176488Y0204818D01*
X0168031Y0204818D01*
X0166923Y0203710D01*
X0166923Y0199190D01*
X0168031Y0198081D01*
X0176488Y0198081D01*
X0176979Y0198572D01*
X0181293Y0194257D01*
X0181293Y0191119D01*
X0182401Y0190011D01*
X0186922Y0190011D01*
X0187812Y0190901D01*
X0187847Y0190817D01*
X0188098Y0190442D01*
X0188417Y0190122D01*
X0188792Y0189871D01*
X0189209Y0189699D01*
X0189652Y0189611D01*
X0191170Y0189611D01*
X0191170Y0193392D01*
X0191539Y0193392D01*
X0191539Y0193760D01*
X0195123Y0193760D01*
X0195123Y0195475D01*
X0195035Y0195918D01*
X0194862Y0196335D01*
X0194611Y0196710D01*
X0194292Y0197030D01*
X0193916Y0197280D01*
X0193499Y0197453D01*
X0193056Y0197541D01*
X0191539Y0197541D01*
X0191539Y0193760D01*
X0191170Y0193760D01*
X0191170Y0197541D01*
X0189652Y0197541D01*
X0189209Y0197453D01*
X0188792Y0197280D01*
X0188417Y0197030D01*
X0188098Y0196710D01*
X0187847Y0196335D01*
X0187812Y0196251D01*
X0186922Y0197141D01*
X0183783Y0197141D01*
X0183040Y0197885D01*
X0186922Y0197885D01*
X0188008Y0198971D01*
X0189094Y0197885D01*
X0193614Y0197885D01*
X0194723Y0198993D01*
X0194723Y0203907D01*
X0193614Y0205015D01*
X0193254Y0205015D01*
X0193254Y0205759D01*
X0193614Y0205759D01*
X0194723Y0206867D01*
X0194723Y0211781D01*
X0193614Y0212889D01*
X0189908Y0212889D01*
X0189908Y0213233D01*
X0191170Y0213233D01*
X0191170Y0217014D01*
X0191539Y0217014D01*
X0191539Y0217382D01*
X0195123Y0217382D01*
X0195123Y0219097D01*
X0195035Y0219540D01*
X0194862Y0219957D01*
X0194611Y0220332D01*
X0194292Y0220652D01*
X0193916Y0220902D01*
X0193499Y0221075D01*
X0193056Y0221163D01*
X0191539Y0221163D01*
X0191539Y0217382D01*
X0191170Y0217382D01*
X0191170Y0221163D01*
X0189908Y0221163D01*
X0189908Y0221507D01*
X0193614Y0221507D01*
X0194723Y0222615D01*
X0194723Y0223172D01*
X0195095Y0223172D01*
X0197919Y0220348D01*
X0197919Y0184520D01*
X0185252Y0171854D01*
X0167378Y0171854D01*
X0166265Y0170741D01*
X0155817Y0160293D01*
X0155252Y0160527D01*
X0153520Y0160527D01*
X0151920Y0159864D01*
X0150696Y0158640D01*
X0150033Y0157040D01*
X0150033Y0155309D01*
X0150696Y0153709D01*
X0151920Y0152484D01*
X0153520Y0151822D01*
X0155252Y0151822D01*
X0156851Y0152484D01*
X0157080Y0152713D01*
X0157080Y0142635D01*
X0158193Y0139949D01*
X0160248Y0137894D01*
X0162933Y0136782D01*
X0165839Y0136782D01*
X0168524Y0137894D01*
X0170579Y0139949D01*
X0171691Y0142635D01*
X0171691Y0152257D01*
X0171895Y0152109D01*
X0172561Y0151770D01*
X0173273Y0151539D01*
X0174012Y0151422D01*
X0174202Y0151422D01*
X0174202Y0155990D01*
X0174570Y0155990D01*
X0174570Y0151422D01*
X0174760Y0151422D01*
X0175499Y0151539D01*
X0176210Y0151770D01*
X0176877Y0152109D01*
X0177482Y0152549D01*
X0178011Y0153078D01*
X0178451Y0153683D01*
X0178790Y0154350D01*
X0179022Y0155061D01*
X0179139Y0155800D01*
X0179139Y0155990D01*
X0174570Y0155990D01*
X0174570Y0156359D01*
X0174202Y0156359D01*
X0174202Y0160927D01*
X0174012Y0160927D01*
X0173273Y0160810D01*
X0172561Y0160579D01*
X0171895Y0160239D01*
X0171290Y0159800D01*
X0170937Y0159447D01*
X0170579Y0160313D01*
X0168524Y0162368D01*
X0165839Y0163480D01*
X0164378Y0163480D01*
X0168952Y0168054D01*
X0186826Y0168054D01*
X0187939Y0169167D01*
X0199730Y0180957D01*
X0199730Y0160099D01*
X0199164Y0159864D01*
X0197940Y0158640D01*
X0197277Y0157040D01*
X0197277Y0155309D01*
X0197940Y0153709D01*
X0199164Y0152484D01*
X0200764Y0151822D01*
X0202496Y0151822D01*
X0204096Y0152484D01*
X0204324Y0152713D01*
X0204324Y0142635D01*
X0205437Y0139949D01*
X0207492Y0137894D01*
X0210177Y0136782D01*
X0213083Y0136782D01*
X0215768Y0137894D01*
X0217823Y0139949D01*
X0218935Y0142635D01*
X0218935Y0152257D01*
X0219139Y0152109D01*
X0219805Y0151770D01*
X0220517Y0151539D01*
X0221256Y0151422D01*
X0221446Y0151422D01*
X0221446Y0155990D01*
X0221814Y0155990D01*
X0221814Y0151422D01*
X0222004Y0151422D01*
X0222743Y0151539D01*
X0223454Y0151770D01*
X0224121Y0152109D01*
X0224726Y0152549D01*
X0225255Y0153078D01*
X0225695Y0153683D01*
X0226034Y0154350D01*
X0226266Y0155061D01*
X0226383Y0155800D01*
X0226383Y0155990D01*
X0221814Y0155990D01*
X0221814Y0156359D01*
X0221446Y0156359D01*
X0221446Y0160927D01*
X0221256Y0160927D01*
X0220517Y0160810D01*
X0219805Y0160579D01*
X0219139Y0160239D01*
X0218534Y0159800D01*
X0218182Y0159447D01*
X0217823Y0160313D01*
X0215768Y0162368D01*
X0213083Y0163480D01*
X0210177Y0163480D01*
X0207492Y0162368D01*
X0205437Y0160313D01*
X0204913Y0159047D01*
X0204096Y0159864D01*
X0203530Y0160099D01*
X0203530Y0235859D01*
X0202417Y0236972D01*
X0196669Y0242720D01*
X0194723Y0242720D01*
X0194723Y0243277D01*
X0193614Y0244385D01*
X0189908Y0244385D01*
X0189908Y0245938D01*
X0194214Y0250245D01*
X0195197Y0249263D01*
X0202866Y0249263D01*
X0203975Y0250371D01*
X0203975Y0250731D01*
X0215348Y0250731D01*
X0215348Y0250371D01*
X0216456Y0249263D01*
X0224126Y0249263D01*
X0225235Y0250371D01*
X0225235Y0254056D01*
X0245163Y0234127D01*
X0245163Y0227316D01*
X0246276Y0226203D01*
X0252368Y0220111D01*
X0252006Y0219236D01*
X0252006Y0217286D01*
X0252751Y0215485D01*
X0254130Y0214107D01*
X0255931Y0213361D01*
X0257880Y0213361D01*
X0259681Y0214107D01*
X0261060Y0215485D01*
X0261805Y0217286D01*
X0261805Y0219236D01*
X0261060Y0221037D01*
X0259681Y0222415D01*
X0257880Y0223161D01*
X0255931Y0223161D01*
X0255055Y0222798D01*
X0248963Y0228890D01*
X0248963Y0232590D01*
X0252097Y0229456D01*
X0252006Y0229236D01*
X0252006Y0227286D01*
X0252751Y0225485D01*
X0254130Y0224107D01*
X0255931Y0223361D01*
X0257880Y0223361D01*
X0259681Y0224107D01*
X0261060Y0225485D01*
X0261805Y0227286D01*
X0261805Y0229236D01*
X0261060Y0231037D01*
X0259681Y0232415D01*
X0257880Y0233161D01*
X0255931Y0233161D01*
X0254400Y0232527D01*
X0227972Y0258955D01*
X0226859Y0260068D01*
X0190495Y0260068D01*
X0189382Y0258955D01*
X0181564Y0251137D01*
X0181564Y0282327D01*
X0251104Y0282327D01*
X0250060Y0281769D01*
X0248973Y0281043D01*
X0247963Y0280214D01*
X0247039Y0279290D01*
X0246210Y0278280D01*
X0245484Y0277193D01*
X0244868Y0276041D01*
X0244368Y0274834D01*
X0243989Y0273583D01*
X0243734Y0272301D01*
X0243620Y0271148D01*
X0256105Y0271148D01*
X0256105Y0269548D01*
X0243620Y0269548D01*
X0243734Y0268394D01*
X0243989Y0267112D01*
X0244368Y0265862D01*
X0244868Y0264654D01*
X0245484Y0263502D01*
X0246210Y0262415D01*
X0247039Y0261405D01*
X0247963Y0260481D01*
X0248973Y0259652D01*
X0250060Y0258926D01*
X0251212Y0258310D01*
X0252419Y0257810D01*
X0253670Y0257431D01*
X0254952Y0257176D01*
X0256106Y0257062D01*
X0256106Y0269547D01*
X0257705Y0269547D01*
X0257705Y0257062D01*
X0258859Y0257176D01*
X0260141Y0257431D01*
X0261392Y0257810D01*
X0262599Y0258310D01*
X0263751Y0258926D01*
X0264838Y0259652D01*
X0265848Y0260481D01*
X0266772Y0261405D01*
X0267601Y0262415D01*
X0268327Y0263502D01*
X0268885Y0264546D01*
X0268885Y0035992D01*
X0268327Y0037036D01*
X0267601Y0038122D01*
X0266772Y0039133D01*
X0265848Y0040057D01*
X0264838Y0040886D01*
X0263751Y0041612D01*
X0262599Y0042228D01*
X0261392Y0042728D01*
X0260141Y0043107D01*
X0258859Y0043362D01*
X0257705Y0043476D01*
X0257705Y0030990D01*
X0256106Y0030990D01*
X0256106Y0043476D01*
X0254952Y0043362D01*
X0253670Y0043107D01*
X0252419Y0042728D01*
X0251212Y0042228D01*
X0250060Y0041612D01*
X0248973Y0040886D01*
X0247963Y0040057D01*
X0247039Y0039133D01*
X0246210Y0038122D01*
X0245484Y0037036D01*
X0244868Y0035883D01*
X0244368Y0034676D01*
X0243989Y0033426D01*
X0243734Y0032144D01*
X0243620Y0030990D01*
X0256105Y0030990D01*
X0256105Y0029390D01*
X0243620Y0029390D01*
X0243734Y0028236D01*
X0243989Y0026955D01*
X0244368Y0025704D01*
X0244868Y0024497D01*
X0245484Y0023344D01*
X0246210Y0022258D01*
X0247039Y0021248D01*
X0247963Y0020324D01*
X0248973Y0019495D01*
X0250060Y0018769D01*
X0251104Y0018211D01*
X0241389Y0018211D01*
X0241389Y0048818D01*
X0240100Y0050107D01*
X0217888Y0050107D01*
X0218935Y0052635D01*
X0218935Y0055541D01*
X0217823Y0058226D01*
X0215768Y0060281D01*
X0213083Y0061393D01*
X0210177Y0061393D01*
X0207492Y0060281D01*
X0197317Y0050107D01*
X0178698Y0050107D01*
X0168524Y0060281D01*
X0165839Y0061393D01*
X0162933Y0061393D01*
X0160248Y0060281D01*
X0158193Y0058226D01*
X0157080Y0055541D01*
X0157080Y0052635D01*
X0158127Y0050107D01*
X0131454Y0050107D01*
X0121280Y0060281D01*
X0118595Y0061393D01*
X0115689Y0061393D01*
X0113003Y0060281D01*
X0110948Y0058226D01*
X0109836Y0055541D01*
X0109836Y0052635D01*
X0110883Y0050107D01*
X0104958Y0050107D01*
X0094784Y0060281D01*
X0092099Y0061393D01*
X0068444Y0061393D01*
X0065759Y0060281D01*
X0063704Y0058226D01*
X0062592Y0055541D01*
X0062592Y0052635D01*
X0063704Y0049949D01*
X0065759Y0047894D01*
X0067698Y0047092D01*
X0067698Y0018211D01*
X0030424Y0018211D01*
X0031468Y0018769D01*
X0032554Y0019495D01*
X0033565Y0020324D01*
X0034489Y0021248D01*
X0035318Y0022258D01*
X0036044Y0023344D01*
X0036660Y0024497D01*
X0037160Y0025704D01*
X0037539Y0026955D01*
X0037794Y0028236D01*
X0037908Y0029390D01*
X0025422Y0029390D01*
X0025422Y0030990D01*
X0037908Y0030990D01*
X0037794Y0032144D01*
X0037539Y0033426D01*
X0037160Y0034676D01*
X0036660Y0035883D01*
X0036044Y0037036D01*
X0035318Y0038122D01*
X0034489Y0039133D01*
X0033565Y0040057D01*
X0032554Y0040886D01*
X0031468Y0041612D01*
X0030315Y0042228D01*
X0029108Y0042728D01*
X0027858Y0043107D01*
X0026576Y0043362D01*
X0025422Y0043476D01*
X0025422Y0030990D01*
X0023822Y0030990D01*
X0023822Y0043476D01*
X0022668Y0043362D01*
X0021387Y0043107D01*
X0020136Y0042728D01*
X0018929Y0042228D01*
X0017776Y0041612D01*
X0016690Y0040886D01*
X0015680Y0040057D01*
X0014756Y0039133D01*
X0013927Y0038122D01*
X0013200Y0037036D01*
X0012643Y0035992D01*
X0012643Y0063923D01*
X0031232Y0063923D01*
X0032228Y0064919D01*
X0032228Y0078260D01*
X0032249Y0078339D01*
X0032249Y0079363D01*
X0032228Y0079363D01*
X0032228Y0079363D01*
X0032249Y0079363D01*
X0032249Y0080388D01*
X0032228Y0080467D01*
X0032228Y0087834D01*
X0033407Y0089014D01*
X0034696Y0090302D01*
X0034696Y0178396D01*
X0036331Y0178396D01*
X0037439Y0179505D01*
X0037439Y0184025D01*
X0036331Y0185133D01*
X0028661Y0185133D01*
X0027553Y0184025D01*
X0027553Y0179505D01*
X0028661Y0178396D01*
X0030296Y0178396D01*
X0030296Y0177860D02*
X0020617Y0177860D01*
X0020617Y0176262D02*
X0030296Y0176262D01*
X0030296Y0174663D02*
X0020617Y0174663D01*
X0020617Y0173065D02*
X0030296Y0173065D01*
X0030296Y0171466D02*
X0020617Y0171466D01*
X0020617Y0169868D02*
X0030296Y0169868D01*
X0030296Y0168269D02*
X0020617Y0168269D01*
X0020617Y0166671D02*
X0030296Y0166671D01*
X0030296Y0165072D02*
X0020617Y0165072D01*
X0020617Y0163474D02*
X0030296Y0163474D01*
X0030296Y0161875D02*
X0020617Y0161875D01*
X0020617Y0160277D02*
X0030296Y0160277D01*
X0030296Y0158678D02*
X0020617Y0158678D01*
X0020617Y0157080D02*
X0030296Y0157080D01*
X0030296Y0155481D02*
X0020617Y0155481D01*
X0020617Y0153883D02*
X0030296Y0153883D01*
X0030296Y0152284D02*
X0020617Y0152284D01*
X0020617Y0150685D02*
X0030296Y0150685D01*
X0030296Y0149087D02*
X0020617Y0149087D01*
X0020617Y0147488D02*
X0030296Y0147488D01*
X0030296Y0145890D02*
X0020617Y0145890D01*
X0020617Y0144291D02*
X0030296Y0144291D01*
X0030296Y0142693D02*
X0020617Y0142693D01*
X0020617Y0141094D02*
X0030296Y0141094D01*
X0030296Y0139496D02*
X0020617Y0139496D01*
X0020617Y0137897D02*
X0030296Y0137897D01*
X0030296Y0136299D02*
X0020617Y0136299D01*
X0020617Y0134700D02*
X0030296Y0134700D01*
X0030296Y0133102D02*
X0020617Y0133102D01*
X0020617Y0131503D02*
X0030296Y0131503D01*
X0030296Y0129905D02*
X0020617Y0129905D01*
X0020617Y0128306D02*
X0030296Y0128306D01*
X0030296Y0126708D02*
X0020617Y0126708D01*
X0020617Y0125109D02*
X0030296Y0125109D01*
X0030296Y0123511D02*
X0020617Y0123511D01*
X0020617Y0121912D02*
X0024499Y0121912D01*
X0026406Y0121912D02*
X0026775Y0121912D01*
X0026775Y0120314D02*
X0026406Y0120314D01*
X0026406Y0118715D02*
X0026775Y0118715D01*
X0028683Y0121912D02*
X0030296Y0121912D01*
X0034696Y0121912D02*
X0268885Y0121912D01*
X0268885Y0120314D02*
X0034696Y0120314D01*
X0034696Y0118715D02*
X0268885Y0118715D01*
X0268885Y0117117D02*
X0034696Y0117117D01*
X0034696Y0115518D02*
X0268885Y0115518D01*
X0268885Y0113920D02*
X0034696Y0113920D01*
X0034696Y0112321D02*
X0268885Y0112321D01*
X0268885Y0110723D02*
X0034696Y0110723D01*
X0034696Y0109124D02*
X0268885Y0109124D01*
X0268885Y0107526D02*
X0034696Y0107526D01*
X0034696Y0105927D02*
X0268885Y0105927D01*
X0268885Y0104329D02*
X0034696Y0104329D01*
X0034696Y0102730D02*
X0268885Y0102730D01*
X0268885Y0101132D02*
X0034696Y0101132D01*
X0034696Y0099533D02*
X0268885Y0099533D01*
X0268885Y0097935D02*
X0034696Y0097935D01*
X0034696Y0096336D02*
X0268885Y0096336D01*
X0268885Y0094738D02*
X0034696Y0094738D01*
X0034696Y0093139D02*
X0268885Y0093139D01*
X0268885Y0091541D02*
X0034696Y0091541D01*
X0034336Y0089942D02*
X0268885Y0089942D01*
X0268885Y0088344D02*
X0032737Y0088344D01*
X0032228Y0086745D02*
X0268885Y0086745D01*
X0268885Y0085147D02*
X0032228Y0085147D01*
X0032228Y0083548D02*
X0268885Y0083548D01*
X0268885Y0081950D02*
X0032228Y0081950D01*
X0032249Y0080351D02*
X0268885Y0080351D01*
X0268885Y0078752D02*
X0032249Y0078752D01*
X0032228Y0077154D02*
X0268885Y0077154D01*
X0268885Y0075555D02*
X0032228Y0075555D01*
X0032228Y0073957D02*
X0268885Y0073957D01*
X0268885Y0072358D02*
X0032228Y0072358D01*
X0032228Y0070760D02*
X0268885Y0070760D01*
X0268885Y0069161D02*
X0032228Y0069161D01*
X0032228Y0067563D02*
X0268885Y0067563D01*
X0268885Y0065964D02*
X0032228Y0065964D01*
X0031674Y0064366D02*
X0268885Y0064366D01*
X0268885Y0062767D02*
X0012643Y0062767D01*
X0012643Y0061169D02*
X0067903Y0061169D01*
X0065049Y0059570D02*
X0012643Y0059570D01*
X0012643Y0057972D02*
X0063599Y0057972D01*
X0062937Y0056373D02*
X0012643Y0056373D01*
X0012643Y0054775D02*
X0062592Y0054775D01*
X0062592Y0053176D02*
X0012643Y0053176D01*
X0012643Y0051578D02*
X0063030Y0051578D01*
X0063692Y0049979D02*
X0012643Y0049979D01*
X0012643Y0048381D02*
X0065273Y0048381D01*
X0067698Y0046782D02*
X0012643Y0046782D01*
X0012643Y0045184D02*
X0067698Y0045184D01*
X0067698Y0043585D02*
X0012643Y0043585D01*
X0012643Y0041987D02*
X0018478Y0041987D01*
X0016084Y0040388D02*
X0012643Y0040388D01*
X0012643Y0038790D02*
X0014474Y0038790D01*
X0013304Y0037191D02*
X0012643Y0037191D01*
X0023822Y0037191D02*
X0025422Y0037191D01*
X0025422Y0035593D02*
X0023822Y0035593D01*
X0023822Y0033994D02*
X0025422Y0033994D01*
X0025422Y0032396D02*
X0023822Y0032396D01*
X0025422Y0030797D02*
X0057037Y0030797D01*
X0056802Y0031120D02*
X0057333Y0030390D01*
X0057971Y0029751D01*
X0058702Y0029220D01*
X0059506Y0028810D01*
X0060365Y0028531D01*
X0061229Y0028395D01*
X0061229Y0033647D01*
X0062188Y0033647D01*
X0062188Y0028395D01*
X0063052Y0028531D01*
X0063911Y0028810D01*
X0064716Y0029220D01*
X0065446Y0029751D01*
X0066085Y0030390D01*
X0066615Y0031120D01*
X0067025Y0031925D01*
X0067304Y0032784D01*
X0067441Y0033648D01*
X0062188Y0033648D01*
X0062188Y0034607D01*
X0061229Y0034607D01*
X0061229Y0039860D01*
X0060365Y0039723D01*
X0059506Y0039444D01*
X0058702Y0039034D01*
X0057971Y0038503D01*
X0057333Y0037864D01*
X0056802Y0037134D01*
X0056392Y0036329D01*
X0056113Y0035470D01*
X0055976Y0034607D01*
X0061229Y0034607D01*
X0061229Y0033648D01*
X0055976Y0033648D01*
X0056113Y0032784D01*
X0056392Y0031925D01*
X0056802Y0031120D01*
X0056239Y0032396D02*
X0037744Y0032396D01*
X0037367Y0033994D02*
X0061229Y0033994D01*
X0062188Y0033994D02*
X0067698Y0033994D01*
X0067441Y0034607D02*
X0067304Y0035470D01*
X0067025Y0036329D01*
X0066615Y0037134D01*
X0066085Y0037864D01*
X0065446Y0038503D01*
X0064716Y0039034D01*
X0063911Y0039444D01*
X0063052Y0039723D01*
X0062188Y0039860D01*
X0062188Y0034607D01*
X0067441Y0034607D01*
X0067265Y0035593D02*
X0067698Y0035593D01*
X0067698Y0037191D02*
X0066574Y0037191D01*
X0067698Y0038790D02*
X0065051Y0038790D01*
X0062188Y0038790D02*
X0061229Y0038790D01*
X0061229Y0037191D02*
X0062188Y0037191D01*
X0062188Y0035593D02*
X0061229Y0035593D01*
X0058366Y0038790D02*
X0034770Y0038790D01*
X0035940Y0037191D02*
X0056844Y0037191D01*
X0056153Y0035593D02*
X0036780Y0035593D01*
X0033160Y0040388D02*
X0067698Y0040388D01*
X0067698Y0041987D02*
X0030766Y0041987D01*
X0025422Y0041987D02*
X0023822Y0041987D01*
X0023822Y0040388D02*
X0025422Y0040388D01*
X0025422Y0038790D02*
X0023822Y0038790D01*
X0037889Y0029199D02*
X0058744Y0029199D01*
X0061229Y0029199D02*
X0062188Y0029199D01*
X0062188Y0030797D02*
X0061229Y0030797D01*
X0061229Y0032396D02*
X0062188Y0032396D01*
X0064673Y0029199D02*
X0067698Y0029199D01*
X0067698Y0030797D02*
X0066381Y0030797D01*
X0067178Y0032396D02*
X0067698Y0032396D01*
X0069898Y0032396D02*
X0076239Y0032396D01*
X0076113Y0032784D02*
X0076392Y0031925D01*
X0076802Y0031120D01*
X0077333Y0030390D01*
X0077971Y0029751D01*
X0078702Y0029220D01*
X0079506Y0028810D01*
X0080365Y0028531D01*
X0081229Y0028395D01*
X0081229Y0033647D01*
X0082188Y0033647D01*
X0082188Y0028395D01*
X0083052Y0028531D01*
X0083911Y0028810D01*
X0084716Y0029220D01*
X0085446Y0029751D01*
X0086085Y0030390D01*
X0086615Y0031120D01*
X0087025Y0031925D01*
X0087304Y0032784D01*
X0087441Y0033648D01*
X0082188Y0033648D01*
X0082188Y0034607D01*
X0081229Y0034607D01*
X0081229Y0039860D01*
X0080365Y0039723D01*
X0079506Y0039444D01*
X0078702Y0039034D01*
X0077971Y0038503D01*
X0077333Y0037864D01*
X0076802Y0037134D01*
X0076392Y0036329D01*
X0076113Y0035470D01*
X0075976Y0034607D01*
X0081229Y0034607D01*
X0081229Y0033648D01*
X0075976Y0033648D01*
X0076113Y0032784D01*
X0077037Y0030797D02*
X0069898Y0030797D01*
X0069898Y0029199D02*
X0078744Y0029199D01*
X0081229Y0029199D02*
X0082188Y0029199D01*
X0082188Y0030797D02*
X0081229Y0030797D01*
X0081229Y0032396D02*
X0082188Y0032396D01*
X0082188Y0033994D02*
X0100408Y0033994D01*
X0102006Y0032396D02*
X0087178Y0032396D01*
X0086381Y0030797D02*
X0103605Y0030797D01*
X0105203Y0029199D02*
X0084673Y0029199D01*
X0081229Y0033994D02*
X0069898Y0033994D01*
X0069898Y0035593D02*
X0076153Y0035593D01*
X0076844Y0037191D02*
X0069898Y0037191D01*
X0069898Y0038790D02*
X0078366Y0038790D01*
X0081229Y0038790D02*
X0082188Y0038790D01*
X0082188Y0039860D02*
X0083052Y0039723D01*
X0083911Y0039444D01*
X0084716Y0039034D01*
X0085446Y0038503D01*
X0086085Y0037864D01*
X0086615Y0037134D01*
X0087025Y0036329D01*
X0087304Y0035470D01*
X0087441Y0034607D01*
X0082188Y0034607D01*
X0082188Y0039860D01*
X0082188Y0037191D02*
X0081229Y0037191D01*
X0081229Y0035593D02*
X0082188Y0035593D01*
X0085051Y0038790D02*
X0095612Y0038790D01*
X0094014Y0040388D02*
X0069898Y0040388D01*
X0069898Y0041987D02*
X0092415Y0041987D01*
X0090817Y0043585D02*
X0069898Y0043585D01*
X0069898Y0045184D02*
X0089218Y0045184D01*
X0087620Y0046782D02*
X0106468Y0027934D01*
X0109153Y0026822D01*
X0112059Y0026822D01*
X0114745Y0027934D01*
X0116800Y0029989D01*
X0117912Y0032674D01*
X0117912Y0035580D01*
X0116800Y0038265D01*
X0107158Y0047907D01*
X0112991Y0047907D01*
X0123301Y0037597D01*
X0123301Y0032674D01*
X0124413Y0029989D01*
X0126468Y0027934D01*
X0129153Y0026822D01*
X0132059Y0026822D01*
X0134745Y0027934D01*
X0136800Y0029989D01*
X0137912Y0032674D01*
X0137912Y0042076D01*
X0136800Y0044761D01*
X0134745Y0046816D01*
X0133654Y0047907D01*
X0160235Y0047907D01*
X0172198Y0035944D01*
X0172198Y0032674D01*
X0173311Y0029989D01*
X0175366Y0027934D01*
X0178051Y0026822D01*
X0180957Y0026822D01*
X0183642Y0027934D01*
X0185697Y0029989D01*
X0186809Y0032674D01*
X0186809Y0040423D01*
X0185697Y0043108D01*
X0183642Y0045163D01*
X0180898Y0047907D01*
X0195117Y0047907D01*
X0193311Y0046100D01*
X0192198Y0043415D01*
X0192198Y0032674D01*
X0193311Y0029989D01*
X0195366Y0027934D01*
X0198051Y0026822D01*
X0200957Y0026822D01*
X0203642Y0027934D01*
X0205697Y0029989D01*
X0206809Y0032674D01*
X0206809Y0038936D01*
X0215780Y0047907D01*
X0239189Y0047907D01*
X0239189Y0018211D01*
X0069898Y0018211D01*
X0069898Y0046782D01*
X0087620Y0046782D01*
X0086574Y0037191D02*
X0097211Y0037191D01*
X0098809Y0035593D02*
X0087265Y0035593D01*
X0069898Y0027600D02*
X0107274Y0027600D01*
X0113939Y0027600D02*
X0127274Y0027600D01*
X0125203Y0029199D02*
X0116009Y0029199D01*
X0117134Y0030797D02*
X0124078Y0030797D01*
X0123416Y0032396D02*
X0117797Y0032396D01*
X0117912Y0033994D02*
X0123301Y0033994D01*
X0123301Y0035593D02*
X0117907Y0035593D01*
X0117245Y0037191D02*
X0123301Y0037191D01*
X0122108Y0038790D02*
X0116275Y0038790D01*
X0114677Y0040388D02*
X0120510Y0040388D01*
X0118911Y0041987D02*
X0113078Y0041987D01*
X0111480Y0043585D02*
X0117313Y0043585D01*
X0115714Y0045184D02*
X0109881Y0045184D01*
X0108283Y0046782D02*
X0114116Y0046782D01*
X0110274Y0051578D02*
X0103487Y0051578D01*
X0101889Y0053176D02*
X0109836Y0053176D01*
X0109836Y0054775D02*
X0100290Y0054775D01*
X0098692Y0056373D02*
X0110181Y0056373D01*
X0110843Y0057972D02*
X0097093Y0057972D01*
X0095495Y0059570D02*
X0112293Y0059570D01*
X0115147Y0061169D02*
X0092640Y0061169D01*
X0119137Y0061169D02*
X0162391Y0061169D01*
X0159537Y0059570D02*
X0121991Y0059570D01*
X0123589Y0057972D02*
X0158087Y0057972D01*
X0157425Y0056373D02*
X0125188Y0056373D01*
X0126786Y0054775D02*
X0157080Y0054775D01*
X0157080Y0053176D02*
X0128385Y0053176D01*
X0129983Y0051578D02*
X0157518Y0051578D01*
X0161360Y0046782D02*
X0134779Y0046782D01*
X0136377Y0045184D02*
X0162958Y0045184D01*
X0164557Y0043585D02*
X0137287Y0043585D01*
X0137912Y0041987D02*
X0166155Y0041987D01*
X0167754Y0040388D02*
X0137912Y0040388D01*
X0137912Y0038790D02*
X0147263Y0038790D01*
X0147599Y0039034D02*
X0146869Y0038503D01*
X0146230Y0037864D01*
X0145700Y0037134D01*
X0145290Y0036329D01*
X0145011Y0035470D01*
X0144874Y0034607D01*
X0150127Y0034607D01*
X0150127Y0039860D01*
X0149263Y0039723D01*
X0148404Y0039444D01*
X0147599Y0039034D01*
X0150127Y0038790D02*
X0151086Y0038790D01*
X0151086Y0039860D02*
X0151950Y0039723D01*
X0152809Y0039444D01*
X0153613Y0039034D01*
X0154344Y0038503D01*
X0154982Y0037864D01*
X0155513Y0037134D01*
X0155923Y0036329D01*
X0156202Y0035470D01*
X0156339Y0034607D01*
X0151086Y0034607D01*
X0150127Y0034607D01*
X0150127Y0033648D01*
X0144874Y0033648D01*
X0145011Y0032784D01*
X0145290Y0031925D01*
X0145700Y0031120D01*
X0146230Y0030390D01*
X0146869Y0029751D01*
X0147599Y0029220D01*
X0148404Y0028810D01*
X0149263Y0028531D01*
X0150127Y0028395D01*
X0150127Y0033647D01*
X0151086Y0033647D01*
X0151086Y0028395D01*
X0151950Y0028531D01*
X0152809Y0028810D01*
X0153613Y0029220D01*
X0154344Y0029751D01*
X0154982Y0030390D01*
X0155513Y0031120D01*
X0155923Y0031925D01*
X0156202Y0032784D01*
X0156339Y0033648D01*
X0151086Y0033648D01*
X0151086Y0034607D01*
X0151086Y0039860D01*
X0151086Y0037191D02*
X0150127Y0037191D01*
X0150127Y0035593D02*
X0151086Y0035593D01*
X0151086Y0033994D02*
X0172198Y0033994D01*
X0172198Y0035593D02*
X0156162Y0035593D01*
X0155471Y0037191D02*
X0170951Y0037191D01*
X0169352Y0038790D02*
X0153949Y0038790D01*
X0150127Y0033994D02*
X0137912Y0033994D01*
X0137912Y0035593D02*
X0145050Y0035593D01*
X0145741Y0037191D02*
X0137912Y0037191D01*
X0137797Y0032396D02*
X0145137Y0032396D01*
X0145934Y0030797D02*
X0137134Y0030797D01*
X0136009Y0029199D02*
X0147642Y0029199D01*
X0150127Y0029199D02*
X0151086Y0029199D01*
X0151086Y0030797D02*
X0150127Y0030797D01*
X0150127Y0032396D02*
X0151086Y0032396D01*
X0153571Y0029199D02*
X0174101Y0029199D01*
X0172976Y0030797D02*
X0155278Y0030797D01*
X0156076Y0032396D02*
X0172314Y0032396D01*
X0176171Y0027600D02*
X0133939Y0027600D01*
X0166381Y0061169D02*
X0209635Y0061169D01*
X0206781Y0059570D02*
X0169235Y0059570D01*
X0170833Y0057972D02*
X0205182Y0057972D01*
X0203584Y0056373D02*
X0172432Y0056373D01*
X0174030Y0054775D02*
X0201985Y0054775D01*
X0200387Y0053176D02*
X0175629Y0053176D01*
X0177227Y0051578D02*
X0198788Y0051578D01*
X0193993Y0046782D02*
X0182023Y0046782D01*
X0183621Y0045184D02*
X0192931Y0045184D01*
X0192269Y0043585D02*
X0185220Y0043585D01*
X0186162Y0041987D02*
X0192198Y0041987D01*
X0192198Y0040388D02*
X0186809Y0040388D01*
X0186809Y0038790D02*
X0192198Y0038790D01*
X0192198Y0037191D02*
X0186809Y0037191D01*
X0186809Y0035593D02*
X0192198Y0035593D01*
X0192198Y0033994D02*
X0186809Y0033994D01*
X0186694Y0032396D02*
X0192314Y0032396D01*
X0192976Y0030797D02*
X0186032Y0030797D01*
X0184907Y0029199D02*
X0194101Y0029199D01*
X0196171Y0027600D02*
X0182837Y0027600D01*
X0202837Y0027600D02*
X0239189Y0027600D01*
X0239189Y0026002D02*
X0069898Y0026002D01*
X0069898Y0024403D02*
X0239189Y0024403D01*
X0239189Y0022805D02*
X0069898Y0022805D01*
X0069898Y0021206D02*
X0239189Y0021206D01*
X0239189Y0019608D02*
X0069898Y0019608D01*
X0067698Y0019608D02*
X0032692Y0019608D01*
X0034447Y0021206D02*
X0067698Y0021206D01*
X0067698Y0022805D02*
X0035683Y0022805D01*
X0036610Y0024403D02*
X0067698Y0024403D01*
X0067698Y0026002D02*
X0037250Y0026002D01*
X0037667Y0027600D02*
X0067698Y0027600D01*
X0034465Y0079363D02*
X0027791Y0079363D01*
X0034465Y0079363D02*
X0034465Y0079403D01*
X0030296Y0104725D02*
X0012643Y0104725D01*
X0012643Y0264546D01*
X0013200Y0263502D01*
X0013927Y0262415D01*
X0014756Y0261405D01*
X0015680Y0260481D01*
X0016690Y0259652D01*
X0017776Y0258926D01*
X0018929Y0258310D01*
X0020136Y0257810D01*
X0021387Y0257431D01*
X0022668Y0257176D01*
X0023822Y0257062D01*
X0023822Y0269547D01*
X0025422Y0269547D01*
X0025422Y0257062D01*
X0026576Y0257176D01*
X0027858Y0257431D01*
X0029108Y0257810D01*
X0030315Y0258310D01*
X0031468Y0258926D01*
X0032554Y0259652D01*
X0033565Y0260481D01*
X0034489Y0261405D01*
X0035318Y0262415D01*
X0036044Y0263502D01*
X0036660Y0264654D01*
X0037160Y0265862D01*
X0037539Y0267112D01*
X0037794Y0268394D01*
X0037908Y0269548D01*
X0025422Y0269548D01*
X0025422Y0271148D01*
X0037908Y0271148D01*
X0037794Y0272301D01*
X0037539Y0273583D01*
X0037160Y0274834D01*
X0036660Y0276041D01*
X0036044Y0277193D01*
X0035318Y0278280D01*
X0034489Y0279290D01*
X0033565Y0280214D01*
X0032554Y0281043D01*
X0031468Y0281769D01*
X0030424Y0282327D01*
X0099964Y0282327D01*
X0099964Y0251422D01*
X0099126Y0252259D01*
X0098766Y0252259D01*
X0098766Y0259914D01*
X0088401Y0270279D01*
X0087439Y0270279D01*
X0087439Y0270639D01*
X0086331Y0271748D01*
X0078661Y0271748D01*
X0077553Y0270639D01*
X0077553Y0270279D01*
X0066180Y0270279D01*
X0066180Y0270639D01*
X0065071Y0271748D01*
X0057401Y0271748D01*
X0056293Y0270639D01*
X0056293Y0266119D01*
X0057401Y0265011D01*
X0065071Y0265011D01*
X0066180Y0266119D01*
X0066180Y0266479D01*
X0077553Y0266479D01*
X0077553Y0266119D01*
X0078661Y0265011D01*
X0086331Y0265011D01*
X0087313Y0265993D01*
X0094966Y0258340D01*
X0094966Y0252259D01*
X0094606Y0252259D01*
X0093520Y0251173D01*
X0092433Y0252259D01*
X0087913Y0252259D01*
X0087839Y0252186D01*
X0087839Y0252447D01*
X0082680Y0252447D01*
X0082680Y0248863D01*
X0085773Y0248863D01*
X0086216Y0248951D01*
X0086633Y0249123D01*
X0086805Y0249238D01*
X0086805Y0246237D01*
X0087913Y0245129D01*
X0088273Y0245129D01*
X0088273Y0236511D01*
X0087913Y0236511D01*
X0086805Y0235403D01*
X0086805Y0232264D01*
X0071079Y0216539D01*
X0055951Y0216539D01*
X0055746Y0216744D01*
X0055746Y0216899D01*
X0054638Y0218007D01*
X0049724Y0218007D01*
X0048949Y0217233D01*
X0048019Y0217233D01*
X0047441Y0217811D01*
X0045004Y0217811D01*
X0040892Y0221922D01*
X0039779Y0223035D01*
X0021867Y0223035D01*
X0020754Y0221922D01*
X0016817Y0217985D01*
X0016817Y0120763D01*
X0016792Y0120763D01*
X0015742Y0119713D01*
X0015742Y0115864D01*
X0016770Y0114836D01*
X0015742Y0113807D01*
X0015742Y0109959D01*
X0016792Y0108908D01*
X0020641Y0108908D01*
X0021322Y0109589D01*
X0023025Y0109589D01*
X0023025Y0109229D01*
X0024134Y0108121D01*
X0029048Y0108121D01*
X0030156Y0109229D01*
X0030156Y0113749D01*
X0029266Y0114640D01*
X0029350Y0114675D01*
X0029725Y0114925D01*
X0030044Y0115245D01*
X0030295Y0115620D01*
X0030296Y0115623D01*
X0030296Y0104725D01*
X0030296Y0105927D02*
X0012643Y0105927D01*
X0012643Y0107526D02*
X0030296Y0107526D01*
X0030296Y0109124D02*
X0030051Y0109124D01*
X0030156Y0110723D02*
X0030296Y0110723D01*
X0030296Y0112321D02*
X0030156Y0112321D01*
X0030296Y0113920D02*
X0029986Y0113920D01*
X0030227Y0115518D02*
X0030296Y0115518D01*
X0023196Y0113920D02*
X0021579Y0113920D01*
X0021345Y0115518D02*
X0022954Y0115518D01*
X0022625Y0117117D02*
X0021691Y0117117D01*
X0021691Y0118715D02*
X0022625Y0118715D01*
X0022711Y0120314D02*
X0021090Y0120314D01*
X0016817Y0121912D02*
X0012643Y0121912D01*
X0012643Y0120314D02*
X0016343Y0120314D01*
X0015742Y0118715D02*
X0012643Y0118715D01*
X0012643Y0117117D02*
X0015742Y0117117D01*
X0016088Y0115518D02*
X0012643Y0115518D01*
X0012643Y0113920D02*
X0015854Y0113920D01*
X0015742Y0112321D02*
X0012643Y0112321D01*
X0012643Y0110723D02*
X0015742Y0110723D01*
X0016576Y0109124D02*
X0012643Y0109124D01*
X0020857Y0109124D02*
X0023130Y0109124D01*
X0016817Y0123511D02*
X0012643Y0123511D01*
X0012643Y0125109D02*
X0016817Y0125109D01*
X0016817Y0126708D02*
X0012643Y0126708D01*
X0012643Y0128306D02*
X0016817Y0128306D01*
X0016817Y0129905D02*
X0012643Y0129905D01*
X0012643Y0131503D02*
X0016817Y0131503D01*
X0016817Y0133102D02*
X0012643Y0133102D01*
X0012643Y0134700D02*
X0016817Y0134700D01*
X0016817Y0136299D02*
X0012643Y0136299D01*
X0012643Y0137897D02*
X0016817Y0137897D01*
X0016817Y0139496D02*
X0012643Y0139496D01*
X0012643Y0141094D02*
X0016817Y0141094D01*
X0016817Y0142693D02*
X0012643Y0142693D01*
X0012643Y0144291D02*
X0016817Y0144291D01*
X0016817Y0145890D02*
X0012643Y0145890D01*
X0012643Y0147488D02*
X0016817Y0147488D01*
X0016817Y0149087D02*
X0012643Y0149087D01*
X0012643Y0150685D02*
X0016817Y0150685D01*
X0016817Y0152284D02*
X0012643Y0152284D01*
X0012643Y0153883D02*
X0016817Y0153883D01*
X0016817Y0155481D02*
X0012643Y0155481D01*
X0012643Y0157080D02*
X0016817Y0157080D01*
X0016817Y0158678D02*
X0012643Y0158678D01*
X0012643Y0160277D02*
X0016817Y0160277D01*
X0016817Y0161875D02*
X0012643Y0161875D01*
X0012643Y0163474D02*
X0016817Y0163474D01*
X0016817Y0165072D02*
X0012643Y0165072D01*
X0012643Y0166671D02*
X0016817Y0166671D01*
X0016817Y0168269D02*
X0012643Y0168269D01*
X0012643Y0169868D02*
X0016817Y0169868D01*
X0016817Y0171466D02*
X0012643Y0171466D01*
X0012643Y0173065D02*
X0016817Y0173065D01*
X0016817Y0174663D02*
X0012643Y0174663D01*
X0012643Y0176262D02*
X0016817Y0176262D01*
X0016817Y0177860D02*
X0012643Y0177860D01*
X0012643Y0179459D02*
X0016817Y0179459D01*
X0016817Y0181057D02*
X0012643Y0181057D01*
X0012643Y0182656D02*
X0016817Y0182656D01*
X0016817Y0184254D02*
X0012643Y0184254D01*
X0012643Y0185853D02*
X0016817Y0185853D01*
X0016817Y0187451D02*
X0012643Y0187451D01*
X0012643Y0189050D02*
X0016817Y0189050D01*
X0016817Y0190648D02*
X0012643Y0190648D01*
X0012643Y0192247D02*
X0016817Y0192247D01*
X0016817Y0193845D02*
X0012643Y0193845D01*
X0012643Y0195444D02*
X0016817Y0195444D01*
X0016817Y0197042D02*
X0012643Y0197042D01*
X0012643Y0198641D02*
X0016817Y0198641D01*
X0016817Y0200239D02*
X0012643Y0200239D01*
X0012643Y0201838D02*
X0016817Y0201838D01*
X0016817Y0203436D02*
X0012643Y0203436D01*
X0012643Y0205035D02*
X0016817Y0205035D01*
X0016817Y0206633D02*
X0012643Y0206633D01*
X0012643Y0208232D02*
X0016817Y0208232D01*
X0016817Y0209830D02*
X0012643Y0209830D01*
X0012643Y0211429D02*
X0016817Y0211429D01*
X0016817Y0213027D02*
X0012643Y0213027D01*
X0012643Y0214626D02*
X0016817Y0214626D01*
X0016817Y0216224D02*
X0012643Y0216224D01*
X0012643Y0217823D02*
X0016817Y0217823D01*
X0018253Y0219421D02*
X0012643Y0219421D01*
X0012643Y0221020D02*
X0019852Y0221020D01*
X0021450Y0222619D02*
X0012643Y0222619D01*
X0012643Y0224217D02*
X0078757Y0224217D01*
X0077159Y0222619D02*
X0040196Y0222619D01*
X0041794Y0221020D02*
X0075560Y0221020D01*
X0073962Y0219421D02*
X0043393Y0219421D01*
X0044991Y0217823D02*
X0049540Y0217823D01*
X0051787Y0215033D02*
X0045094Y0215033D01*
X0041216Y0216224D02*
X0040518Y0216224D01*
X0039617Y0217823D02*
X0022029Y0217823D01*
X0020617Y0216224D02*
X0031883Y0216224D01*
X0031883Y0214626D02*
X0020617Y0214626D01*
X0020617Y0213027D02*
X0031596Y0213027D01*
X0031483Y0211429D02*
X0020617Y0211429D01*
X0020617Y0209830D02*
X0031523Y0209830D01*
X0031483Y0211292D02*
X0035252Y0211292D01*
X0035252Y0211292D01*
X0031483Y0211292D01*
X0031883Y0208232D02*
X0020617Y0208232D01*
X0020617Y0206633D02*
X0031883Y0206633D01*
X0032645Y0205035D02*
X0020617Y0205035D01*
X0020617Y0203436D02*
X0032855Y0203436D01*
X0031687Y0201838D02*
X0020617Y0201838D01*
X0020617Y0200239D02*
X0031687Y0200239D01*
X0031103Y0198641D02*
X0020617Y0198641D01*
X0020617Y0197042D02*
X0030296Y0197042D01*
X0032496Y0196922D02*
X0032496Y0193576D01*
X0032496Y0196922D02*
X0035055Y0199481D01*
X0035055Y0207355D01*
X0035252Y0207552D01*
X0038598Y0207552D01*
X0040370Y0209324D01*
X0040370Y0213261D01*
X0038402Y0215229D01*
X0035449Y0215229D01*
X0035252Y0215033D01*
X0040791Y0206633D02*
X0041726Y0206633D01*
X0042487Y0205035D02*
X0037859Y0205035D01*
X0037255Y0203436D02*
X0039994Y0203436D01*
X0041564Y0203436D02*
X0041932Y0203436D01*
X0041932Y0203447D02*
X0041932Y0199666D01*
X0045517Y0199666D01*
X0045517Y0201380D01*
X0045428Y0201823D01*
X0045256Y0202240D01*
X0045005Y0202616D01*
X0044686Y0202935D01*
X0044310Y0203186D01*
X0043893Y0203359D01*
X0043450Y0203447D01*
X0041932Y0203447D01*
X0043502Y0203436D02*
X0059824Y0203436D01*
X0059824Y0201838D02*
X0045422Y0201838D01*
X0045517Y0200239D02*
X0059824Y0200239D01*
X0059824Y0198641D02*
X0045517Y0198641D01*
X0045388Y0197042D02*
X0059824Y0197042D01*
X0060981Y0195444D02*
X0037439Y0195444D01*
X0037439Y0193845D02*
X0062580Y0193845D01*
X0064178Y0192247D02*
X0037439Y0192247D01*
X0036772Y0190648D02*
X0065777Y0190648D01*
X0067375Y0189050D02*
X0020617Y0189050D01*
X0020617Y0190648D02*
X0028220Y0190648D01*
X0027553Y0192247D02*
X0020617Y0192247D01*
X0020617Y0193845D02*
X0027553Y0193845D01*
X0027553Y0195444D02*
X0020617Y0195444D01*
X0020617Y0187451D02*
X0084350Y0187451D01*
X0083649Y0185853D02*
X0020617Y0185853D01*
X0020617Y0184254D02*
X0027782Y0184254D01*
X0027553Y0182656D02*
X0020617Y0182656D01*
X0020617Y0181057D02*
X0027553Y0181057D01*
X0027599Y0179459D02*
X0020617Y0179459D01*
X0034696Y0177860D02*
X0075872Y0177860D01*
X0075872Y0176262D02*
X0034696Y0176262D01*
X0034696Y0174663D02*
X0075699Y0174663D01*
X0074101Y0173065D02*
X0034696Y0173065D01*
X0034696Y0171466D02*
X0072502Y0171466D01*
X0070904Y0169868D02*
X0034696Y0169868D01*
X0034696Y0168269D02*
X0069305Y0168269D01*
X0067707Y0166671D02*
X0034696Y0166671D01*
X0034696Y0165072D02*
X0066108Y0165072D01*
X0064510Y0163474D02*
X0034696Y0163474D01*
X0034696Y0161875D02*
X0062911Y0161875D01*
X0058427Y0160277D02*
X0034696Y0160277D01*
X0034696Y0158678D02*
X0056246Y0158678D01*
X0055561Y0157080D02*
X0034696Y0157080D01*
X0034696Y0155481D02*
X0055545Y0155481D01*
X0056136Y0153883D02*
X0034696Y0153883D01*
X0034696Y0152284D02*
X0057915Y0152284D01*
X0061880Y0152284D02*
X0062592Y0152284D01*
X0062592Y0150685D02*
X0034696Y0150685D01*
X0034696Y0149087D02*
X0062592Y0149087D01*
X0062592Y0147488D02*
X0034696Y0147488D01*
X0034696Y0145890D02*
X0062592Y0145890D01*
X0062592Y0144291D02*
X0034696Y0144291D01*
X0034696Y0142693D02*
X0062592Y0142693D01*
X0063230Y0141094D02*
X0034696Y0141094D01*
X0034696Y0139496D02*
X0064158Y0139496D01*
X0065756Y0137897D02*
X0034696Y0137897D01*
X0034696Y0136299D02*
X0268885Y0136299D01*
X0268885Y0137897D02*
X0215771Y0137897D01*
X0217370Y0139496D02*
X0268885Y0139496D01*
X0268885Y0141094D02*
X0218297Y0141094D01*
X0218935Y0142693D02*
X0268885Y0142693D01*
X0268885Y0144291D02*
X0218935Y0144291D01*
X0218935Y0145890D02*
X0268885Y0145890D01*
X0268885Y0147488D02*
X0218935Y0147488D01*
X0218935Y0149087D02*
X0268885Y0149087D01*
X0268885Y0150685D02*
X0218935Y0150685D01*
X0221446Y0152284D02*
X0221814Y0152284D01*
X0221814Y0153883D02*
X0221446Y0153883D01*
X0221446Y0155481D02*
X0221814Y0155481D01*
X0221814Y0156359D02*
X0226383Y0156359D01*
X0226383Y0156548D01*
X0226266Y0157287D01*
X0226034Y0157999D01*
X0225695Y0158665D01*
X0225255Y0159271D01*
X0224726Y0159800D01*
X0224121Y0160239D01*
X0223454Y0160579D01*
X0222743Y0160810D01*
X0222004Y0160927D01*
X0221814Y0160927D01*
X0221814Y0156359D01*
X0221814Y0157080D02*
X0221446Y0157080D01*
X0221446Y0158678D02*
X0221814Y0158678D01*
X0221814Y0160277D02*
X0221446Y0160277D01*
X0219212Y0160277D02*
X0217838Y0160277D01*
X0216261Y0161875D02*
X0268885Y0161875D01*
X0268885Y0160277D02*
X0224048Y0160277D01*
X0225686Y0158678D02*
X0268885Y0158678D01*
X0268885Y0157080D02*
X0226299Y0157080D01*
X0226332Y0155481D02*
X0268885Y0155481D01*
X0268885Y0153883D02*
X0225796Y0153883D01*
X0224361Y0152284D02*
X0268885Y0152284D01*
X0268885Y0163474D02*
X0213098Y0163474D01*
X0210162Y0163474D02*
X0203530Y0163474D01*
X0203530Y0165072D02*
X0268885Y0165072D01*
X0268885Y0166671D02*
X0203530Y0166671D01*
X0203530Y0168269D02*
X0268885Y0168269D01*
X0268885Y0169868D02*
X0203530Y0169868D01*
X0203530Y0171466D02*
X0268885Y0171466D01*
X0268885Y0173065D02*
X0203530Y0173065D01*
X0203530Y0174663D02*
X0268885Y0174663D01*
X0268885Y0176262D02*
X0203530Y0176262D01*
X0203530Y0177860D02*
X0268885Y0177860D01*
X0268885Y0179459D02*
X0203530Y0179459D01*
X0203530Y0181057D02*
X0268885Y0181057D01*
X0268885Y0182656D02*
X0203530Y0182656D01*
X0203530Y0184254D02*
X0251678Y0184254D01*
X0251728Y0184066D02*
X0251965Y0183656D01*
X0252300Y0183321D01*
X0252711Y0183084D01*
X0253169Y0182961D01*
X0256721Y0182961D01*
X0256721Y0188077D01*
X0251606Y0188077D01*
X0251606Y0184524D01*
X0251728Y0184066D01*
X0251606Y0185853D02*
X0203530Y0185853D01*
X0203530Y0187451D02*
X0251606Y0187451D01*
X0251606Y0188445D02*
X0256721Y0188445D01*
X0256721Y0188077D01*
X0257090Y0188077D01*
X0257090Y0188445D01*
X0262205Y0188445D01*
X0262205Y0191998D01*
X0262083Y0192456D01*
X0261846Y0192866D01*
X0261511Y0193201D01*
X0261100Y0193438D01*
X0260642Y0193561D01*
X0258363Y0193561D01*
X0259681Y0194107D01*
X0261060Y0195485D01*
X0261805Y0197286D01*
X0261805Y0199236D01*
X0261060Y0201037D01*
X0259681Y0202415D01*
X0257880Y0203161D01*
X0255931Y0203161D01*
X0254130Y0202415D01*
X0252751Y0201037D01*
X0252006Y0199236D01*
X0252006Y0197286D01*
X0252751Y0195485D01*
X0254130Y0194107D01*
X0255448Y0193561D01*
X0253169Y0193561D01*
X0252711Y0193438D01*
X0252300Y0193201D01*
X0251965Y0192866D01*
X0251728Y0192456D01*
X0251606Y0191998D01*
X0251606Y0188445D01*
X0251606Y0189050D02*
X0203530Y0189050D01*
X0203530Y0190648D02*
X0251606Y0190648D01*
X0251672Y0192247D02*
X0203530Y0192247D01*
X0203530Y0193845D02*
X0254761Y0193845D01*
X0252793Y0195444D02*
X0203530Y0195444D01*
X0203530Y0197042D02*
X0252107Y0197042D01*
X0252006Y0198641D02*
X0203530Y0198641D01*
X0203530Y0200239D02*
X0252421Y0200239D01*
X0253553Y0201838D02*
X0203530Y0201838D01*
X0203530Y0203436D02*
X0255749Y0203436D01*
X0255931Y0203361D02*
X0257880Y0203361D01*
X0259681Y0204107D01*
X0261060Y0205485D01*
X0261805Y0207286D01*
X0261805Y0209236D01*
X0261060Y0211037D01*
X0259681Y0212415D01*
X0257880Y0213161D01*
X0255931Y0213161D01*
X0254130Y0212415D01*
X0252751Y0211037D01*
X0252006Y0209236D01*
X0252006Y0207286D01*
X0252751Y0205485D01*
X0254130Y0204107D01*
X0255931Y0203361D01*
X0258062Y0203436D02*
X0268885Y0203436D01*
X0268885Y0201838D02*
X0260258Y0201838D01*
X0261390Y0200239D02*
X0268885Y0200239D01*
X0268885Y0198641D02*
X0261805Y0198641D01*
X0261704Y0197042D02*
X0268885Y0197042D01*
X0268885Y0195444D02*
X0261018Y0195444D01*
X0259050Y0193845D02*
X0268885Y0193845D01*
X0268885Y0192247D02*
X0262139Y0192247D01*
X0262205Y0190648D02*
X0268885Y0190648D01*
X0268885Y0189050D02*
X0262205Y0189050D01*
X0262205Y0188077D02*
X0257090Y0188077D01*
X0257090Y0182961D01*
X0260642Y0182961D01*
X0261100Y0183084D01*
X0261511Y0183321D01*
X0261846Y0183656D01*
X0262083Y0184066D01*
X0262205Y0184524D01*
X0262205Y0188077D01*
X0262205Y0187451D02*
X0268885Y0187451D01*
X0268885Y0185853D02*
X0262205Y0185853D01*
X0262133Y0184254D02*
X0268885Y0184254D01*
X0257090Y0184254D02*
X0256721Y0184254D01*
X0256721Y0185853D02*
X0257090Y0185853D01*
X0257090Y0187451D02*
X0256721Y0187451D01*
X0253202Y0205035D02*
X0203530Y0205035D01*
X0203530Y0206633D02*
X0252276Y0206633D01*
X0252006Y0208232D02*
X0203530Y0208232D01*
X0203530Y0209830D02*
X0252252Y0209830D01*
X0253144Y0211429D02*
X0203530Y0211429D01*
X0203530Y0213027D02*
X0255609Y0213027D01*
X0253611Y0214626D02*
X0203530Y0214626D01*
X0203530Y0216224D02*
X0252445Y0216224D01*
X0252006Y0217823D02*
X0203530Y0217823D01*
X0203530Y0219421D02*
X0252083Y0219421D01*
X0251459Y0221020D02*
X0203530Y0221020D01*
X0203530Y0222619D02*
X0249861Y0222619D01*
X0248262Y0224217D02*
X0203530Y0224217D01*
X0203530Y0225816D02*
X0246664Y0225816D01*
X0245163Y0227414D02*
X0203530Y0227414D01*
X0203530Y0229013D02*
X0245163Y0229013D01*
X0245163Y0230611D02*
X0203530Y0230611D01*
X0203530Y0232210D02*
X0245163Y0232210D01*
X0245163Y0233808D02*
X0203530Y0233808D01*
X0203530Y0235407D02*
X0243884Y0235407D01*
X0242285Y0237005D02*
X0202384Y0237005D01*
X0200785Y0238604D02*
X0240687Y0238604D01*
X0239088Y0240202D02*
X0199187Y0240202D01*
X0197588Y0241801D02*
X0237490Y0241801D01*
X0235891Y0243399D02*
X0194601Y0243399D01*
X0194723Y0238920D02*
X0195095Y0238920D01*
X0199730Y0234285D01*
X0199730Y0223911D01*
X0196669Y0226972D01*
X0194723Y0226972D01*
X0194723Y0227529D01*
X0193614Y0228637D01*
X0189908Y0228637D01*
X0189908Y0228981D01*
X0191170Y0228981D01*
X0191170Y0232762D01*
X0191539Y0232762D01*
X0191539Y0233130D01*
X0195123Y0233130D01*
X0195123Y0234845D01*
X0195035Y0235288D01*
X0194862Y0235705D01*
X0194611Y0236080D01*
X0194292Y0236400D01*
X0193916Y0236650D01*
X0193499Y0236823D01*
X0193056Y0236911D01*
X0191539Y0236911D01*
X0191539Y0233130D01*
X0191170Y0233130D01*
X0191170Y0236911D01*
X0189908Y0236911D01*
X0189908Y0237255D01*
X0193614Y0237255D01*
X0194723Y0238363D01*
X0194723Y0238920D01*
X0194723Y0238604D02*
X0195411Y0238604D01*
X0197010Y0237005D02*
X0189908Y0237005D01*
X0191170Y0235407D02*
X0191539Y0235407D01*
X0191539Y0233808D02*
X0191170Y0233808D01*
X0191539Y0232762D02*
X0195123Y0232762D01*
X0195123Y0231047D01*
X0195035Y0230604D01*
X0194862Y0230187D01*
X0194611Y0229812D01*
X0194292Y0229492D01*
X0193916Y0229241D01*
X0193499Y0229069D01*
X0193056Y0228981D01*
X0191539Y0228981D01*
X0191539Y0232762D01*
X0191539Y0232210D02*
X0191170Y0232210D01*
X0191170Y0230611D02*
X0191539Y0230611D01*
X0191539Y0229013D02*
X0191170Y0229013D01*
X0193217Y0229013D02*
X0199730Y0229013D01*
X0199730Y0230611D02*
X0195036Y0230611D01*
X0195123Y0232210D02*
X0199730Y0232210D01*
X0199730Y0233808D02*
X0195123Y0233808D01*
X0194986Y0235407D02*
X0198608Y0235407D01*
X0199730Y0227414D02*
X0194723Y0227414D01*
X0197825Y0225816D02*
X0199730Y0225816D01*
X0199730Y0224217D02*
X0199424Y0224217D01*
X0195648Y0222619D02*
X0194723Y0222619D01*
X0193633Y0221020D02*
X0197247Y0221020D01*
X0197919Y0219421D02*
X0195058Y0219421D01*
X0195123Y0217823D02*
X0197919Y0217823D01*
X0197919Y0216224D02*
X0195123Y0216224D01*
X0195123Y0217014D02*
X0191539Y0217014D01*
X0191539Y0213233D01*
X0193056Y0213233D01*
X0193499Y0213321D01*
X0193916Y0213493D01*
X0194292Y0213744D01*
X0194611Y0214064D01*
X0194862Y0214439D01*
X0195035Y0214856D01*
X0195123Y0215299D01*
X0195123Y0217014D01*
X0194939Y0214626D02*
X0197919Y0214626D01*
X0197919Y0213027D02*
X0189908Y0213027D01*
X0191170Y0214626D02*
X0191539Y0214626D01*
X0191539Y0216224D02*
X0191170Y0216224D01*
X0191170Y0217823D02*
X0191539Y0217823D01*
X0191539Y0219421D02*
X0191170Y0219421D01*
X0191170Y0221020D02*
X0191539Y0221020D01*
X0186108Y0228637D02*
X0182401Y0228637D01*
X0181293Y0227529D01*
X0181293Y0226972D01*
X0177597Y0226972D01*
X0177597Y0227332D01*
X0176488Y0228440D01*
X0168031Y0228440D01*
X0166923Y0227332D01*
X0166923Y0222812D01*
X0168031Y0221703D01*
X0176488Y0221703D01*
X0177597Y0222812D01*
X0177597Y0223172D01*
X0181293Y0223172D01*
X0181293Y0222615D01*
X0182401Y0221507D01*
X0182761Y0221507D01*
X0182761Y0220763D01*
X0182401Y0220763D01*
X0181293Y0219655D01*
X0181293Y0214789D01*
X0177597Y0218485D01*
X0177597Y0219458D01*
X0176488Y0220566D01*
X0168031Y0220566D01*
X0166923Y0219458D01*
X0166923Y0215161D01*
X0136040Y0215161D01*
X0116355Y0195476D01*
X0114605Y0195476D01*
X0114605Y0195836D01*
X0113496Y0196944D01*
X0105039Y0196944D01*
X0103931Y0195836D01*
X0103931Y0193217D01*
X0099054Y0193217D01*
X0099054Y0193277D01*
X0098383Y0193948D01*
X0099126Y0193948D01*
X0100235Y0195056D01*
X0100235Y0199970D01*
X0099126Y0201078D01*
X0098766Y0201078D01*
X0098766Y0201822D01*
X0099126Y0201822D01*
X0100235Y0202930D01*
X0100235Y0203487D01*
X0100607Y0203487D01*
X0103931Y0200163D01*
X0103931Y0199190D01*
X0105039Y0198081D01*
X0113496Y0198081D01*
X0114605Y0199190D01*
X0114605Y0203710D01*
X0113496Y0204818D01*
X0105039Y0204818D01*
X0104844Y0204623D01*
X0103294Y0206174D01*
X0102181Y0207287D01*
X0100235Y0207287D01*
X0100235Y0207844D01*
X0099126Y0208952D01*
X0094606Y0208952D01*
X0093520Y0207866D01*
X0092433Y0208952D01*
X0087913Y0208952D01*
X0086805Y0207844D01*
X0086805Y0207264D01*
X0079809Y0200268D01*
X0079809Y0199555D01*
X0079740Y0199486D01*
X0079672Y0199555D01*
X0079672Y0202631D01*
X0087324Y0210284D01*
X0087913Y0209696D01*
X0092433Y0209696D01*
X0093520Y0210782D01*
X0094606Y0209696D01*
X0099126Y0209696D01*
X0100235Y0210804D01*
X0100235Y0211361D01*
X0100607Y0211361D01*
X0103931Y0208037D01*
X0103931Y0207064D01*
X0105039Y0205955D01*
X0113496Y0205955D01*
X0114605Y0207064D01*
X0114605Y0211584D01*
X0113496Y0212692D01*
X0105039Y0212692D01*
X0104844Y0212497D01*
X0102181Y0215161D01*
X0100235Y0215161D01*
X0100235Y0215718D01*
X0099126Y0216826D01*
X0098766Y0216826D01*
X0098766Y0217570D01*
X0099126Y0217570D01*
X0100235Y0218678D01*
X0100235Y0223592D01*
X0099126Y0224700D01*
X0094606Y0224700D01*
X0093716Y0223810D01*
X0093681Y0223894D01*
X0093430Y0224269D01*
X0093111Y0224589D01*
X0092735Y0224839D01*
X0092318Y0225012D01*
X0091875Y0225100D01*
X0090357Y0225100D01*
X0090357Y0221319D01*
X0089989Y0221319D01*
X0089989Y0220951D01*
X0086405Y0220951D01*
X0086405Y0219236D01*
X0086493Y0218793D01*
X0086666Y0218376D01*
X0086916Y0218001D01*
X0087236Y0217681D01*
X0087611Y0217430D01*
X0088028Y0217258D01*
X0088471Y0217170D01*
X0089989Y0217170D01*
X0089989Y0220951D01*
X0090357Y0220951D01*
X0090357Y0217170D01*
X0091875Y0217170D01*
X0092318Y0217258D01*
X0092735Y0217430D01*
X0093111Y0217681D01*
X0093430Y0218001D01*
X0093681Y0218376D01*
X0093716Y0218460D01*
X0094606Y0217570D01*
X0094966Y0217570D01*
X0094966Y0216826D01*
X0094606Y0216826D01*
X0093520Y0215740D01*
X0092433Y0216826D01*
X0087913Y0216826D01*
X0086805Y0215718D01*
X0086805Y0215138D01*
X0076985Y0205318D01*
X0075872Y0204205D01*
X0075872Y0199555D01*
X0075409Y0199092D01*
X0074984Y0198067D01*
X0074984Y0196958D01*
X0075409Y0195934D01*
X0076193Y0195150D01*
X0077217Y0194726D01*
X0078326Y0194726D01*
X0079351Y0195150D01*
X0079740Y0195539D01*
X0080130Y0195150D01*
X0081154Y0194726D01*
X0082263Y0194726D01*
X0083288Y0195150D01*
X0084072Y0195934D01*
X0084496Y0196958D01*
X0084496Y0198067D01*
X0084072Y0199092D01*
X0084039Y0199125D01*
X0087324Y0202410D01*
X0087913Y0201822D01*
X0092433Y0201822D01*
X0093520Y0202908D01*
X0094606Y0201822D01*
X0094966Y0201822D01*
X0094966Y0201078D01*
X0094606Y0201078D01*
X0093716Y0200188D01*
X0093681Y0200272D01*
X0093430Y0200647D01*
X0093111Y0200967D01*
X0092735Y0201217D01*
X0092318Y0201390D01*
X0091875Y0201478D01*
X0090357Y0201478D01*
X0090357Y0197697D01*
X0089989Y0197697D01*
X0089989Y0197329D01*
X0086405Y0197329D01*
X0086405Y0195614D01*
X0086493Y0195171D01*
X0086666Y0194754D01*
X0086912Y0194385D01*
X0085157Y0194385D01*
X0084049Y0193277D01*
X0084049Y0193217D01*
X0069431Y0193217D01*
X0064224Y0198424D01*
X0064224Y0208267D01*
X0062935Y0209555D01*
X0059751Y0212739D01*
X0072653Y0212739D01*
X0073766Y0213852D01*
X0089295Y0229381D01*
X0092433Y0229381D01*
X0093520Y0230467D01*
X0094606Y0229381D01*
X0099126Y0229381D01*
X0100235Y0230489D01*
X0100235Y0231046D01*
X0103931Y0231046D01*
X0103931Y0230686D01*
X0105039Y0229577D01*
X0113496Y0229577D01*
X0114605Y0230686D01*
X0114605Y0235206D01*
X0113496Y0236314D01*
X0105039Y0236314D01*
X0103931Y0235206D01*
X0103931Y0234846D01*
X0100235Y0234846D01*
X0100235Y0235403D01*
X0099126Y0236511D01*
X0094606Y0236511D01*
X0093520Y0235425D01*
X0092433Y0236511D01*
X0092073Y0236511D01*
X0092073Y0245129D01*
X0092433Y0245129D01*
X0093520Y0246215D01*
X0094606Y0245129D01*
X0099126Y0245129D01*
X0100235Y0246237D01*
X0100235Y0246794D01*
X0103931Y0246794D01*
X0103931Y0246434D01*
X0105039Y0245326D01*
X0113496Y0245326D01*
X0114605Y0246434D01*
X0114605Y0249114D01*
X0166923Y0249114D01*
X0166923Y0246434D01*
X0168031Y0245326D01*
X0176488Y0245326D01*
X0177597Y0246434D01*
X0177597Y0246794D01*
X0179484Y0246794D01*
X0176683Y0243994D01*
X0176488Y0244188D01*
X0168031Y0244188D01*
X0166923Y0243080D01*
X0166923Y0238560D01*
X0168031Y0237451D01*
X0176488Y0237451D01*
X0177597Y0238560D01*
X0177597Y0239533D01*
X0181293Y0243229D01*
X0181293Y0238363D01*
X0182401Y0237255D01*
X0182761Y0237255D01*
X0182761Y0236511D01*
X0182401Y0236511D01*
X0181293Y0235403D01*
X0181293Y0234846D01*
X0177597Y0234846D01*
X0177597Y0235206D01*
X0176488Y0236314D01*
X0168031Y0236314D01*
X0166923Y0235206D01*
X0166923Y0230686D01*
X0168031Y0229577D01*
X0176488Y0229577D01*
X0177597Y0230686D01*
X0177597Y0231046D01*
X0181293Y0231046D01*
X0181293Y0230489D01*
X0182401Y0229381D01*
X0186108Y0229381D01*
X0186108Y0228637D01*
X0186108Y0229013D02*
X0088927Y0229013D01*
X0087328Y0227414D02*
X0104013Y0227414D01*
X0103931Y0227332D02*
X0103931Y0222812D01*
X0105039Y0221703D01*
X0113496Y0221703D01*
X0114605Y0222812D01*
X0114605Y0227332D01*
X0113496Y0228440D01*
X0105039Y0228440D01*
X0103931Y0227332D01*
X0103931Y0225816D02*
X0085730Y0225816D01*
X0087236Y0224589D02*
X0086916Y0224269D01*
X0086666Y0223894D01*
X0086493Y0223477D01*
X0086405Y0223034D01*
X0086405Y0221319D01*
X0089989Y0221319D01*
X0089989Y0225100D01*
X0088471Y0225100D01*
X0088028Y0225012D01*
X0087611Y0224839D01*
X0087236Y0224589D01*
X0086881Y0224217D02*
X0084131Y0224217D01*
X0082533Y0222619D02*
X0086405Y0222619D01*
X0086405Y0219421D02*
X0079336Y0219421D01*
X0077737Y0217823D02*
X0087094Y0217823D01*
X0087311Y0216224D02*
X0076139Y0216224D01*
X0074540Y0214626D02*
X0086292Y0214626D01*
X0084694Y0213027D02*
X0072942Y0213027D01*
X0073766Y0213852D02*
X0073766Y0213852D01*
X0072363Y0217823D02*
X0054822Y0217823D01*
X0054740Y0214639D02*
X0062024Y0207355D01*
X0062024Y0197513D01*
X0068520Y0191017D01*
X0087614Y0191017D01*
X0095488Y0191017D01*
X0106709Y0191017D01*
X0109268Y0193576D01*
X0107853Y0189050D02*
X0117710Y0189050D01*
X0117710Y0190648D02*
X0113937Y0190648D01*
X0117710Y0187451D02*
X0098752Y0187451D01*
X0099454Y0185853D02*
X0117710Y0185853D01*
X0117710Y0184254D02*
X0095673Y0184254D01*
X0095304Y0184254D02*
X0087798Y0184254D01*
X0087430Y0184254D02*
X0082983Y0184254D01*
X0080435Y0184254D02*
X0079046Y0184254D01*
X0076498Y0184254D02*
X0037210Y0184254D01*
X0037439Y0182656D02*
X0075124Y0182656D01*
X0075048Y0181057D02*
X0037439Y0181057D01*
X0037393Y0179459D02*
X0075872Y0179459D01*
X0079672Y0179459D02*
X0080073Y0179459D01*
X0079672Y0177860D02*
X0082769Y0177860D01*
X0084367Y0176262D02*
X0079672Y0176262D01*
X0079672Y0174663D02*
X0085966Y0174663D01*
X0087564Y0173065D02*
X0079475Y0173065D01*
X0077876Y0171466D02*
X0089163Y0171466D01*
X0090761Y0169868D02*
X0076278Y0169868D01*
X0074679Y0168269D02*
X0092360Y0168269D01*
X0093958Y0166671D02*
X0073081Y0166671D01*
X0071482Y0165072D02*
X0095557Y0165072D01*
X0097155Y0163474D02*
X0071366Y0163474D01*
X0074528Y0161875D02*
X0098754Y0161875D01*
X0100352Y0160277D02*
X0082315Y0160277D01*
X0082389Y0160239D02*
X0081722Y0160579D01*
X0081011Y0160810D01*
X0080272Y0160927D01*
X0080082Y0160927D01*
X0080082Y0156359D01*
X0084650Y0156359D01*
X0084650Y0156548D01*
X0084533Y0157287D01*
X0084302Y0157999D01*
X0083963Y0158665D01*
X0083523Y0159271D01*
X0082994Y0159800D01*
X0082389Y0160239D01*
X0083953Y0158678D02*
X0101951Y0158678D01*
X0102805Y0157080D02*
X0084566Y0157080D01*
X0084650Y0155990D02*
X0080082Y0155990D01*
X0080082Y0151422D01*
X0080272Y0151422D01*
X0081011Y0151539D01*
X0081722Y0151770D01*
X0082389Y0152109D01*
X0082994Y0152549D01*
X0083523Y0153078D01*
X0083963Y0153683D01*
X0084302Y0154350D01*
X0084533Y0155061D01*
X0084650Y0155800D01*
X0084650Y0155990D01*
X0084600Y0155481D02*
X0102789Y0155481D01*
X0103380Y0153883D02*
X0084064Y0153883D01*
X0082629Y0152284D02*
X0105159Y0152284D01*
X0109124Y0152284D02*
X0109836Y0152284D01*
X0109836Y0150685D02*
X0077203Y0150685D01*
X0077203Y0149087D02*
X0109836Y0149087D01*
X0109836Y0147488D02*
X0077203Y0147488D01*
X0077203Y0145890D02*
X0109836Y0145890D01*
X0109836Y0144291D02*
X0077203Y0144291D01*
X0077203Y0142693D02*
X0109836Y0142693D01*
X0110474Y0141094D02*
X0076565Y0141094D01*
X0075637Y0139496D02*
X0111402Y0139496D01*
X0113000Y0137897D02*
X0074039Y0137897D01*
X0079713Y0152284D02*
X0080082Y0152284D01*
X0080082Y0153883D02*
X0079713Y0153883D01*
X0079713Y0155481D02*
X0080082Y0155481D01*
X0080082Y0157080D02*
X0079713Y0157080D01*
X0079713Y0158678D02*
X0080082Y0158678D01*
X0080082Y0160277D02*
X0079713Y0160277D01*
X0077480Y0160277D02*
X0076106Y0160277D01*
X0091340Y0174663D02*
X0188062Y0174663D01*
X0189660Y0176262D02*
X0089741Y0176262D01*
X0088143Y0177860D02*
X0191259Y0177860D01*
X0192857Y0179459D02*
X0086544Y0179459D01*
X0087430Y0181057D02*
X0087798Y0181057D01*
X0087798Y0182656D02*
X0087430Y0182656D01*
X0090734Y0181057D02*
X0092369Y0181057D01*
X0095304Y0181057D02*
X0095672Y0181057D01*
X0095672Y0182656D02*
X0095304Y0182656D01*
X0098608Y0181057D02*
X0194456Y0181057D01*
X0196054Y0182656D02*
X0163031Y0182656D01*
X0162709Y0182333D02*
X0163817Y0183442D01*
X0163817Y0191899D01*
X0162709Y0193007D01*
X0158189Y0193007D01*
X0157080Y0191899D01*
X0157080Y0183442D01*
X0158189Y0182333D01*
X0162709Y0182333D01*
X0163817Y0184254D02*
X0197653Y0184254D01*
X0197919Y0185853D02*
X0163817Y0185853D01*
X0163817Y0187451D02*
X0197919Y0187451D01*
X0197919Y0189050D02*
X0163817Y0189050D01*
X0163817Y0190648D02*
X0167028Y0190648D01*
X0167035Y0190638D02*
X0167354Y0190319D01*
X0167729Y0190068D01*
X0168146Y0189895D01*
X0168589Y0189807D01*
X0172076Y0189807D01*
X0172076Y0193392D01*
X0172444Y0193392D01*
X0172444Y0193760D01*
X0177997Y0193760D01*
X0177997Y0195278D01*
X0177909Y0195721D01*
X0177736Y0196138D01*
X0177485Y0196513D01*
X0177166Y0196833D01*
X0176790Y0197084D01*
X0176373Y0197256D01*
X0175930Y0197344D01*
X0172444Y0197344D01*
X0172444Y0193760D01*
X0172076Y0193760D01*
X0172076Y0197344D01*
X0168589Y0197344D01*
X0168146Y0197256D01*
X0167729Y0197084D01*
X0167354Y0196833D01*
X0167035Y0196513D01*
X0166784Y0196138D01*
X0166611Y0195721D01*
X0166523Y0195278D01*
X0166523Y0193760D01*
X0172076Y0193760D01*
X0172076Y0193392D01*
X0166523Y0193392D01*
X0166523Y0191874D01*
X0166611Y0191431D01*
X0166784Y0191014D01*
X0167035Y0190638D01*
X0166523Y0192247D02*
X0163470Y0192247D01*
X0166523Y0193845D02*
X0120098Y0193845D01*
X0121697Y0195444D02*
X0166556Y0195444D01*
X0167668Y0197042D02*
X0123295Y0197042D01*
X0124894Y0198641D02*
X0167472Y0198641D01*
X0166923Y0200239D02*
X0126492Y0200239D01*
X0128091Y0201838D02*
X0166923Y0201838D01*
X0166923Y0203436D02*
X0129689Y0203436D01*
X0131288Y0205035D02*
X0178389Y0205035D01*
X0177597Y0203436D02*
X0179988Y0203436D01*
X0179086Y0201838D02*
X0181293Y0201838D01*
X0181293Y0200239D02*
X0180685Y0200239D01*
X0178508Y0197042D02*
X0176852Y0197042D01*
X0177964Y0195444D02*
X0180106Y0195444D01*
X0181293Y0193845D02*
X0177997Y0193845D01*
X0177997Y0193392D02*
X0172444Y0193392D01*
X0172444Y0189807D01*
X0175930Y0189807D01*
X0176373Y0189895D01*
X0176790Y0190068D01*
X0177166Y0190319D01*
X0177485Y0190638D01*
X0177736Y0191014D01*
X0177909Y0191431D01*
X0177997Y0191874D01*
X0177997Y0193392D01*
X0177997Y0192247D02*
X0181293Y0192247D01*
X0181764Y0190648D02*
X0177492Y0190648D01*
X0172444Y0190648D02*
X0172076Y0190648D01*
X0172076Y0192247D02*
X0172444Y0192247D01*
X0172444Y0193845D02*
X0172076Y0193845D01*
X0172076Y0195444D02*
X0172444Y0195444D01*
X0172444Y0197042D02*
X0172076Y0197042D01*
X0167353Y0206633D02*
X0132886Y0206633D01*
X0134485Y0208232D02*
X0166923Y0208232D01*
X0166923Y0209830D02*
X0136083Y0209830D01*
X0133906Y0213027D02*
X0104314Y0213027D01*
X0105039Y0213829D02*
X0113496Y0213829D01*
X0114605Y0214938D01*
X0114605Y0219458D01*
X0113496Y0220566D01*
X0105039Y0220566D01*
X0103931Y0219458D01*
X0103931Y0214938D01*
X0105039Y0213829D01*
X0104243Y0214626D02*
X0102716Y0214626D01*
X0103931Y0216224D02*
X0099728Y0216224D01*
X0099380Y0217823D02*
X0103931Y0217823D01*
X0103931Y0219421D02*
X0100235Y0219421D01*
X0100235Y0221020D02*
X0182761Y0221020D01*
X0181293Y0222619D02*
X0177404Y0222619D01*
X0177597Y0219421D02*
X0181293Y0219421D01*
X0181293Y0217823D02*
X0178259Y0217823D01*
X0179857Y0216224D02*
X0181293Y0216224D01*
X0181293Y0227414D02*
X0177515Y0227414D01*
X0177522Y0230611D02*
X0181293Y0230611D01*
X0181297Y0235407D02*
X0177396Y0235407D01*
X0177597Y0238604D02*
X0181293Y0238604D01*
X0181293Y0240202D02*
X0178266Y0240202D01*
X0179864Y0241801D02*
X0181293Y0241801D01*
X0182761Y0237005D02*
X0092073Y0237005D01*
X0092073Y0238604D02*
X0103931Y0238604D01*
X0103931Y0238560D02*
X0105039Y0237451D01*
X0113496Y0237451D01*
X0114605Y0238560D01*
X0114605Y0243080D01*
X0113496Y0244188D01*
X0105039Y0244188D01*
X0103931Y0243080D01*
X0103931Y0238560D01*
X0103931Y0240202D02*
X0092073Y0240202D01*
X0092073Y0241801D02*
X0103931Y0241801D01*
X0104250Y0243399D02*
X0092073Y0243399D01*
X0092073Y0244998D02*
X0177688Y0244998D01*
X0177597Y0246596D02*
X0179286Y0246596D01*
X0181564Y0251392D02*
X0181819Y0251392D01*
X0181564Y0252990D02*
X0183417Y0252990D01*
X0185016Y0254589D02*
X0181564Y0254589D01*
X0181564Y0256187D02*
X0186614Y0256187D01*
X0188213Y0257786D02*
X0181564Y0257786D01*
X0181564Y0259384D02*
X0189811Y0259384D01*
X0189382Y0258955D02*
X0189382Y0258955D01*
X0194519Y0265122D02*
X0194200Y0265442D01*
X0193949Y0265817D01*
X0193776Y0266234D01*
X0193688Y0266677D01*
X0193688Y0268195D01*
X0198847Y0268195D01*
X0198847Y0268563D01*
X0193688Y0268563D01*
X0193688Y0270081D01*
X0193776Y0270524D01*
X0193949Y0270941D01*
X0194200Y0271317D01*
X0194519Y0271636D01*
X0194895Y0271887D01*
X0195312Y0272059D01*
X0195755Y0272148D01*
X0198847Y0272148D01*
X0198847Y0268563D01*
X0199216Y0268563D01*
X0204375Y0268563D01*
X0204375Y0270081D01*
X0204287Y0270524D01*
X0204114Y0270941D01*
X0203863Y0271317D01*
X0203544Y0271636D01*
X0203168Y0271887D01*
X0202751Y0272059D01*
X0202308Y0272148D01*
X0199216Y0272148D01*
X0199216Y0268563D01*
X0199216Y0268195D01*
X0204375Y0268195D01*
X0204375Y0266677D01*
X0204287Y0266234D01*
X0204114Y0265817D01*
X0203863Y0265442D01*
X0203544Y0265122D01*
X0203168Y0264871D01*
X0202751Y0264699D01*
X0202308Y0264611D01*
X0199216Y0264611D01*
X0199216Y0268195D01*
X0198847Y0268195D01*
X0198847Y0264611D01*
X0195755Y0264611D01*
X0195312Y0264699D01*
X0194895Y0264871D01*
X0194519Y0265122D01*
X0193975Y0265778D02*
X0181564Y0265778D01*
X0181564Y0264180D02*
X0245122Y0264180D01*
X0244402Y0265778D02*
X0225348Y0265778D01*
X0225374Y0265817D02*
X0225547Y0266234D01*
X0225635Y0266677D01*
X0225635Y0268195D01*
X0220476Y0268195D01*
X0220476Y0268563D01*
X0225635Y0268563D01*
X0225635Y0270081D01*
X0225547Y0270524D01*
X0225374Y0270941D01*
X0225123Y0271317D01*
X0224804Y0271636D01*
X0224428Y0271887D01*
X0224011Y0272059D01*
X0223568Y0272148D01*
X0220476Y0272148D01*
X0220476Y0268563D01*
X0220107Y0268563D01*
X0220107Y0268195D01*
X0214948Y0268195D01*
X0214948Y0266677D01*
X0215036Y0266234D01*
X0215209Y0265817D01*
X0215460Y0265442D01*
X0215779Y0265122D01*
X0216154Y0264871D01*
X0216572Y0264699D01*
X0217014Y0264611D01*
X0220107Y0264611D01*
X0220107Y0268195D01*
X0220476Y0268195D01*
X0220476Y0264611D01*
X0223568Y0264611D01*
X0224011Y0264699D01*
X0224428Y0264871D01*
X0224804Y0265122D01*
X0225123Y0265442D01*
X0225374Y0265817D01*
X0225635Y0267377D02*
X0243936Y0267377D01*
X0243676Y0268975D02*
X0225635Y0268975D01*
X0225526Y0270574D02*
X0256105Y0270574D01*
X0256106Y0268975D02*
X0257705Y0268975D01*
X0257705Y0267377D02*
X0256106Y0267377D01*
X0256106Y0265778D02*
X0257705Y0265778D01*
X0257705Y0264180D02*
X0256106Y0264180D01*
X0256106Y0262581D02*
X0257705Y0262581D01*
X0257705Y0260983D02*
X0256106Y0260983D01*
X0256106Y0259384D02*
X0257705Y0259384D01*
X0257705Y0257786D02*
X0256106Y0257786D01*
X0252499Y0257786D02*
X0229141Y0257786D01*
X0227972Y0258955D02*
X0227972Y0258955D01*
X0227543Y0259384D02*
X0249374Y0259384D01*
X0247461Y0260983D02*
X0181564Y0260983D01*
X0181564Y0262581D02*
X0246099Y0262581D01*
X0243721Y0272172D02*
X0181564Y0272172D01*
X0181564Y0270574D02*
X0193797Y0270574D01*
X0193688Y0268975D02*
X0181564Y0268975D01*
X0181564Y0267377D02*
X0193688Y0267377D01*
X0198847Y0267377D02*
X0199216Y0267377D01*
X0199216Y0268975D02*
X0198847Y0268975D01*
X0198847Y0270574D02*
X0199216Y0270574D01*
X0199216Y0265778D02*
X0198847Y0265778D01*
X0204088Y0265778D02*
X0215235Y0265778D01*
X0214948Y0267377D02*
X0204375Y0267377D01*
X0204375Y0268975D02*
X0214948Y0268975D01*
X0214948Y0268563D02*
X0220107Y0268563D01*
X0220107Y0272148D01*
X0217014Y0272148D01*
X0216572Y0272059D01*
X0216154Y0271887D01*
X0215779Y0271636D01*
X0215460Y0271317D01*
X0215209Y0270941D01*
X0215036Y0270524D01*
X0214948Y0270081D01*
X0214948Y0268563D01*
X0215057Y0270574D02*
X0204266Y0270574D01*
X0220107Y0270574D02*
X0220476Y0270574D01*
X0220476Y0268975D02*
X0220107Y0268975D01*
X0220107Y0267377D02*
X0220476Y0267377D01*
X0220476Y0265778D02*
X0220107Y0265778D01*
X0230740Y0256187D02*
X0268885Y0256187D01*
X0268885Y0254589D02*
X0232338Y0254589D01*
X0233937Y0252990D02*
X0268885Y0252990D01*
X0268885Y0251392D02*
X0235535Y0251392D01*
X0237134Y0249793D02*
X0268885Y0249793D01*
X0268885Y0248195D02*
X0238733Y0248195D01*
X0240331Y0246596D02*
X0268885Y0246596D01*
X0268885Y0244998D02*
X0241930Y0244998D01*
X0243528Y0243399D02*
X0268885Y0243399D01*
X0268885Y0241801D02*
X0260295Y0241801D01*
X0259681Y0242415D02*
X0261060Y0241037D01*
X0261805Y0239236D01*
X0261805Y0237286D01*
X0261060Y0235485D01*
X0259681Y0234107D01*
X0257880Y0233361D01*
X0255931Y0233361D01*
X0254130Y0234107D01*
X0252751Y0235485D01*
X0252006Y0237286D01*
X0252006Y0239236D01*
X0252751Y0241037D01*
X0254130Y0242415D01*
X0255931Y0243161D01*
X0257880Y0243161D01*
X0259681Y0242415D01*
X0261405Y0240202D02*
X0268885Y0240202D01*
X0268885Y0238604D02*
X0261805Y0238604D01*
X0261689Y0237005D02*
X0268885Y0237005D01*
X0268885Y0235407D02*
X0260981Y0235407D01*
X0258960Y0233808D02*
X0268885Y0233808D01*
X0268885Y0232210D02*
X0259887Y0232210D01*
X0261236Y0230611D02*
X0268885Y0230611D01*
X0268885Y0229013D02*
X0261805Y0229013D01*
X0261805Y0227414D02*
X0268885Y0227414D01*
X0268885Y0225816D02*
X0261196Y0225816D01*
X0259791Y0224217D02*
X0268885Y0224217D01*
X0268885Y0222619D02*
X0259190Y0222619D01*
X0261066Y0221020D02*
X0268885Y0221020D01*
X0268885Y0219421D02*
X0261729Y0219421D01*
X0261805Y0217823D02*
X0268885Y0217823D01*
X0268885Y0216224D02*
X0261366Y0216224D01*
X0260200Y0214626D02*
X0268885Y0214626D01*
X0268885Y0213027D02*
X0258202Y0213027D01*
X0260667Y0211429D02*
X0268885Y0211429D01*
X0268885Y0209830D02*
X0261559Y0209830D01*
X0261805Y0208232D02*
X0268885Y0208232D01*
X0268885Y0206633D02*
X0261535Y0206633D01*
X0260609Y0205035D02*
X0268885Y0205035D01*
X0254020Y0224217D02*
X0253636Y0224217D01*
X0252615Y0225816D02*
X0252038Y0225816D01*
X0252006Y0227414D02*
X0250439Y0227414D01*
X0248963Y0229013D02*
X0252006Y0229013D01*
X0250942Y0230611D02*
X0248963Y0230611D01*
X0248963Y0232210D02*
X0249344Y0232210D01*
X0251521Y0235407D02*
X0252830Y0235407D01*
X0253119Y0233808D02*
X0254851Y0233808D01*
X0252122Y0237005D02*
X0249922Y0237005D01*
X0248324Y0238604D02*
X0252006Y0238604D01*
X0252406Y0240202D02*
X0246725Y0240202D01*
X0245127Y0241801D02*
X0253516Y0241801D01*
X0261312Y0257786D02*
X0268885Y0257786D01*
X0268885Y0259384D02*
X0264437Y0259384D01*
X0266350Y0260983D02*
X0268885Y0260983D01*
X0268885Y0262581D02*
X0267712Y0262581D01*
X0268689Y0264180D02*
X0268885Y0264180D01*
X0250051Y0281763D02*
X0181564Y0281763D01*
X0181564Y0280165D02*
X0247914Y0280165D01*
X0246445Y0278566D02*
X0181564Y0278566D01*
X0181564Y0276968D02*
X0245363Y0276968D01*
X0244590Y0275369D02*
X0181564Y0275369D01*
X0181564Y0273771D02*
X0244046Y0273771D01*
X0226300Y0252990D02*
X0225235Y0252990D01*
X0225235Y0251392D02*
X0227899Y0251392D01*
X0229497Y0249793D02*
X0224657Y0249793D01*
X0231096Y0248195D02*
X0192164Y0248195D01*
X0193763Y0249793D02*
X0194666Y0249793D01*
X0190566Y0246596D02*
X0232694Y0246596D01*
X0234293Y0244998D02*
X0189908Y0244998D01*
X0203397Y0249793D02*
X0215926Y0249793D01*
X0197919Y0211429D02*
X0194723Y0211429D01*
X0194723Y0209830D02*
X0197919Y0209830D01*
X0197919Y0208232D02*
X0194723Y0208232D01*
X0194489Y0206633D02*
X0197919Y0206633D01*
X0197919Y0205035D02*
X0193254Y0205035D01*
X0194723Y0203436D02*
X0197919Y0203436D01*
X0197919Y0201838D02*
X0194723Y0201838D01*
X0194723Y0200239D02*
X0197919Y0200239D01*
X0197919Y0198641D02*
X0194371Y0198641D01*
X0194273Y0197042D02*
X0197919Y0197042D01*
X0197919Y0195444D02*
X0195123Y0195444D01*
X0195123Y0193845D02*
X0197919Y0193845D01*
X0197919Y0192247D02*
X0195123Y0192247D01*
X0195123Y0191677D02*
X0195123Y0193392D01*
X0191539Y0193392D01*
X0191539Y0189611D01*
X0193056Y0189611D01*
X0193499Y0189699D01*
X0193916Y0189871D01*
X0194292Y0190122D01*
X0194611Y0190442D01*
X0194862Y0190817D01*
X0195035Y0191234D01*
X0195123Y0191677D01*
X0194749Y0190648D02*
X0197919Y0190648D01*
X0191539Y0190648D02*
X0191170Y0190648D01*
X0191170Y0192247D02*
X0191539Y0192247D01*
X0191539Y0193845D02*
X0191170Y0193845D01*
X0191170Y0195444D02*
X0191539Y0195444D01*
X0191539Y0197042D02*
X0191170Y0197042D01*
X0188436Y0197042D02*
X0187020Y0197042D01*
X0187678Y0198641D02*
X0188338Y0198641D01*
X0187959Y0190648D02*
X0187559Y0190648D01*
X0198231Y0179459D02*
X0199730Y0179459D01*
X0199730Y0177860D02*
X0196633Y0177860D01*
X0195034Y0176262D02*
X0199730Y0176262D01*
X0199730Y0174663D02*
X0193436Y0174663D01*
X0191837Y0173065D02*
X0199730Y0173065D01*
X0199730Y0171466D02*
X0190239Y0171466D01*
X0188640Y0169868D02*
X0199730Y0169868D01*
X0199730Y0168269D02*
X0187042Y0168269D01*
X0186463Y0173065D02*
X0092938Y0173065D01*
X0094537Y0171466D02*
X0166991Y0171466D01*
X0165392Y0169868D02*
X0096135Y0169868D01*
X0097734Y0168269D02*
X0163794Y0168269D01*
X0162195Y0166671D02*
X0099332Y0166671D01*
X0100931Y0165072D02*
X0160597Y0165072D01*
X0158998Y0163474D02*
X0118610Y0163474D01*
X0115674Y0163474D02*
X0102529Y0163474D01*
X0104128Y0161875D02*
X0112511Y0161875D01*
X0110934Y0160277D02*
X0108612Y0160277D01*
X0121773Y0161875D02*
X0157400Y0161875D01*
X0152915Y0160277D02*
X0129559Y0160277D01*
X0129633Y0160239D02*
X0128966Y0160579D01*
X0128255Y0160810D01*
X0127516Y0160927D01*
X0127326Y0160927D01*
X0127326Y0156359D01*
X0131894Y0156359D01*
X0131894Y0156548D01*
X0131777Y0157287D01*
X0131546Y0157999D01*
X0131207Y0158665D01*
X0130767Y0159271D01*
X0130238Y0159800D01*
X0129633Y0160239D01*
X0131197Y0158678D02*
X0150734Y0158678D01*
X0150049Y0157080D02*
X0131810Y0157080D01*
X0131844Y0155481D02*
X0150033Y0155481D01*
X0150624Y0153883D02*
X0131308Y0153883D01*
X0129873Y0152284D02*
X0152404Y0152284D01*
X0156368Y0152284D02*
X0157080Y0152284D01*
X0157080Y0150685D02*
X0124447Y0150685D01*
X0124447Y0149087D02*
X0157080Y0149087D01*
X0157080Y0147488D02*
X0124447Y0147488D01*
X0124447Y0145890D02*
X0157080Y0145890D01*
X0157080Y0144291D02*
X0124447Y0144291D01*
X0124447Y0142693D02*
X0157080Y0142693D01*
X0157718Y0141094D02*
X0123809Y0141094D01*
X0122881Y0139496D02*
X0158646Y0139496D01*
X0160245Y0137897D02*
X0121283Y0137897D01*
X0126957Y0152284D02*
X0127326Y0152284D01*
X0127326Y0153883D02*
X0126957Y0153883D01*
X0126957Y0155481D02*
X0127326Y0155481D01*
X0127326Y0157080D02*
X0126957Y0157080D01*
X0126957Y0158678D02*
X0127326Y0158678D01*
X0127326Y0160277D02*
X0126957Y0160277D01*
X0124724Y0160277D02*
X0123350Y0160277D01*
X0126693Y0182333D02*
X0131213Y0182333D01*
X0132321Y0183442D01*
X0132321Y0191899D01*
X0131213Y0193007D01*
X0126693Y0193007D01*
X0125584Y0191899D01*
X0125584Y0183442D01*
X0126693Y0182333D01*
X0126370Y0182656D02*
X0123661Y0182656D01*
X0124447Y0184254D02*
X0125584Y0184254D01*
X0125584Y0185853D02*
X0124447Y0185853D01*
X0124447Y0187451D02*
X0125584Y0187451D01*
X0125584Y0189050D02*
X0124447Y0189050D01*
X0124447Y0190648D02*
X0125584Y0190648D01*
X0125932Y0192247D02*
X0124099Y0192247D01*
X0119520Y0198641D02*
X0114056Y0198641D01*
X0114605Y0200239D02*
X0121118Y0200239D01*
X0122717Y0201838D02*
X0114605Y0201838D01*
X0114605Y0203436D02*
X0124315Y0203436D01*
X0125914Y0205035D02*
X0104433Y0205035D01*
X0104361Y0206633D02*
X0102834Y0206633D01*
X0103736Y0208232D02*
X0099847Y0208232D01*
X0099261Y0209830D02*
X0102137Y0209830D01*
X0100657Y0203436D02*
X0100235Y0203436D01*
X0099143Y0201838D02*
X0102256Y0201838D01*
X0103854Y0200239D02*
X0099965Y0200239D01*
X0100235Y0198641D02*
X0104480Y0198641D01*
X0103931Y0195444D02*
X0100235Y0195444D01*
X0100235Y0197042D02*
X0117921Y0197042D01*
X0114174Y0206633D02*
X0127512Y0206633D01*
X0129111Y0208232D02*
X0114605Y0208232D01*
X0114605Y0209830D02*
X0130709Y0209830D01*
X0132308Y0211429D02*
X0114605Y0211429D01*
X0114293Y0214626D02*
X0135505Y0214626D01*
X0134567Y0193007D02*
X0133458Y0191899D01*
X0133458Y0183442D01*
X0134567Y0182333D01*
X0139087Y0182333D01*
X0140195Y0183442D01*
X0140195Y0191899D01*
X0139087Y0193007D01*
X0134567Y0193007D01*
X0133806Y0192247D02*
X0131973Y0192247D01*
X0132321Y0190648D02*
X0133458Y0190648D01*
X0133458Y0189050D02*
X0132321Y0189050D01*
X0132321Y0187451D02*
X0133458Y0187451D01*
X0133458Y0185853D02*
X0132321Y0185853D01*
X0132321Y0184254D02*
X0133458Y0184254D01*
X0134244Y0182656D02*
X0131535Y0182656D01*
X0139409Y0182656D02*
X0142118Y0182656D01*
X0142441Y0182333D02*
X0146961Y0182333D01*
X0148069Y0183442D01*
X0148069Y0191899D01*
X0146961Y0193007D01*
X0142441Y0193007D01*
X0141332Y0191899D01*
X0141332Y0183442D01*
X0142441Y0182333D01*
X0141332Y0184254D02*
X0140195Y0184254D01*
X0140195Y0185853D02*
X0141332Y0185853D01*
X0141332Y0187451D02*
X0140195Y0187451D01*
X0140195Y0189050D02*
X0141332Y0189050D01*
X0141332Y0190648D02*
X0140195Y0190648D01*
X0139847Y0192247D02*
X0141680Y0192247D01*
X0147721Y0192247D02*
X0149554Y0192247D01*
X0149206Y0191899D02*
X0150315Y0193007D01*
X0154835Y0193007D01*
X0155943Y0191899D01*
X0155943Y0183442D01*
X0154835Y0182333D01*
X0150315Y0182333D01*
X0149206Y0183442D01*
X0149206Y0191899D01*
X0149206Y0190648D02*
X0148069Y0190648D01*
X0148069Y0189050D02*
X0149206Y0189050D01*
X0149206Y0187451D02*
X0148069Y0187451D01*
X0148069Y0185853D02*
X0149206Y0185853D01*
X0149206Y0184254D02*
X0148069Y0184254D01*
X0147283Y0182656D02*
X0149992Y0182656D01*
X0155157Y0182656D02*
X0157866Y0182656D01*
X0157080Y0184254D02*
X0155943Y0184254D01*
X0155943Y0185853D02*
X0157080Y0185853D01*
X0157080Y0187451D02*
X0155943Y0187451D01*
X0155943Y0189050D02*
X0157080Y0189050D01*
X0157080Y0190648D02*
X0155943Y0190648D01*
X0155596Y0192247D02*
X0157428Y0192247D01*
X0166923Y0216224D02*
X0114605Y0216224D01*
X0114605Y0217823D02*
X0166923Y0217823D01*
X0166923Y0219421D02*
X0114605Y0219421D01*
X0114411Y0222619D02*
X0167116Y0222619D01*
X0166923Y0224217D02*
X0114605Y0224217D01*
X0114605Y0225816D02*
X0166923Y0225816D01*
X0167005Y0227414D02*
X0114523Y0227414D01*
X0114530Y0230611D02*
X0166998Y0230611D01*
X0166923Y0232210D02*
X0114605Y0232210D01*
X0114605Y0233808D02*
X0166923Y0233808D01*
X0167123Y0235407D02*
X0114404Y0235407D01*
X0114605Y0238604D02*
X0166923Y0238604D01*
X0166923Y0240202D02*
X0114605Y0240202D01*
X0114605Y0241801D02*
X0166923Y0241801D01*
X0167242Y0243399D02*
X0114286Y0243399D01*
X0114605Y0246596D02*
X0166923Y0246596D01*
X0166923Y0248195D02*
X0114605Y0248195D01*
X0103931Y0246596D02*
X0100235Y0246596D01*
X0099964Y0252990D02*
X0098766Y0252990D01*
X0098766Y0254589D02*
X0099964Y0254589D01*
X0099964Y0256187D02*
X0098766Y0256187D01*
X0098766Y0257786D02*
X0099964Y0257786D01*
X0099964Y0259384D02*
X0098766Y0259384D01*
X0097697Y0260983D02*
X0099964Y0260983D01*
X0099964Y0262581D02*
X0096099Y0262581D01*
X0094500Y0264180D02*
X0099964Y0264180D01*
X0099964Y0265778D02*
X0092902Y0265778D01*
X0091303Y0267377D02*
X0099964Y0267377D01*
X0099964Y0268975D02*
X0089705Y0268975D01*
X0087439Y0270574D02*
X0099964Y0270574D01*
X0099964Y0272172D02*
X0037807Y0272172D01*
X0037482Y0273771D02*
X0099964Y0273771D01*
X0099964Y0275369D02*
X0036938Y0275369D01*
X0036164Y0276968D02*
X0099964Y0276968D01*
X0099964Y0278566D02*
X0035082Y0278566D01*
X0033614Y0280165D02*
X0099964Y0280165D01*
X0099964Y0281763D02*
X0031476Y0281763D01*
X0025422Y0270574D02*
X0056293Y0270574D01*
X0056293Y0268975D02*
X0037851Y0268975D01*
X0037592Y0267377D02*
X0056293Y0267377D01*
X0056634Y0265778D02*
X0037125Y0265778D01*
X0036406Y0264180D02*
X0089126Y0264180D01*
X0087528Y0265778D02*
X0087099Y0265778D01*
X0090725Y0262581D02*
X0035429Y0262581D01*
X0034066Y0260983D02*
X0092323Y0260983D01*
X0093922Y0259384D02*
X0032154Y0259384D01*
X0029028Y0257786D02*
X0094966Y0257786D01*
X0094966Y0256187D02*
X0086516Y0256187D01*
X0086633Y0256139D02*
X0086216Y0256311D01*
X0085773Y0256400D01*
X0082680Y0256400D01*
X0082680Y0252815D01*
X0082312Y0252815D01*
X0082312Y0252447D01*
X0077153Y0252447D01*
X0077153Y0250929D01*
X0077241Y0250486D01*
X0077414Y0250069D01*
X0077664Y0249693D01*
X0077984Y0249374D01*
X0078359Y0249123D01*
X0078776Y0248951D01*
X0079219Y0248863D01*
X0082312Y0248862D01*
X0082312Y0252447D01*
X0082680Y0252447D01*
X0082680Y0252815D01*
X0087839Y0252815D01*
X0087839Y0254333D01*
X0087751Y0254776D01*
X0087578Y0255193D01*
X0087328Y0255569D01*
X0087008Y0255888D01*
X0086633Y0256139D01*
X0087789Y0254589D02*
X0094966Y0254589D01*
X0094966Y0252990D02*
X0087839Y0252990D01*
X0086805Y0248195D02*
X0012643Y0248195D01*
X0012643Y0249793D02*
X0056338Y0249793D01*
X0056405Y0249693D02*
X0056724Y0249374D01*
X0057099Y0249123D01*
X0057516Y0248951D01*
X0057959Y0248863D01*
X0061052Y0248862D01*
X0061052Y0252447D01*
X0055893Y0252447D01*
X0055893Y0250929D01*
X0055981Y0250486D01*
X0056154Y0250069D01*
X0056405Y0249693D01*
X0055893Y0251392D02*
X0012643Y0251392D01*
X0012643Y0252990D02*
X0055893Y0252990D01*
X0055893Y0252815D02*
X0061052Y0252815D01*
X0061052Y0252447D01*
X0061420Y0252447D01*
X0061420Y0248863D01*
X0064513Y0248863D01*
X0064956Y0248951D01*
X0065373Y0249123D01*
X0065749Y0249374D01*
X0066068Y0249693D01*
X0066319Y0250069D01*
X0066491Y0250486D01*
X0066580Y0250929D01*
X0066580Y0252447D01*
X0061421Y0252447D01*
X0061421Y0252815D01*
X0066580Y0252815D01*
X0066580Y0254333D01*
X0066491Y0254776D01*
X0066319Y0255193D01*
X0066068Y0255569D01*
X0065749Y0255888D01*
X0065373Y0256139D01*
X0064956Y0256311D01*
X0064513Y0256400D01*
X0061420Y0256400D01*
X0061420Y0252815D01*
X0061052Y0252815D01*
X0061052Y0256400D01*
X0057959Y0256400D01*
X0057516Y0256311D01*
X0057099Y0256139D01*
X0056724Y0255888D01*
X0056405Y0255569D01*
X0056154Y0255193D01*
X0055981Y0254776D01*
X0055893Y0254333D01*
X0055893Y0252815D01*
X0055944Y0254589D02*
X0012643Y0254589D01*
X0012643Y0256187D02*
X0057217Y0256187D01*
X0061052Y0256187D02*
X0061420Y0256187D01*
X0061420Y0254589D02*
X0061052Y0254589D01*
X0061052Y0252990D02*
X0061420Y0252990D01*
X0061420Y0251392D02*
X0061052Y0251392D01*
X0061052Y0249793D02*
X0061420Y0249793D01*
X0066134Y0249793D02*
X0077598Y0249793D01*
X0077153Y0251392D02*
X0066580Y0251392D01*
X0066580Y0252990D02*
X0077153Y0252990D01*
X0077153Y0252815D02*
X0082312Y0252815D01*
X0082312Y0256400D01*
X0079219Y0256400D01*
X0078776Y0256311D01*
X0078359Y0256139D01*
X0077984Y0255888D01*
X0077664Y0255569D01*
X0077414Y0255193D01*
X0077241Y0254776D01*
X0077153Y0254333D01*
X0077153Y0252815D01*
X0077204Y0254589D02*
X0066529Y0254589D01*
X0065256Y0256187D02*
X0078476Y0256187D01*
X0082312Y0256187D02*
X0082680Y0256187D01*
X0082680Y0254589D02*
X0082312Y0254589D01*
X0082312Y0252990D02*
X0082680Y0252990D01*
X0082680Y0251392D02*
X0082312Y0251392D01*
X0082312Y0249793D02*
X0082680Y0249793D01*
X0086805Y0246596D02*
X0012643Y0246596D01*
X0012643Y0244998D02*
X0088273Y0244998D01*
X0088273Y0243399D02*
X0012643Y0243399D01*
X0012643Y0241801D02*
X0088273Y0241801D01*
X0088273Y0240202D02*
X0012643Y0240202D01*
X0012643Y0238604D02*
X0088273Y0238604D01*
X0088273Y0237005D02*
X0012643Y0237005D01*
X0012643Y0235407D02*
X0086808Y0235407D01*
X0086805Y0233808D02*
X0012643Y0233808D01*
X0012643Y0232210D02*
X0086750Y0232210D01*
X0085151Y0230611D02*
X0012643Y0230611D01*
X0012643Y0229013D02*
X0083553Y0229013D01*
X0081954Y0227414D02*
X0012643Y0227414D01*
X0012643Y0225816D02*
X0080356Y0225816D01*
X0080934Y0221020D02*
X0089989Y0221020D01*
X0089989Y0222619D02*
X0090357Y0222619D01*
X0090357Y0224217D02*
X0089989Y0224217D01*
X0093465Y0224217D02*
X0094123Y0224217D01*
X0099610Y0224217D02*
X0103931Y0224217D01*
X0104124Y0222619D02*
X0100235Y0222619D01*
X0094353Y0217823D02*
X0093252Y0217823D01*
X0093035Y0216224D02*
X0094004Y0216224D01*
X0090357Y0217823D02*
X0089989Y0217823D01*
X0089989Y0219421D02*
X0090357Y0219421D01*
X0092568Y0209830D02*
X0094471Y0209830D01*
X0093886Y0208232D02*
X0093154Y0208232D01*
X0087778Y0209830D02*
X0086871Y0209830D01*
X0087193Y0208232D02*
X0085272Y0208232D01*
X0086174Y0206633D02*
X0083674Y0206633D01*
X0084575Y0205035D02*
X0082075Y0205035D01*
X0082977Y0203436D02*
X0080477Y0203436D01*
X0079672Y0201838D02*
X0081378Y0201838D01*
X0079809Y0200239D02*
X0079672Y0200239D01*
X0079645Y0195444D02*
X0079836Y0195444D01*
X0083582Y0195444D02*
X0086439Y0195444D01*
X0086405Y0197042D02*
X0084496Y0197042D01*
X0084259Y0198641D02*
X0086405Y0198641D01*
X0086405Y0199412D02*
X0086405Y0197697D01*
X0089989Y0197697D01*
X0089989Y0201478D01*
X0088471Y0201478D01*
X0088028Y0201390D01*
X0087611Y0201217D01*
X0087236Y0200967D01*
X0086916Y0200647D01*
X0086666Y0200272D01*
X0086493Y0199855D01*
X0086405Y0199412D01*
X0086652Y0200239D02*
X0085154Y0200239D01*
X0086752Y0201838D02*
X0087897Y0201838D01*
X0089989Y0200239D02*
X0090357Y0200239D01*
X0090357Y0198641D02*
X0089989Y0198641D01*
X0092450Y0201838D02*
X0094590Y0201838D01*
X0093767Y0200239D02*
X0093694Y0200239D01*
X0098485Y0193845D02*
X0103931Y0193845D01*
X0099454Y0182656D02*
X0118496Y0182656D01*
X0084617Y0193845D02*
X0068802Y0193845D01*
X0067204Y0195444D02*
X0075899Y0195444D01*
X0074984Y0197042D02*
X0065605Y0197042D01*
X0064224Y0198641D02*
X0075222Y0198641D01*
X0075872Y0200239D02*
X0064224Y0200239D01*
X0064224Y0201838D02*
X0075872Y0201838D01*
X0075872Y0203436D02*
X0064224Y0203436D01*
X0064224Y0205035D02*
X0076701Y0205035D01*
X0078300Y0206633D02*
X0064224Y0206633D01*
X0064224Y0208232D02*
X0079898Y0208232D01*
X0081497Y0209830D02*
X0062660Y0209830D01*
X0061061Y0211429D02*
X0083095Y0211429D01*
X0100235Y0230611D02*
X0104005Y0230611D01*
X0104131Y0235407D02*
X0100231Y0235407D01*
X0093738Y0251392D02*
X0093301Y0251392D01*
X0077893Y0265778D02*
X0065839Y0265778D01*
X0066180Y0270574D02*
X0077553Y0270574D01*
X0025422Y0268975D02*
X0023822Y0268975D01*
X0023822Y0267377D02*
X0025422Y0267377D01*
X0025422Y0265778D02*
X0023822Y0265778D01*
X0023822Y0264180D02*
X0025422Y0264180D01*
X0025422Y0262581D02*
X0023822Y0262581D01*
X0023822Y0260983D02*
X0025422Y0260983D01*
X0025422Y0259384D02*
X0023822Y0259384D01*
X0023822Y0257786D02*
X0025422Y0257786D01*
X0020216Y0257786D02*
X0012643Y0257786D01*
X0012643Y0259384D02*
X0017090Y0259384D01*
X0015178Y0260983D02*
X0012643Y0260983D01*
X0012643Y0262581D02*
X0013816Y0262581D01*
X0012838Y0264180D02*
X0012643Y0264180D01*
X0051787Y0215033D02*
X0052181Y0214639D01*
X0054150Y0214639D01*
X0054740Y0214639D01*
X0056110Y0209830D02*
X0056437Y0209830D01*
X0056146Y0208232D02*
X0058036Y0208232D01*
X0059634Y0206633D02*
X0056146Y0206633D01*
X0055652Y0205035D02*
X0059824Y0205035D01*
X0052365Y0205035D02*
X0051997Y0205035D01*
X0051997Y0206633D02*
X0052365Y0206633D01*
X0048710Y0205035D02*
X0047702Y0205035D01*
X0041932Y0201838D02*
X0041564Y0201838D01*
X0041564Y0200239D02*
X0041932Y0200239D01*
X0041932Y0198641D02*
X0041564Y0198641D01*
X0041564Y0197042D02*
X0041932Y0197042D01*
X0034696Y0134700D02*
X0268885Y0134700D01*
X0268885Y0133102D02*
X0034696Y0133102D01*
X0034696Y0131503D02*
X0268885Y0131503D01*
X0268885Y0129905D02*
X0034696Y0129905D01*
X0034696Y0128306D02*
X0268885Y0128306D01*
X0268885Y0126708D02*
X0034696Y0126708D01*
X0034696Y0125109D02*
X0268885Y0125109D01*
X0268885Y0123511D02*
X0034696Y0123511D01*
X0165854Y0163474D02*
X0199730Y0163474D01*
X0199730Y0165072D02*
X0165971Y0165072D01*
X0167569Y0166671D02*
X0199730Y0166671D01*
X0199730Y0161875D02*
X0169017Y0161875D01*
X0170594Y0160277D02*
X0171968Y0160277D01*
X0174202Y0160277D02*
X0174570Y0160277D01*
X0174570Y0160927D02*
X0174570Y0156359D01*
X0179139Y0156359D01*
X0179139Y0156548D01*
X0179022Y0157287D01*
X0178790Y0157999D01*
X0178451Y0158665D01*
X0178011Y0159271D01*
X0177482Y0159800D01*
X0176877Y0160239D01*
X0176210Y0160579D01*
X0175499Y0160810D01*
X0174760Y0160927D01*
X0174570Y0160927D01*
X0174570Y0158678D02*
X0174202Y0158678D01*
X0174202Y0157080D02*
X0174570Y0157080D01*
X0174570Y0155481D02*
X0174202Y0155481D01*
X0174202Y0153883D02*
X0174570Y0153883D01*
X0174570Y0152284D02*
X0174202Y0152284D01*
X0177117Y0152284D02*
X0199648Y0152284D01*
X0197868Y0153883D02*
X0178552Y0153883D01*
X0179088Y0155481D02*
X0197277Y0155481D01*
X0197293Y0157080D02*
X0179054Y0157080D01*
X0178441Y0158678D02*
X0197978Y0158678D01*
X0199730Y0160277D02*
X0176804Y0160277D01*
X0171691Y0150685D02*
X0204324Y0150685D01*
X0204324Y0149087D02*
X0171691Y0149087D01*
X0171691Y0147488D02*
X0204324Y0147488D01*
X0204324Y0145890D02*
X0171691Y0145890D01*
X0171691Y0144291D02*
X0204324Y0144291D01*
X0204324Y0142693D02*
X0171691Y0142693D01*
X0171053Y0141094D02*
X0204962Y0141094D01*
X0205890Y0139496D02*
X0170126Y0139496D01*
X0168527Y0137897D02*
X0207489Y0137897D01*
X0204324Y0152284D02*
X0203612Y0152284D01*
X0203530Y0160277D02*
X0205422Y0160277D01*
X0206999Y0161875D02*
X0203530Y0161875D01*
X0213625Y0061169D02*
X0268885Y0061169D01*
X0268885Y0059570D02*
X0216479Y0059570D01*
X0217928Y0057972D02*
X0268885Y0057972D01*
X0268885Y0056373D02*
X0218591Y0056373D01*
X0218935Y0054775D02*
X0268885Y0054775D01*
X0268885Y0053176D02*
X0218935Y0053176D01*
X0218498Y0051578D02*
X0268885Y0051578D01*
X0268885Y0049979D02*
X0240228Y0049979D01*
X0241389Y0048381D02*
X0268885Y0048381D01*
X0268885Y0046782D02*
X0241389Y0046782D01*
X0241389Y0045184D02*
X0268885Y0045184D01*
X0268885Y0043585D02*
X0241389Y0043585D01*
X0241389Y0041987D02*
X0250761Y0041987D01*
X0248367Y0040388D02*
X0241389Y0040388D01*
X0241389Y0038790D02*
X0246758Y0038790D01*
X0245588Y0037191D02*
X0241389Y0037191D01*
X0241389Y0035593D02*
X0244748Y0035593D01*
X0244161Y0033994D02*
X0241389Y0033994D01*
X0241389Y0032396D02*
X0243784Y0032396D01*
X0241389Y0030797D02*
X0256105Y0030797D01*
X0256106Y0032396D02*
X0257705Y0032396D01*
X0257705Y0033994D02*
X0256106Y0033994D01*
X0256106Y0035593D02*
X0257705Y0035593D01*
X0257705Y0037191D02*
X0256106Y0037191D01*
X0256106Y0038790D02*
X0257705Y0038790D01*
X0257705Y0040388D02*
X0256106Y0040388D01*
X0256106Y0041987D02*
X0257705Y0041987D01*
X0263050Y0041987D02*
X0268885Y0041987D01*
X0268885Y0040388D02*
X0265444Y0040388D01*
X0267053Y0038790D02*
X0268885Y0038790D01*
X0268885Y0037191D02*
X0268223Y0037191D01*
X0248835Y0019608D02*
X0241389Y0019608D01*
X0241389Y0021206D02*
X0247080Y0021206D01*
X0245845Y0022805D02*
X0241389Y0022805D01*
X0241389Y0024403D02*
X0244918Y0024403D01*
X0244278Y0026002D02*
X0241389Y0026002D01*
X0241389Y0027600D02*
X0243860Y0027600D01*
X0243639Y0029199D02*
X0241389Y0029199D01*
X0239189Y0029199D02*
X0222468Y0029199D01*
X0222511Y0029220D02*
X0223241Y0029751D01*
X0223880Y0030390D01*
X0224411Y0031120D01*
X0224821Y0031925D01*
X0225100Y0032784D01*
X0225236Y0033648D01*
X0219984Y0033648D01*
X0219984Y0034607D01*
X0225236Y0034607D01*
X0225100Y0035470D01*
X0224821Y0036329D01*
X0224411Y0037134D01*
X0223880Y0037864D01*
X0223241Y0038503D01*
X0222511Y0039034D01*
X0221706Y0039444D01*
X0220847Y0039723D01*
X0219983Y0039860D01*
X0219983Y0034607D01*
X0219024Y0034607D01*
X0219024Y0039860D01*
X0218161Y0039723D01*
X0217302Y0039444D01*
X0216497Y0039034D01*
X0215767Y0038503D01*
X0215128Y0037864D01*
X0214597Y0037134D01*
X0214187Y0036329D01*
X0213908Y0035470D01*
X0213771Y0034607D01*
X0219024Y0034607D01*
X0219024Y0033648D01*
X0213771Y0033648D01*
X0213908Y0032784D01*
X0214187Y0031925D01*
X0214597Y0031120D01*
X0215128Y0030390D01*
X0215767Y0029751D01*
X0216497Y0029220D01*
X0217302Y0028810D01*
X0218161Y0028531D01*
X0219024Y0028395D01*
X0219024Y0033647D01*
X0219983Y0033647D01*
X0219983Y0028395D01*
X0220847Y0028531D01*
X0221706Y0028810D01*
X0222511Y0029220D01*
X0224176Y0030797D02*
X0239189Y0030797D01*
X0239189Y0032396D02*
X0224974Y0032396D01*
X0219983Y0032396D02*
X0219024Y0032396D01*
X0219024Y0033994D02*
X0206809Y0033994D01*
X0206809Y0035593D02*
X0213948Y0035593D01*
X0214639Y0037191D02*
X0206809Y0037191D01*
X0206809Y0038790D02*
X0216161Y0038790D01*
X0219024Y0038790D02*
X0219983Y0038790D01*
X0219983Y0037191D02*
X0219024Y0037191D01*
X0219024Y0035593D02*
X0219983Y0035593D01*
X0219984Y0033994D02*
X0239189Y0033994D01*
X0239189Y0035593D02*
X0225060Y0035593D01*
X0224369Y0037191D02*
X0239189Y0037191D01*
X0239189Y0038790D02*
X0222847Y0038790D01*
X0219983Y0030797D02*
X0219024Y0030797D01*
X0219024Y0029199D02*
X0219983Y0029199D01*
X0216540Y0029199D02*
X0204907Y0029199D01*
X0206032Y0030797D02*
X0214832Y0030797D01*
X0214034Y0032396D02*
X0206694Y0032396D01*
X0208262Y0040388D02*
X0239189Y0040388D01*
X0239189Y0041987D02*
X0209860Y0041987D01*
X0211459Y0043585D02*
X0239189Y0043585D01*
X0239189Y0045184D02*
X0213058Y0045184D01*
X0214656Y0046782D02*
X0239189Y0046782D01*
D25*
X0172260Y0189639D03*
X0178165Y0193576D03*
X0166354Y0193576D03*
X0195882Y0193576D03*
X0195882Y0217198D03*
X0195882Y0232946D03*
X0209661Y0268379D03*
X0089583Y0179796D03*
X0081709Y0181765D03*
X0077772Y0181765D03*
X0077772Y0197513D03*
X0081709Y0197513D03*
X0085646Y0197513D03*
X0085646Y0221135D03*
X0071866Y0252631D03*
X0052181Y0203418D03*
X0046276Y0199481D03*
X0026591Y0124678D03*
X0034465Y0079403D03*
D26*
X0026591Y0111489D02*
X0019110Y0111489D01*
X0018717Y0111883D01*
X0018717Y0117788D02*
X0018717Y0217198D01*
X0022654Y0221135D01*
X0038992Y0221135D01*
X0045094Y0215033D01*
X0054150Y0214639D02*
X0071866Y0214639D01*
X0090173Y0232946D01*
X0090173Y0248694D01*
X0096866Y0248694D02*
X0109268Y0248694D01*
X0096866Y0248694D02*
X0096866Y0259127D01*
X0087614Y0268379D01*
X0082496Y0268379D01*
X0061236Y0268379D01*
X0096866Y0232946D02*
X0109268Y0232946D01*
X0096866Y0221135D02*
X0096866Y0213261D01*
X0101394Y0213261D01*
X0105331Y0209324D01*
X0109268Y0209324D01*
X0109268Y0201450D02*
X0105331Y0201450D01*
X0101394Y0205387D01*
X0096866Y0205387D01*
X0096866Y0197513D01*
X0090173Y0205387D02*
X0087614Y0205387D01*
X0081709Y0199481D01*
X0081709Y0197513D01*
X0077772Y0197513D02*
X0077772Y0203418D01*
X0087614Y0213261D01*
X0090173Y0213261D01*
X0109268Y0193576D02*
X0117142Y0193576D01*
X0136827Y0213261D01*
X0176197Y0213261D01*
X0181593Y0207865D01*
X0181593Y0206991D01*
X0183197Y0205387D01*
X0191354Y0205387D01*
X0191354Y0209324D01*
X0191354Y0205387D02*
X0191354Y0201450D01*
X0184661Y0201450D02*
X0176787Y0209324D01*
X0172260Y0209324D01*
X0172260Y0201450D02*
X0176787Y0201450D01*
X0184661Y0193576D01*
X0184661Y0209324D02*
X0188008Y0212670D01*
X0188008Y0246726D01*
X0193913Y0252631D01*
X0199031Y0252631D01*
X0220291Y0252631D01*
X0225409Y0256568D02*
X0247063Y0234914D01*
X0247063Y0228103D01*
X0256906Y0218261D01*
X0256906Y0228261D02*
X0255979Y0228261D01*
X0226072Y0258168D01*
X0191282Y0258168D01*
X0181808Y0248694D01*
X0172260Y0248694D01*
X0172260Y0240820D02*
X0176197Y0240820D01*
X0191945Y0256568D01*
X0225409Y0256568D01*
X0201630Y0235072D02*
X0201630Y0156174D01*
X0186039Y0169954D02*
X0168165Y0169954D01*
X0154386Y0156174D01*
X0186039Y0169954D02*
X0199819Y0183733D01*
X0199819Y0221135D01*
X0195882Y0225072D01*
X0191354Y0225072D01*
X0184661Y0225072D02*
X0184661Y0217198D01*
X0184661Y0225072D02*
X0172260Y0225072D01*
X0172260Y0232946D02*
X0184661Y0232946D01*
X0184661Y0240820D01*
X0191354Y0240820D02*
X0195882Y0240820D01*
X0201630Y0235072D01*
X0184661Y0209324D02*
X0184071Y0209324D01*
X0176197Y0217198D01*
X0172260Y0217198D01*
X0107142Y0156174D02*
X0081709Y0181607D01*
X0081709Y0181765D01*
X0077772Y0181765D02*
X0077772Y0174048D01*
X0059898Y0156174D01*
D27*
X0030528Y0103025D02*
X0022300Y0103025D01*
X0022300Y0099742D01*
X0017560Y0099742D01*
X0017560Y0099142D01*
X0022300Y0099142D01*
X0022300Y0095728D01*
X0022211Y0095397D01*
X0022040Y0095101D01*
X0021798Y0094858D01*
X0021502Y0094687D01*
X0021171Y0094599D01*
X0017560Y0094599D01*
X0017560Y0099142D01*
X0016960Y0099142D01*
X0016960Y0094599D01*
X0013349Y0094599D01*
X0013018Y0094687D01*
X0012721Y0094858D01*
X0012479Y0095101D01*
X0012308Y0095397D01*
X0012220Y0095728D01*
X0012220Y0099142D01*
X0016960Y0099142D01*
X0016960Y0099742D01*
X0012220Y0099742D01*
X0012220Y0103025D01*
X0012143Y0103025D01*
X0012143Y0065623D01*
X0012269Y0065623D01*
X0012220Y0065806D01*
X0012220Y0069221D01*
X0016960Y0069221D01*
X0016960Y0069821D01*
X0016960Y0074364D01*
X0013349Y0074364D01*
X0013018Y0074275D01*
X0012721Y0074104D01*
X0012479Y0073862D01*
X0012308Y0073566D01*
X0012220Y0073235D01*
X0012220Y0069821D01*
X0016960Y0069821D01*
X0017560Y0069821D01*
X0017560Y0074364D01*
X0021171Y0074364D01*
X0021502Y0074275D01*
X0021798Y0074104D01*
X0022040Y0073862D01*
X0022211Y0073566D01*
X0022300Y0073235D01*
X0022300Y0069821D01*
X0017560Y0069821D01*
X0017560Y0069221D01*
X0022300Y0069221D01*
X0022300Y0065806D01*
X0022251Y0065623D01*
X0030528Y0065623D01*
X0030528Y0066843D01*
X0027599Y0066843D01*
X0027599Y0071977D01*
X0026999Y0071977D01*
X0022850Y0071977D01*
X0022850Y0067972D01*
X0022938Y0067641D01*
X0023109Y0067345D01*
X0023351Y0067103D01*
X0023648Y0066931D01*
X0023978Y0066843D01*
X0026999Y0066843D01*
X0026999Y0071977D01*
X0026999Y0072577D01*
X0022850Y0072577D01*
X0022850Y0076582D01*
X0022938Y0076912D01*
X0023109Y0077209D01*
X0023351Y0077451D01*
X0023648Y0077622D01*
X0023978Y0077711D01*
X0024726Y0077711D01*
X0024234Y0078203D01*
X0024234Y0080523D01*
X0024353Y0080643D01*
X0024234Y0080762D01*
X0024234Y0083083D01*
X0024353Y0083202D01*
X0024234Y0083321D01*
X0024234Y0085642D01*
X0024353Y0085761D01*
X0024234Y0085880D01*
X0024234Y0088201D01*
X0024353Y0088320D01*
X0024234Y0088439D01*
X0024234Y0090760D01*
X0024726Y0091252D01*
X0023978Y0091252D01*
X0023648Y0091341D01*
X0023351Y0091512D01*
X0023109Y0091754D01*
X0022938Y0092050D01*
X0022850Y0092381D01*
X0022850Y0096386D01*
X0026999Y0096386D01*
X0026999Y0096986D01*
X0022850Y0096986D01*
X0022850Y0100991D01*
X0022938Y0101322D01*
X0023109Y0101618D01*
X0023351Y0101860D01*
X0023648Y0102031D01*
X0023978Y0102120D01*
X0026999Y0102120D01*
X0026999Y0096986D01*
X0027599Y0096986D01*
X0027599Y0102120D01*
X0030528Y0102120D01*
X0030528Y0103025D01*
X0030528Y0102596D02*
X0022300Y0102596D01*
X0022300Y0101998D02*
X0023589Y0101998D01*
X0022983Y0101399D02*
X0022300Y0101399D01*
X0022300Y0100801D02*
X0022850Y0100801D01*
X0022850Y0100202D02*
X0022300Y0100202D01*
X0022850Y0099604D02*
X0017560Y0099604D01*
X0017560Y0099005D02*
X0016960Y0099005D01*
X0016960Y0098407D02*
X0017560Y0098407D01*
X0017560Y0097808D02*
X0016960Y0097808D01*
X0016960Y0097210D02*
X0017560Y0097210D01*
X0017560Y0096611D02*
X0016960Y0096611D01*
X0016960Y0096013D02*
X0017560Y0096013D01*
X0017560Y0095414D02*
X0016960Y0095414D01*
X0016960Y0094816D02*
X0017560Y0094816D01*
X0017560Y0094246D02*
X0017560Y0089506D01*
X0016960Y0089506D01*
X0016960Y0094246D01*
X0013349Y0094246D01*
X0013018Y0094157D01*
X0012721Y0093986D01*
X0012479Y0093744D01*
X0012308Y0093448D01*
X0012220Y0093117D01*
X0012220Y0089506D01*
X0016960Y0089506D01*
X0016960Y0088906D01*
X0012220Y0088906D01*
X0012220Y0085295D01*
X0012308Y0084964D01*
X0012479Y0084667D01*
X0012665Y0084481D01*
X0012479Y0084295D01*
X0012308Y0083999D01*
X0012220Y0083668D01*
X0012220Y0080057D01*
X0016960Y0080057D01*
X0016960Y0084797D01*
X0016960Y0088906D01*
X0017560Y0088906D01*
X0017560Y0089506D01*
X0022300Y0089506D01*
X0022300Y0093117D01*
X0022211Y0093448D01*
X0022040Y0093744D01*
X0021798Y0093986D01*
X0021502Y0094157D01*
X0021171Y0094246D01*
X0017560Y0094246D01*
X0017560Y0094217D02*
X0016960Y0094217D01*
X0016960Y0093619D02*
X0017560Y0093619D01*
X0017560Y0093020D02*
X0016960Y0093020D01*
X0016960Y0092421D02*
X0017560Y0092421D01*
X0017560Y0091823D02*
X0016960Y0091823D01*
X0016960Y0091224D02*
X0017560Y0091224D01*
X0017560Y0090626D02*
X0016960Y0090626D01*
X0016960Y0090027D02*
X0017560Y0090027D01*
X0017560Y0089429D02*
X0024234Y0089429D01*
X0024234Y0090027D02*
X0022300Y0090027D01*
X0022300Y0090626D02*
X0024234Y0090626D01*
X0024699Y0091224D02*
X0022300Y0091224D01*
X0022300Y0091823D02*
X0023070Y0091823D01*
X0022850Y0092421D02*
X0022300Y0092421D01*
X0022300Y0093020D02*
X0022850Y0093020D01*
X0022850Y0093619D02*
X0022113Y0093619D01*
X0022850Y0094217D02*
X0021279Y0094217D01*
X0021724Y0094816D02*
X0022850Y0094816D01*
X0022850Y0095414D02*
X0022216Y0095414D01*
X0022300Y0096013D02*
X0022850Y0096013D01*
X0022300Y0096611D02*
X0026999Y0096611D01*
X0026999Y0097210D02*
X0027599Y0097210D01*
X0027599Y0097808D02*
X0026999Y0097808D01*
X0026999Y0098407D02*
X0027599Y0098407D01*
X0027599Y0099005D02*
X0026999Y0099005D01*
X0026999Y0099604D02*
X0027599Y0099604D01*
X0027599Y0100202D02*
X0026999Y0100202D01*
X0026999Y0100801D02*
X0027599Y0100801D01*
X0027599Y0101399D02*
X0026999Y0101399D01*
X0026999Y0101998D02*
X0027599Y0101998D01*
X0022850Y0099005D02*
X0022300Y0099005D01*
X0022300Y0098407D02*
X0022850Y0098407D01*
X0022850Y0097808D02*
X0022300Y0097808D01*
X0022300Y0097210D02*
X0022850Y0097210D01*
X0016960Y0099604D02*
X0012143Y0099604D01*
X0012143Y0100202D02*
X0012220Y0100202D01*
X0012220Y0100801D02*
X0012143Y0100801D01*
X0012143Y0101399D02*
X0012220Y0101399D01*
X0012220Y0101998D02*
X0012143Y0101998D01*
X0012143Y0102596D02*
X0012220Y0102596D01*
X0012143Y0099005D02*
X0012220Y0099005D01*
X0012220Y0098407D02*
X0012143Y0098407D01*
X0012143Y0097808D02*
X0012220Y0097808D01*
X0012220Y0097210D02*
X0012143Y0097210D01*
X0012143Y0096611D02*
X0012220Y0096611D01*
X0012220Y0096013D02*
X0012143Y0096013D01*
X0012143Y0095414D02*
X0012304Y0095414D01*
X0012143Y0094816D02*
X0012796Y0094816D01*
X0013240Y0094217D02*
X0012143Y0094217D01*
X0012143Y0093619D02*
X0012407Y0093619D01*
X0012220Y0093020D02*
X0012143Y0093020D01*
X0012143Y0092421D02*
X0012220Y0092421D01*
X0012220Y0091823D02*
X0012143Y0091823D01*
X0012143Y0091224D02*
X0012220Y0091224D01*
X0012220Y0090626D02*
X0012143Y0090626D01*
X0012143Y0090027D02*
X0012220Y0090027D01*
X0012143Y0089429D02*
X0016960Y0089429D01*
X0016960Y0088830D02*
X0017560Y0088830D01*
X0017560Y0088906D02*
X0017560Y0080057D01*
X0022300Y0080057D01*
X0022300Y0083668D01*
X0022211Y0083999D01*
X0022040Y0084295D01*
X0021854Y0084481D01*
X0022040Y0084667D01*
X0022211Y0084964D01*
X0022300Y0085295D01*
X0022300Y0088906D01*
X0017560Y0088906D01*
X0017560Y0088232D02*
X0016960Y0088232D01*
X0016960Y0087633D02*
X0017560Y0087633D01*
X0017560Y0087035D02*
X0016960Y0087035D01*
X0016960Y0086436D02*
X0017560Y0086436D01*
X0017560Y0085838D02*
X0016960Y0085838D01*
X0016960Y0085239D02*
X0017560Y0085239D01*
X0017560Y0084641D02*
X0016960Y0084641D01*
X0016960Y0084042D02*
X0017560Y0084042D01*
X0017560Y0083444D02*
X0016960Y0083444D01*
X0016960Y0082845D02*
X0017560Y0082845D01*
X0017560Y0082247D02*
X0016960Y0082247D01*
X0016960Y0081648D02*
X0017560Y0081648D01*
X0017560Y0081050D02*
X0016960Y0081050D01*
X0016960Y0080451D02*
X0017560Y0080451D01*
X0017560Y0080057D02*
X0016960Y0080057D01*
X0016960Y0079457D01*
X0017560Y0079457D01*
X0017560Y0080057D01*
X0017560Y0079853D02*
X0024234Y0079853D01*
X0024234Y0080451D02*
X0022300Y0080451D01*
X0022300Y0081050D02*
X0024234Y0081050D01*
X0024234Y0081648D02*
X0022300Y0081648D01*
X0022300Y0082247D02*
X0024234Y0082247D01*
X0024234Y0082845D02*
X0022300Y0082845D01*
X0022300Y0083444D02*
X0024234Y0083444D01*
X0024234Y0084042D02*
X0022186Y0084042D01*
X0022014Y0084641D02*
X0024234Y0084641D01*
X0024234Y0085239D02*
X0022285Y0085239D01*
X0022300Y0085838D02*
X0024276Y0085838D01*
X0024234Y0086436D02*
X0022300Y0086436D01*
X0022300Y0087035D02*
X0024234Y0087035D01*
X0024234Y0087633D02*
X0022300Y0087633D01*
X0022300Y0088232D02*
X0024265Y0088232D01*
X0024234Y0088830D02*
X0022300Y0088830D01*
X0012220Y0088830D02*
X0012143Y0088830D01*
X0012143Y0088232D02*
X0012220Y0088232D01*
X0012220Y0087633D02*
X0012143Y0087633D01*
X0012143Y0087035D02*
X0012220Y0087035D01*
X0012220Y0086436D02*
X0012143Y0086436D01*
X0012143Y0085838D02*
X0012220Y0085838D01*
X0012234Y0085239D02*
X0012143Y0085239D01*
X0012143Y0084641D02*
X0012506Y0084641D01*
X0012333Y0084042D02*
X0012143Y0084042D01*
X0012143Y0083444D02*
X0012220Y0083444D01*
X0012220Y0082845D02*
X0012143Y0082845D01*
X0012143Y0082247D02*
X0012220Y0082247D01*
X0012220Y0081648D02*
X0012143Y0081648D01*
X0012143Y0081050D02*
X0012220Y0081050D01*
X0012220Y0080451D02*
X0012143Y0080451D01*
X0012143Y0079853D02*
X0016960Y0079853D01*
X0016960Y0079457D02*
X0012220Y0079457D01*
X0012220Y0075846D01*
X0012308Y0075515D01*
X0012479Y0075219D01*
X0012721Y0074977D01*
X0013018Y0074805D01*
X0013349Y0074717D01*
X0016960Y0074717D01*
X0016960Y0079457D01*
X0016960Y0079254D02*
X0017560Y0079254D01*
X0017560Y0079457D02*
X0017560Y0074717D01*
X0021171Y0074717D01*
X0021502Y0074805D01*
X0021798Y0074977D01*
X0022040Y0075219D01*
X0022211Y0075515D01*
X0022300Y0075846D01*
X0022300Y0079457D01*
X0017560Y0079457D01*
X0017560Y0078656D02*
X0016960Y0078656D01*
X0016960Y0078057D02*
X0017560Y0078057D01*
X0017560Y0077459D02*
X0016960Y0077459D01*
X0016960Y0076860D02*
X0017560Y0076860D01*
X0017560Y0076262D02*
X0016960Y0076262D01*
X0016960Y0075663D02*
X0017560Y0075663D01*
X0017560Y0075065D02*
X0016960Y0075065D01*
X0016960Y0073868D02*
X0017560Y0073868D01*
X0017560Y0073269D02*
X0016960Y0073269D01*
X0016960Y0072671D02*
X0017560Y0072671D01*
X0017560Y0072072D02*
X0016960Y0072072D01*
X0016960Y0071474D02*
X0017560Y0071474D01*
X0017560Y0070875D02*
X0016960Y0070875D01*
X0016960Y0070277D02*
X0017560Y0070277D01*
X0017560Y0069678D02*
X0022850Y0069678D01*
X0022850Y0069080D02*
X0022300Y0069080D01*
X0022300Y0068481D02*
X0022850Y0068481D01*
X0022873Y0067883D02*
X0022300Y0067883D01*
X0022300Y0067284D02*
X0023170Y0067284D01*
X0022300Y0066685D02*
X0030528Y0066685D01*
X0030528Y0066087D02*
X0022300Y0066087D01*
X0022300Y0070277D02*
X0022850Y0070277D01*
X0022850Y0070875D02*
X0022300Y0070875D01*
X0022300Y0071474D02*
X0022850Y0071474D01*
X0022300Y0072072D02*
X0026999Y0072072D01*
X0026999Y0071474D02*
X0027599Y0071474D01*
X0027599Y0070875D02*
X0026999Y0070875D01*
X0026999Y0070277D02*
X0027599Y0070277D01*
X0027599Y0069678D02*
X0026999Y0069678D01*
X0026999Y0069080D02*
X0027599Y0069080D01*
X0027599Y0068481D02*
X0026999Y0068481D01*
X0026999Y0067883D02*
X0027599Y0067883D01*
X0027599Y0067284D02*
X0026999Y0067284D01*
X0022850Y0072671D02*
X0022300Y0072671D01*
X0022291Y0073269D02*
X0022850Y0073269D01*
X0022850Y0073868D02*
X0022035Y0073868D01*
X0022850Y0074466D02*
X0012143Y0074466D01*
X0012143Y0073868D02*
X0012485Y0073868D01*
X0012229Y0073269D02*
X0012143Y0073269D01*
X0012143Y0072671D02*
X0012220Y0072671D01*
X0012220Y0072072D02*
X0012143Y0072072D01*
X0012143Y0071474D02*
X0012220Y0071474D01*
X0012220Y0070875D02*
X0012143Y0070875D01*
X0012143Y0070277D02*
X0012220Y0070277D01*
X0012143Y0069678D02*
X0016960Y0069678D01*
X0012220Y0069080D02*
X0012143Y0069080D01*
X0012143Y0068481D02*
X0012220Y0068481D01*
X0012220Y0067883D02*
X0012143Y0067883D01*
X0012143Y0067284D02*
X0012220Y0067284D01*
X0012220Y0066685D02*
X0012143Y0066685D01*
X0012143Y0066087D02*
X0012220Y0066087D01*
X0012143Y0075065D02*
X0012633Y0075065D01*
X0012269Y0075663D02*
X0012143Y0075663D01*
X0012143Y0076262D02*
X0012220Y0076262D01*
X0012220Y0076860D02*
X0012143Y0076860D01*
X0012143Y0077459D02*
X0012220Y0077459D01*
X0012220Y0078057D02*
X0012143Y0078057D01*
X0012143Y0078656D02*
X0012220Y0078656D01*
X0012220Y0079254D02*
X0012143Y0079254D01*
X0022300Y0079254D02*
X0024234Y0079254D01*
X0024234Y0078656D02*
X0022300Y0078656D01*
X0022300Y0078057D02*
X0024380Y0078057D01*
X0023365Y0077459D02*
X0022300Y0077459D01*
X0022300Y0076860D02*
X0022924Y0076860D01*
X0022850Y0076262D02*
X0022300Y0076262D01*
X0022251Y0075663D02*
X0022850Y0075663D01*
X0022850Y0075065D02*
X0021886Y0075065D01*
D28*
X0069898Y0054088D02*
X0090646Y0054088D01*
X0110606Y0034127D01*
X0130606Y0034127D02*
X0130606Y0040623D01*
X0117142Y0054088D01*
X0164386Y0054088D02*
X0179504Y0038970D01*
X0179504Y0034127D01*
X0199504Y0034127D02*
X0199504Y0041962D01*
X0211630Y0054088D01*
X0211630Y0144088D02*
X0211630Y0156174D01*
X0164386Y0156174D02*
X0164386Y0144088D01*
X0117142Y0144088D02*
X0117142Y0156174D01*
X0069898Y0156174D02*
X0069898Y0144088D01*
M02*
