G75*
%MOIN*%
%OFA0B0*%
%FSLAX25Y25*%
%IPPOS*%
%LPD*%
%AMOC8*
5,1,8,0,0,1.08239X$1,22.5*
%
%ADD10C,0.00000*%
%ADD11C,0.10000*%
%ADD12C,0.23000*%
%ADD13C,0.07874*%
%ADD14C,0.05906*%
%ADD15R,0.07000X0.07000*%
%ADD16C,0.07000*%
%ADD17C,0.02775*%
%ADD18C,0.01600*%
%ADD19C,0.01000*%
%ADD20C,0.11811*%
D10*
X0024622Y0016411D02*
X0256906Y0016411D01*
X0256906Y0016410D02*
X0257239Y0016414D01*
X0257572Y0016426D01*
X0257904Y0016446D01*
X0258236Y0016474D01*
X0258567Y0016510D01*
X0258897Y0016555D01*
X0259226Y0016607D01*
X0259554Y0016667D01*
X0259880Y0016735D01*
X0260204Y0016810D01*
X0260526Y0016894D01*
X0260846Y0016985D01*
X0261164Y0017084D01*
X0261480Y0017191D01*
X0261792Y0017305D01*
X0262102Y0017427D01*
X0262409Y0017557D01*
X0262713Y0017693D01*
X0263013Y0017837D01*
X0263310Y0017988D01*
X0263603Y0018147D01*
X0263892Y0018312D01*
X0264177Y0018484D01*
X0264458Y0018663D01*
X0264734Y0018849D01*
X0265006Y0019042D01*
X0265273Y0019241D01*
X0265535Y0019446D01*
X0265792Y0019658D01*
X0266044Y0019876D01*
X0266290Y0020099D01*
X0266531Y0020329D01*
X0266767Y0020565D01*
X0266997Y0020806D01*
X0267220Y0021052D01*
X0267438Y0021304D01*
X0267650Y0021561D01*
X0267855Y0021823D01*
X0268054Y0022090D01*
X0268247Y0022362D01*
X0268433Y0022638D01*
X0268612Y0022919D01*
X0268784Y0023204D01*
X0268949Y0023493D01*
X0269108Y0023786D01*
X0269259Y0024083D01*
X0269403Y0024383D01*
X0269539Y0024687D01*
X0269669Y0024994D01*
X0269791Y0025304D01*
X0269905Y0025616D01*
X0270012Y0025932D01*
X0270111Y0026250D01*
X0270202Y0026570D01*
X0270286Y0026892D01*
X0270361Y0027216D01*
X0270429Y0027542D01*
X0270489Y0027870D01*
X0270541Y0028199D01*
X0270586Y0028529D01*
X0270622Y0028860D01*
X0270650Y0029192D01*
X0270670Y0029524D01*
X0270682Y0029857D01*
X0270686Y0030190D01*
X0270685Y0030190D02*
X0270685Y0270348D01*
X0270686Y0270348D02*
X0270682Y0270681D01*
X0270670Y0271014D01*
X0270650Y0271346D01*
X0270622Y0271678D01*
X0270586Y0272009D01*
X0270541Y0272339D01*
X0270489Y0272668D01*
X0270429Y0272996D01*
X0270361Y0273322D01*
X0270286Y0273646D01*
X0270202Y0273968D01*
X0270111Y0274288D01*
X0270012Y0274606D01*
X0269905Y0274922D01*
X0269791Y0275234D01*
X0269669Y0275544D01*
X0269539Y0275851D01*
X0269403Y0276155D01*
X0269259Y0276455D01*
X0269108Y0276752D01*
X0268949Y0277045D01*
X0268784Y0277334D01*
X0268612Y0277619D01*
X0268433Y0277900D01*
X0268247Y0278176D01*
X0268054Y0278448D01*
X0267855Y0278715D01*
X0267650Y0278977D01*
X0267438Y0279234D01*
X0267220Y0279486D01*
X0266997Y0279732D01*
X0266767Y0279973D01*
X0266531Y0280209D01*
X0266290Y0280439D01*
X0266044Y0280662D01*
X0265792Y0280880D01*
X0265535Y0281092D01*
X0265273Y0281297D01*
X0265006Y0281496D01*
X0264734Y0281689D01*
X0264458Y0281875D01*
X0264177Y0282054D01*
X0263892Y0282226D01*
X0263603Y0282391D01*
X0263310Y0282550D01*
X0263013Y0282701D01*
X0262713Y0282845D01*
X0262409Y0282981D01*
X0262102Y0283111D01*
X0261792Y0283233D01*
X0261480Y0283347D01*
X0261164Y0283454D01*
X0260846Y0283553D01*
X0260526Y0283644D01*
X0260204Y0283728D01*
X0259880Y0283803D01*
X0259554Y0283871D01*
X0259226Y0283931D01*
X0258897Y0283983D01*
X0258567Y0284028D01*
X0258236Y0284064D01*
X0257904Y0284092D01*
X0257572Y0284112D01*
X0257239Y0284124D01*
X0256906Y0284128D01*
X0256906Y0284127D02*
X0024622Y0284127D01*
X0024622Y0284128D02*
X0024289Y0284124D01*
X0023956Y0284112D01*
X0023624Y0284092D01*
X0023292Y0284064D01*
X0022961Y0284028D01*
X0022631Y0283983D01*
X0022302Y0283931D01*
X0021974Y0283871D01*
X0021648Y0283803D01*
X0021324Y0283728D01*
X0021002Y0283644D01*
X0020682Y0283553D01*
X0020364Y0283454D01*
X0020048Y0283347D01*
X0019736Y0283233D01*
X0019426Y0283111D01*
X0019119Y0282981D01*
X0018815Y0282845D01*
X0018515Y0282701D01*
X0018218Y0282550D01*
X0017925Y0282391D01*
X0017636Y0282226D01*
X0017351Y0282054D01*
X0017070Y0281875D01*
X0016794Y0281689D01*
X0016522Y0281496D01*
X0016255Y0281297D01*
X0015993Y0281092D01*
X0015736Y0280880D01*
X0015484Y0280662D01*
X0015238Y0280439D01*
X0014997Y0280209D01*
X0014761Y0279973D01*
X0014531Y0279732D01*
X0014308Y0279486D01*
X0014090Y0279234D01*
X0013878Y0278977D01*
X0013673Y0278715D01*
X0013474Y0278448D01*
X0013281Y0278176D01*
X0013095Y0277900D01*
X0012916Y0277619D01*
X0012744Y0277334D01*
X0012579Y0277045D01*
X0012420Y0276752D01*
X0012269Y0276455D01*
X0012125Y0276155D01*
X0011989Y0275851D01*
X0011859Y0275544D01*
X0011737Y0275234D01*
X0011623Y0274922D01*
X0011516Y0274606D01*
X0011417Y0274288D01*
X0011326Y0273968D01*
X0011242Y0273646D01*
X0011167Y0273322D01*
X0011099Y0272996D01*
X0011039Y0272668D01*
X0010987Y0272339D01*
X0010942Y0272009D01*
X0010906Y0271678D01*
X0010878Y0271346D01*
X0010858Y0271014D01*
X0010846Y0270681D01*
X0010842Y0270348D01*
X0010843Y0270348D02*
X0010843Y0030190D01*
X0010842Y0030190D02*
X0010846Y0029857D01*
X0010858Y0029524D01*
X0010878Y0029192D01*
X0010906Y0028860D01*
X0010942Y0028529D01*
X0010987Y0028199D01*
X0011039Y0027870D01*
X0011099Y0027542D01*
X0011167Y0027216D01*
X0011242Y0026892D01*
X0011326Y0026570D01*
X0011417Y0026250D01*
X0011516Y0025932D01*
X0011623Y0025616D01*
X0011737Y0025304D01*
X0011859Y0024994D01*
X0011989Y0024687D01*
X0012125Y0024383D01*
X0012269Y0024083D01*
X0012420Y0023786D01*
X0012579Y0023493D01*
X0012744Y0023204D01*
X0012916Y0022919D01*
X0013095Y0022638D01*
X0013281Y0022362D01*
X0013474Y0022090D01*
X0013673Y0021823D01*
X0013878Y0021561D01*
X0014090Y0021304D01*
X0014308Y0021052D01*
X0014531Y0020806D01*
X0014761Y0020565D01*
X0014997Y0020329D01*
X0015238Y0020099D01*
X0015484Y0019876D01*
X0015736Y0019658D01*
X0015993Y0019446D01*
X0016255Y0019241D01*
X0016522Y0019042D01*
X0016794Y0018849D01*
X0017070Y0018663D01*
X0017351Y0018484D01*
X0017636Y0018312D01*
X0017925Y0018147D01*
X0018218Y0017988D01*
X0018515Y0017837D01*
X0018815Y0017693D01*
X0019119Y0017557D01*
X0019426Y0017427D01*
X0019736Y0017305D01*
X0020048Y0017191D01*
X0020364Y0017084D01*
X0020682Y0016985D01*
X0021002Y0016894D01*
X0021324Y0016810D01*
X0021648Y0016735D01*
X0021974Y0016667D01*
X0022302Y0016607D01*
X0022631Y0016555D01*
X0022961Y0016510D01*
X0023292Y0016474D01*
X0023624Y0016446D01*
X0023956Y0016426D01*
X0024289Y0016414D01*
X0024622Y0016410D01*
D11*
X0069898Y0054088D03*
X0117142Y0054088D03*
X0164386Y0054088D03*
X0211630Y0054088D03*
X0211630Y0144088D03*
X0164386Y0144088D03*
X0117142Y0144088D03*
X0069898Y0144088D03*
D12*
X0024622Y0030190D03*
X0024622Y0270348D03*
X0256906Y0270348D03*
X0256906Y0030190D03*
D13*
X0219504Y0034127D03*
X0199504Y0034127D03*
X0179504Y0034127D03*
X0150606Y0034127D03*
X0130606Y0034127D03*
X0110606Y0034127D03*
X0081709Y0034127D03*
X0061709Y0034127D03*
D14*
X0059898Y0156174D03*
X0069898Y0156174D03*
X0079898Y0156174D03*
X0107142Y0156174D03*
X0117142Y0156174D03*
X0127142Y0156174D03*
X0154386Y0156174D03*
X0164386Y0156174D03*
X0174386Y0156174D03*
X0201630Y0156174D03*
X0211630Y0156174D03*
X0221630Y0156174D03*
D15*
X0256906Y0188261D03*
D16*
X0256906Y0198261D03*
X0256906Y0208261D03*
X0256906Y0218261D03*
X0256906Y0228261D03*
X0256906Y0238261D03*
D17*
X0209661Y0268379D03*
X0195882Y0232946D03*
X0195882Y0217198D03*
X0195882Y0193576D03*
X0178165Y0193576D03*
X0172260Y0189639D03*
X0166354Y0193576D03*
X0089583Y0179796D03*
X0081709Y0181765D03*
X0077772Y0181765D03*
X0077772Y0197513D03*
X0081709Y0197513D03*
X0085646Y0197513D03*
X0085646Y0221135D03*
X0071866Y0252631D03*
X0052181Y0203418D03*
X0046276Y0199481D03*
X0026591Y0124678D03*
X0034465Y0079403D03*
D18*
X0012643Y0078752D02*
X0268885Y0078752D01*
X0268885Y0077154D02*
X0012643Y0077154D01*
X0012643Y0075555D02*
X0268885Y0075555D01*
X0268885Y0073957D02*
X0012643Y0073957D01*
X0012643Y0072358D02*
X0268885Y0072358D01*
X0268885Y0070760D02*
X0012643Y0070760D01*
X0012643Y0069161D02*
X0268885Y0069161D01*
X0268885Y0067563D02*
X0012643Y0067563D01*
X0012643Y0065964D02*
X0268885Y0065964D01*
X0268885Y0064366D02*
X0012643Y0064366D01*
X0012643Y0062767D02*
X0268885Y0062767D01*
X0268885Y0061169D02*
X0213625Y0061169D01*
X0213083Y0061393D02*
X0210177Y0061393D01*
X0207492Y0060281D01*
X0197317Y0050107D01*
X0178698Y0050107D01*
X0168524Y0060281D01*
X0165839Y0061393D01*
X0162933Y0061393D01*
X0160248Y0060281D01*
X0158193Y0058226D01*
X0157080Y0055541D01*
X0157080Y0052635D01*
X0158127Y0050107D01*
X0131454Y0050107D01*
X0121280Y0060281D01*
X0118595Y0061393D01*
X0115689Y0061393D01*
X0113003Y0060281D01*
X0110948Y0058226D01*
X0109836Y0055541D01*
X0109836Y0052635D01*
X0110883Y0050107D01*
X0104958Y0050107D01*
X0094784Y0060281D01*
X0092099Y0061393D01*
X0068444Y0061393D01*
X0065759Y0060281D01*
X0063704Y0058226D01*
X0062592Y0055541D01*
X0062592Y0052635D01*
X0063704Y0049949D01*
X0065759Y0047894D01*
X0067698Y0047092D01*
X0067698Y0018211D01*
X0030424Y0018211D01*
X0031468Y0018769D01*
X0032554Y0019495D01*
X0033565Y0020324D01*
X0034489Y0021248D01*
X0035318Y0022258D01*
X0036044Y0023344D01*
X0036660Y0024497D01*
X0037160Y0025704D01*
X0037539Y0026955D01*
X0037794Y0028236D01*
X0037908Y0029390D01*
X0025422Y0029390D01*
X0025422Y0030990D01*
X0037908Y0030990D01*
X0037794Y0032144D01*
X0037539Y0033426D01*
X0037160Y0034676D01*
X0036660Y0035883D01*
X0036044Y0037036D01*
X0035318Y0038122D01*
X0034489Y0039133D01*
X0033565Y0040057D01*
X0032554Y0040886D01*
X0031468Y0041612D01*
X0030315Y0042228D01*
X0029108Y0042728D01*
X0027858Y0043107D01*
X0026576Y0043362D01*
X0025422Y0043476D01*
X0025422Y0030990D01*
X0023822Y0030990D01*
X0023822Y0043476D01*
X0022668Y0043362D01*
X0021387Y0043107D01*
X0020136Y0042728D01*
X0018929Y0042228D01*
X0017776Y0041612D01*
X0016690Y0040886D01*
X0015680Y0040057D01*
X0014756Y0039133D01*
X0013927Y0038122D01*
X0013200Y0037036D01*
X0012643Y0035992D01*
X0012643Y0264546D01*
X0013200Y0263502D01*
X0013927Y0262415D01*
X0014756Y0261405D01*
X0015680Y0260481D01*
X0016690Y0259652D01*
X0017776Y0258926D01*
X0018929Y0258310D01*
X0020136Y0257810D01*
X0021387Y0257431D01*
X0022668Y0257176D01*
X0023822Y0257062D01*
X0023822Y0269547D01*
X0025422Y0269547D01*
X0025422Y0257062D01*
X0026576Y0257176D01*
X0027858Y0257431D01*
X0029108Y0257810D01*
X0030315Y0258310D01*
X0031468Y0258926D01*
X0032554Y0259652D01*
X0033565Y0260481D01*
X0034489Y0261405D01*
X0035318Y0262415D01*
X0036044Y0263502D01*
X0036660Y0264654D01*
X0037160Y0265862D01*
X0037539Y0267112D01*
X0037794Y0268394D01*
X0037908Y0269548D01*
X0025422Y0269548D01*
X0025422Y0271148D01*
X0037908Y0271148D01*
X0037794Y0272301D01*
X0037539Y0273583D01*
X0037160Y0274834D01*
X0036660Y0276041D01*
X0036044Y0277193D01*
X0035318Y0278280D01*
X0034489Y0279290D01*
X0033565Y0280214D01*
X0032554Y0281043D01*
X0031468Y0281769D01*
X0030424Y0282327D01*
X0099964Y0282327D01*
X0099964Y0249583D01*
X0100432Y0249114D01*
X0181095Y0249114D01*
X0181564Y0249583D01*
X0181564Y0282327D01*
X0251104Y0282327D01*
X0250060Y0281769D01*
X0248973Y0281043D01*
X0247963Y0280214D01*
X0247039Y0279290D01*
X0246210Y0278280D01*
X0245484Y0277193D01*
X0244868Y0276041D01*
X0244368Y0274834D01*
X0243989Y0273583D01*
X0243734Y0272301D01*
X0243620Y0271148D01*
X0256105Y0271148D01*
X0256105Y0269548D01*
X0243620Y0269548D01*
X0243734Y0268394D01*
X0243989Y0267112D01*
X0244368Y0265862D01*
X0244868Y0264654D01*
X0245484Y0263502D01*
X0246210Y0262415D01*
X0247039Y0261405D01*
X0247963Y0260481D01*
X0248973Y0259652D01*
X0250060Y0258926D01*
X0251212Y0258310D01*
X0252419Y0257810D01*
X0253670Y0257431D01*
X0254952Y0257176D01*
X0256106Y0257062D01*
X0256106Y0269547D01*
X0257705Y0269547D01*
X0257705Y0257062D01*
X0258859Y0257176D01*
X0260141Y0257431D01*
X0261392Y0257810D01*
X0262599Y0258310D01*
X0263751Y0258926D01*
X0264838Y0259652D01*
X0265848Y0260481D01*
X0266772Y0261405D01*
X0267601Y0262415D01*
X0268327Y0263502D01*
X0268885Y0264546D01*
X0268885Y0035992D01*
X0268327Y0037036D01*
X0267601Y0038122D01*
X0266772Y0039133D01*
X0265848Y0040057D01*
X0264838Y0040886D01*
X0263751Y0041612D01*
X0262599Y0042228D01*
X0261392Y0042728D01*
X0260141Y0043107D01*
X0258859Y0043362D01*
X0257705Y0043476D01*
X0257705Y0030990D01*
X0256106Y0030990D01*
X0256106Y0043476D01*
X0254952Y0043362D01*
X0253670Y0043107D01*
X0252419Y0042728D01*
X0251212Y0042228D01*
X0250060Y0041612D01*
X0248973Y0040886D01*
X0247963Y0040057D01*
X0247039Y0039133D01*
X0246210Y0038122D01*
X0245484Y0037036D01*
X0244868Y0035883D01*
X0244368Y0034676D01*
X0243989Y0033426D01*
X0243734Y0032144D01*
X0243620Y0030990D01*
X0256105Y0030990D01*
X0256105Y0029390D01*
X0243620Y0029390D01*
X0243734Y0028236D01*
X0243989Y0026955D01*
X0244368Y0025704D01*
X0244868Y0024497D01*
X0245484Y0023344D01*
X0246210Y0022258D01*
X0247039Y0021248D01*
X0247963Y0020324D01*
X0248973Y0019495D01*
X0250060Y0018769D01*
X0251104Y0018211D01*
X0241389Y0018211D01*
X0241389Y0048818D01*
X0240100Y0050107D01*
X0217888Y0050107D01*
X0218935Y0052635D01*
X0218935Y0055541D01*
X0217823Y0058226D01*
X0215768Y0060281D01*
X0213083Y0061393D01*
X0209635Y0061169D02*
X0166381Y0061169D01*
X0169235Y0059570D02*
X0206781Y0059570D01*
X0205182Y0057972D02*
X0170833Y0057972D01*
X0172432Y0056373D02*
X0203584Y0056373D01*
X0201985Y0054775D02*
X0174030Y0054775D01*
X0175629Y0053176D02*
X0200387Y0053176D01*
X0198788Y0051578D02*
X0177227Y0051578D01*
X0180898Y0047907D02*
X0195117Y0047907D01*
X0193311Y0046100D01*
X0192198Y0043415D01*
X0192198Y0032674D01*
X0193311Y0029989D01*
X0195366Y0027934D01*
X0198051Y0026822D01*
X0200957Y0026822D01*
X0203642Y0027934D01*
X0205697Y0029989D01*
X0206809Y0032674D01*
X0206809Y0038936D01*
X0215780Y0047907D01*
X0239189Y0047907D01*
X0239189Y0018211D01*
X0069898Y0018211D01*
X0069898Y0046782D01*
X0087620Y0046782D01*
X0106468Y0027934D01*
X0109153Y0026822D01*
X0112059Y0026822D01*
X0114745Y0027934D01*
X0116800Y0029989D01*
X0117912Y0032674D01*
X0117912Y0035580D01*
X0116800Y0038265D01*
X0107158Y0047907D01*
X0112991Y0047907D01*
X0123301Y0037597D01*
X0123301Y0032674D01*
X0124413Y0029989D01*
X0126468Y0027934D01*
X0129153Y0026822D01*
X0132059Y0026822D01*
X0134745Y0027934D01*
X0136800Y0029989D01*
X0137912Y0032674D01*
X0137912Y0042076D01*
X0136800Y0044761D01*
X0134745Y0046816D01*
X0133654Y0047907D01*
X0160235Y0047907D01*
X0172198Y0035944D01*
X0172198Y0032674D01*
X0173311Y0029989D01*
X0175366Y0027934D01*
X0178051Y0026822D01*
X0180957Y0026822D01*
X0183642Y0027934D01*
X0185697Y0029989D01*
X0186809Y0032674D01*
X0186809Y0040423D01*
X0185697Y0043108D01*
X0183642Y0045163D01*
X0180898Y0047907D01*
X0182023Y0046782D02*
X0193993Y0046782D01*
X0192931Y0045184D02*
X0183621Y0045184D01*
X0185220Y0043585D02*
X0192269Y0043585D01*
X0192198Y0041987D02*
X0186162Y0041987D01*
X0186809Y0040388D02*
X0192198Y0040388D01*
X0192198Y0038790D02*
X0186809Y0038790D01*
X0186809Y0037191D02*
X0192198Y0037191D01*
X0192198Y0035593D02*
X0186809Y0035593D01*
X0186809Y0033994D02*
X0192198Y0033994D01*
X0192314Y0032396D02*
X0186694Y0032396D01*
X0186032Y0030797D02*
X0192976Y0030797D01*
X0194101Y0029199D02*
X0184907Y0029199D01*
X0182837Y0027600D02*
X0196171Y0027600D01*
X0202837Y0027600D02*
X0239189Y0027600D01*
X0239189Y0026002D02*
X0069898Y0026002D01*
X0069898Y0027600D02*
X0107274Y0027600D01*
X0105203Y0029199D02*
X0084673Y0029199D01*
X0084716Y0029220D02*
X0085446Y0029751D01*
X0086085Y0030390D01*
X0086615Y0031120D01*
X0087025Y0031925D01*
X0087304Y0032784D01*
X0087441Y0033648D01*
X0082188Y0033648D01*
X0082188Y0034607D01*
X0081229Y0034607D01*
X0081229Y0039860D01*
X0080365Y0039723D01*
X0079506Y0039444D01*
X0078702Y0039034D01*
X0077971Y0038503D01*
X0077333Y0037864D01*
X0076802Y0037134D01*
X0076392Y0036329D01*
X0076113Y0035470D01*
X0075976Y0034607D01*
X0081229Y0034607D01*
X0081229Y0033648D01*
X0075976Y0033648D01*
X0076113Y0032784D01*
X0076392Y0031925D01*
X0076802Y0031120D01*
X0077333Y0030390D01*
X0077971Y0029751D01*
X0078702Y0029220D01*
X0079506Y0028810D01*
X0080365Y0028531D01*
X0081229Y0028395D01*
X0081229Y0033647D01*
X0082188Y0033647D01*
X0082188Y0028395D01*
X0083052Y0028531D01*
X0083911Y0028810D01*
X0084716Y0029220D01*
X0086381Y0030797D02*
X0103605Y0030797D01*
X0102006Y0032396D02*
X0087178Y0032396D01*
X0087441Y0034607D02*
X0082188Y0034607D01*
X0082188Y0039860D01*
X0083052Y0039723D01*
X0083911Y0039444D01*
X0084716Y0039034D01*
X0085446Y0038503D01*
X0086085Y0037864D01*
X0086615Y0037134D01*
X0087025Y0036329D01*
X0087304Y0035470D01*
X0087441Y0034607D01*
X0087265Y0035593D02*
X0098809Y0035593D01*
X0097211Y0037191D02*
X0086574Y0037191D01*
X0085051Y0038790D02*
X0095612Y0038790D01*
X0094014Y0040388D02*
X0069898Y0040388D01*
X0069898Y0038790D02*
X0078366Y0038790D01*
X0076844Y0037191D02*
X0069898Y0037191D01*
X0069898Y0035593D02*
X0076153Y0035593D01*
X0081229Y0035593D02*
X0082188Y0035593D01*
X0082188Y0037191D02*
X0081229Y0037191D01*
X0081229Y0038790D02*
X0082188Y0038790D01*
X0082188Y0033994D02*
X0100408Y0033994D01*
X0092415Y0041987D02*
X0069898Y0041987D01*
X0069898Y0043585D02*
X0090817Y0043585D01*
X0089218Y0045184D02*
X0069898Y0045184D01*
X0067698Y0045184D02*
X0012643Y0045184D01*
X0012643Y0046782D02*
X0067698Y0046782D01*
X0065273Y0048381D02*
X0012643Y0048381D01*
X0012643Y0049979D02*
X0063692Y0049979D01*
X0063030Y0051578D02*
X0012643Y0051578D01*
X0012643Y0053176D02*
X0062592Y0053176D01*
X0062592Y0054775D02*
X0012643Y0054775D01*
X0012643Y0056373D02*
X0062937Y0056373D01*
X0063599Y0057972D02*
X0012643Y0057972D01*
X0012643Y0059570D02*
X0065049Y0059570D01*
X0067903Y0061169D02*
X0012643Y0061169D01*
X0012643Y0043585D02*
X0067698Y0043585D01*
X0067698Y0041987D02*
X0030766Y0041987D01*
X0033160Y0040388D02*
X0067698Y0040388D01*
X0067698Y0038790D02*
X0065051Y0038790D01*
X0064716Y0039034D02*
X0065446Y0038503D01*
X0066085Y0037864D01*
X0066615Y0037134D01*
X0067025Y0036329D01*
X0067304Y0035470D01*
X0067441Y0034607D01*
X0062188Y0034607D01*
X0061229Y0034607D01*
X0061229Y0039860D01*
X0060365Y0039723D01*
X0059506Y0039444D01*
X0058702Y0039034D01*
X0057971Y0038503D01*
X0057333Y0037864D01*
X0056802Y0037134D01*
X0056392Y0036329D01*
X0056113Y0035470D01*
X0055976Y0034607D01*
X0061229Y0034607D01*
X0061229Y0033648D01*
X0055976Y0033648D01*
X0056113Y0032784D01*
X0056392Y0031925D01*
X0056802Y0031120D01*
X0057333Y0030390D01*
X0057971Y0029751D01*
X0058702Y0029220D01*
X0059506Y0028810D01*
X0060365Y0028531D01*
X0061229Y0028395D01*
X0061229Y0033647D01*
X0062188Y0033647D01*
X0062188Y0028395D01*
X0063052Y0028531D01*
X0063911Y0028810D01*
X0064716Y0029220D01*
X0065446Y0029751D01*
X0066085Y0030390D01*
X0066615Y0031120D01*
X0067025Y0031925D01*
X0067304Y0032784D01*
X0067441Y0033648D01*
X0062188Y0033648D01*
X0062188Y0034607D01*
X0062188Y0039860D01*
X0063052Y0039723D01*
X0063911Y0039444D01*
X0064716Y0039034D01*
X0062188Y0038790D02*
X0061229Y0038790D01*
X0061229Y0037191D02*
X0062188Y0037191D01*
X0062188Y0035593D02*
X0061229Y0035593D01*
X0061229Y0033994D02*
X0037367Y0033994D01*
X0037744Y0032396D02*
X0056239Y0032396D01*
X0057037Y0030797D02*
X0025422Y0030797D01*
X0025422Y0032396D02*
X0023822Y0032396D01*
X0023822Y0033994D02*
X0025422Y0033994D01*
X0025422Y0035593D02*
X0023822Y0035593D01*
X0023822Y0037191D02*
X0025422Y0037191D01*
X0025422Y0038790D02*
X0023822Y0038790D01*
X0023822Y0040388D02*
X0025422Y0040388D01*
X0025422Y0041987D02*
X0023822Y0041987D01*
X0018478Y0041987D02*
X0012643Y0041987D01*
X0012643Y0040388D02*
X0016084Y0040388D01*
X0014474Y0038790D02*
X0012643Y0038790D01*
X0012643Y0037191D02*
X0013304Y0037191D01*
X0032692Y0019608D02*
X0067698Y0019608D01*
X0067698Y0021206D02*
X0034447Y0021206D01*
X0035683Y0022805D02*
X0067698Y0022805D01*
X0067698Y0024403D02*
X0036610Y0024403D01*
X0037250Y0026002D02*
X0067698Y0026002D01*
X0067698Y0027600D02*
X0037667Y0027600D01*
X0037889Y0029199D02*
X0058744Y0029199D01*
X0061229Y0029199D02*
X0062188Y0029199D01*
X0062188Y0030797D02*
X0061229Y0030797D01*
X0061229Y0032396D02*
X0062188Y0032396D01*
X0062188Y0033994D02*
X0067698Y0033994D01*
X0067698Y0032396D02*
X0067178Y0032396D01*
X0067698Y0030797D02*
X0066381Y0030797D01*
X0067698Y0029199D02*
X0064673Y0029199D01*
X0069898Y0029199D02*
X0078744Y0029199D01*
X0077037Y0030797D02*
X0069898Y0030797D01*
X0069898Y0032396D02*
X0076239Y0032396D01*
X0081229Y0032396D02*
X0082188Y0032396D01*
X0082188Y0030797D02*
X0081229Y0030797D01*
X0081229Y0029199D02*
X0082188Y0029199D01*
X0081229Y0033994D02*
X0069898Y0033994D01*
X0067698Y0035593D02*
X0067265Y0035593D01*
X0067698Y0037191D02*
X0066574Y0037191D01*
X0058366Y0038790D02*
X0034770Y0038790D01*
X0035940Y0037191D02*
X0056844Y0037191D01*
X0056153Y0035593D02*
X0036780Y0035593D01*
X0069898Y0024403D02*
X0239189Y0024403D01*
X0239189Y0022805D02*
X0069898Y0022805D01*
X0069898Y0021206D02*
X0239189Y0021206D01*
X0239189Y0019608D02*
X0069898Y0019608D01*
X0101889Y0053176D02*
X0109836Y0053176D01*
X0109836Y0054775D02*
X0100290Y0054775D01*
X0098692Y0056373D02*
X0110181Y0056373D01*
X0110843Y0057972D02*
X0097093Y0057972D01*
X0095495Y0059570D02*
X0112293Y0059570D01*
X0115147Y0061169D02*
X0092640Y0061169D01*
X0103487Y0051578D02*
X0110274Y0051578D01*
X0108283Y0046782D02*
X0114116Y0046782D01*
X0115714Y0045184D02*
X0109881Y0045184D01*
X0111480Y0043585D02*
X0117313Y0043585D01*
X0118911Y0041987D02*
X0113078Y0041987D01*
X0114677Y0040388D02*
X0120510Y0040388D01*
X0122108Y0038790D02*
X0116275Y0038790D01*
X0117245Y0037191D02*
X0123301Y0037191D01*
X0123301Y0035593D02*
X0117907Y0035593D01*
X0117912Y0033994D02*
X0123301Y0033994D01*
X0123416Y0032396D02*
X0117797Y0032396D01*
X0117134Y0030797D02*
X0124078Y0030797D01*
X0125203Y0029199D02*
X0116009Y0029199D01*
X0113939Y0027600D02*
X0127274Y0027600D01*
X0133939Y0027600D02*
X0176171Y0027600D01*
X0174101Y0029199D02*
X0153571Y0029199D01*
X0153613Y0029220D02*
X0154344Y0029751D01*
X0154982Y0030390D01*
X0155513Y0031120D01*
X0155923Y0031925D01*
X0156202Y0032784D01*
X0156339Y0033648D01*
X0151086Y0033648D01*
X0151086Y0034607D01*
X0150127Y0034607D01*
X0150127Y0039860D01*
X0149263Y0039723D01*
X0148404Y0039444D01*
X0147599Y0039034D01*
X0146869Y0038503D01*
X0146230Y0037864D01*
X0145700Y0037134D01*
X0145290Y0036329D01*
X0145011Y0035470D01*
X0144874Y0034607D01*
X0150127Y0034607D01*
X0150127Y0033648D01*
X0144874Y0033648D01*
X0145011Y0032784D01*
X0145290Y0031925D01*
X0145700Y0031120D01*
X0146230Y0030390D01*
X0146869Y0029751D01*
X0147599Y0029220D01*
X0148404Y0028810D01*
X0149263Y0028531D01*
X0150127Y0028395D01*
X0150127Y0033647D01*
X0151086Y0033647D01*
X0151086Y0028395D01*
X0151950Y0028531D01*
X0152809Y0028810D01*
X0153613Y0029220D01*
X0155278Y0030797D02*
X0172976Y0030797D01*
X0172314Y0032396D02*
X0156076Y0032396D01*
X0156339Y0034607D02*
X0156202Y0035470D01*
X0155923Y0036329D01*
X0155513Y0037134D01*
X0154982Y0037864D01*
X0154344Y0038503D01*
X0153613Y0039034D01*
X0152809Y0039444D01*
X0151950Y0039723D01*
X0151086Y0039860D01*
X0151086Y0034607D01*
X0156339Y0034607D01*
X0156162Y0035593D02*
X0172198Y0035593D01*
X0172198Y0033994D02*
X0151086Y0033994D01*
X0150127Y0033994D02*
X0137912Y0033994D01*
X0137912Y0035593D02*
X0145050Y0035593D01*
X0145741Y0037191D02*
X0137912Y0037191D01*
X0137912Y0038790D02*
X0147263Y0038790D01*
X0150127Y0038790D02*
X0151086Y0038790D01*
X0151086Y0037191D02*
X0150127Y0037191D01*
X0150127Y0035593D02*
X0151086Y0035593D01*
X0153949Y0038790D02*
X0169352Y0038790D01*
X0167754Y0040388D02*
X0137912Y0040388D01*
X0137912Y0041987D02*
X0166155Y0041987D01*
X0164557Y0043585D02*
X0137287Y0043585D01*
X0136377Y0045184D02*
X0162958Y0045184D01*
X0161360Y0046782D02*
X0134779Y0046782D01*
X0129983Y0051578D02*
X0157518Y0051578D01*
X0157080Y0053176D02*
X0128385Y0053176D01*
X0126786Y0054775D02*
X0157080Y0054775D01*
X0157425Y0056373D02*
X0125188Y0056373D01*
X0123589Y0057972D02*
X0158087Y0057972D01*
X0159537Y0059570D02*
X0121991Y0059570D01*
X0119137Y0061169D02*
X0162391Y0061169D01*
X0155471Y0037191D02*
X0170951Y0037191D01*
X0151086Y0032396D02*
X0150127Y0032396D01*
X0150127Y0030797D02*
X0151086Y0030797D01*
X0151086Y0029199D02*
X0150127Y0029199D01*
X0147642Y0029199D02*
X0136009Y0029199D01*
X0137134Y0030797D02*
X0145934Y0030797D01*
X0145137Y0032396D02*
X0137797Y0032396D01*
X0204907Y0029199D02*
X0216540Y0029199D01*
X0216497Y0029220D02*
X0217302Y0028810D01*
X0218161Y0028531D01*
X0219024Y0028395D01*
X0219024Y0033647D01*
X0219983Y0033647D01*
X0219983Y0028395D01*
X0220847Y0028531D01*
X0221706Y0028810D01*
X0222511Y0029220D01*
X0223241Y0029751D01*
X0223880Y0030390D01*
X0224411Y0031120D01*
X0224821Y0031925D01*
X0225100Y0032784D01*
X0225236Y0033648D01*
X0219984Y0033648D01*
X0219984Y0034607D01*
X0225236Y0034607D01*
X0225100Y0035470D01*
X0224821Y0036329D01*
X0224411Y0037134D01*
X0223880Y0037864D01*
X0223241Y0038503D01*
X0222511Y0039034D01*
X0221706Y0039444D01*
X0220847Y0039723D01*
X0219983Y0039860D01*
X0219983Y0034607D01*
X0219024Y0034607D01*
X0219024Y0039860D01*
X0218161Y0039723D01*
X0217302Y0039444D01*
X0216497Y0039034D01*
X0215767Y0038503D01*
X0215128Y0037864D01*
X0214597Y0037134D01*
X0214187Y0036329D01*
X0213908Y0035470D01*
X0213771Y0034607D01*
X0219024Y0034607D01*
X0219024Y0033648D01*
X0213771Y0033648D01*
X0213908Y0032784D01*
X0214187Y0031925D01*
X0214597Y0031120D01*
X0215128Y0030390D01*
X0215767Y0029751D01*
X0216497Y0029220D01*
X0214832Y0030797D02*
X0206032Y0030797D01*
X0206694Y0032396D02*
X0214034Y0032396D01*
X0219024Y0032396D02*
X0219983Y0032396D01*
X0219984Y0033994D02*
X0239189Y0033994D01*
X0239189Y0032396D02*
X0224974Y0032396D01*
X0224176Y0030797D02*
X0239189Y0030797D01*
X0239189Y0029199D02*
X0222468Y0029199D01*
X0219983Y0029199D02*
X0219024Y0029199D01*
X0219024Y0030797D02*
X0219983Y0030797D01*
X0219024Y0033994D02*
X0206809Y0033994D01*
X0206809Y0035593D02*
X0213948Y0035593D01*
X0214639Y0037191D02*
X0206809Y0037191D01*
X0206809Y0038790D02*
X0216161Y0038790D01*
X0219024Y0038790D02*
X0219983Y0038790D01*
X0219983Y0037191D02*
X0219024Y0037191D01*
X0219024Y0035593D02*
X0219983Y0035593D01*
X0222847Y0038790D02*
X0239189Y0038790D01*
X0239189Y0040388D02*
X0208262Y0040388D01*
X0209860Y0041987D02*
X0239189Y0041987D01*
X0239189Y0043585D02*
X0211459Y0043585D01*
X0213058Y0045184D02*
X0239189Y0045184D01*
X0239189Y0046782D02*
X0214656Y0046782D01*
X0218498Y0051578D02*
X0268885Y0051578D01*
X0268885Y0053176D02*
X0218935Y0053176D01*
X0218935Y0054775D02*
X0268885Y0054775D01*
X0268885Y0056373D02*
X0218591Y0056373D01*
X0217928Y0057972D02*
X0268885Y0057972D01*
X0268885Y0059570D02*
X0216479Y0059570D01*
X0224369Y0037191D02*
X0239189Y0037191D01*
X0239189Y0035593D02*
X0225060Y0035593D01*
X0241389Y0035593D02*
X0244748Y0035593D01*
X0244161Y0033994D02*
X0241389Y0033994D01*
X0241389Y0032396D02*
X0243784Y0032396D01*
X0241389Y0030797D02*
X0256105Y0030797D01*
X0256106Y0032396D02*
X0257705Y0032396D01*
X0257705Y0033994D02*
X0256106Y0033994D01*
X0256106Y0035593D02*
X0257705Y0035593D01*
X0257705Y0037191D02*
X0256106Y0037191D01*
X0256106Y0038790D02*
X0257705Y0038790D01*
X0257705Y0040388D02*
X0256106Y0040388D01*
X0256106Y0041987D02*
X0257705Y0041987D01*
X0263050Y0041987D02*
X0268885Y0041987D01*
X0268885Y0043585D02*
X0241389Y0043585D01*
X0241389Y0041987D02*
X0250761Y0041987D01*
X0248367Y0040388D02*
X0241389Y0040388D01*
X0241389Y0038790D02*
X0246758Y0038790D01*
X0245588Y0037191D02*
X0241389Y0037191D01*
X0241389Y0029199D02*
X0243639Y0029199D01*
X0243860Y0027600D02*
X0241389Y0027600D01*
X0241389Y0026002D02*
X0244278Y0026002D01*
X0244918Y0024403D02*
X0241389Y0024403D01*
X0241389Y0022805D02*
X0245845Y0022805D01*
X0247080Y0021206D02*
X0241389Y0021206D01*
X0241389Y0019608D02*
X0248835Y0019608D01*
X0268223Y0037191D02*
X0268885Y0037191D01*
X0268885Y0038790D02*
X0267053Y0038790D01*
X0265444Y0040388D02*
X0268885Y0040388D01*
X0268885Y0045184D02*
X0241389Y0045184D01*
X0241389Y0046782D02*
X0268885Y0046782D01*
X0268885Y0048381D02*
X0241389Y0048381D01*
X0240228Y0049979D02*
X0268885Y0049979D01*
X0268885Y0080351D02*
X0012643Y0080351D01*
X0012643Y0081950D02*
X0268885Y0081950D01*
X0268885Y0083548D02*
X0012643Y0083548D01*
X0012643Y0085147D02*
X0268885Y0085147D01*
X0268885Y0086745D02*
X0012643Y0086745D01*
X0012643Y0088344D02*
X0268885Y0088344D01*
X0268885Y0089942D02*
X0012643Y0089942D01*
X0012643Y0091541D02*
X0268885Y0091541D01*
X0268885Y0093139D02*
X0012643Y0093139D01*
X0012643Y0094738D02*
X0268885Y0094738D01*
X0268885Y0096336D02*
X0012643Y0096336D01*
X0012643Y0097935D02*
X0268885Y0097935D01*
X0268885Y0099533D02*
X0012643Y0099533D01*
X0012643Y0101132D02*
X0268885Y0101132D01*
X0268885Y0102730D02*
X0012643Y0102730D01*
X0012643Y0104329D02*
X0268885Y0104329D01*
X0268885Y0105927D02*
X0012643Y0105927D01*
X0012643Y0107526D02*
X0268885Y0107526D01*
X0268885Y0109124D02*
X0012643Y0109124D01*
X0012643Y0110723D02*
X0268885Y0110723D01*
X0268885Y0112321D02*
X0012643Y0112321D01*
X0012643Y0113920D02*
X0268885Y0113920D01*
X0268885Y0115518D02*
X0012643Y0115518D01*
X0012643Y0117117D02*
X0268885Y0117117D01*
X0268885Y0118715D02*
X0012643Y0118715D01*
X0012643Y0120314D02*
X0268885Y0120314D01*
X0268885Y0121912D02*
X0012643Y0121912D01*
X0012643Y0123511D02*
X0268885Y0123511D01*
X0268885Y0125109D02*
X0012643Y0125109D01*
X0012643Y0126708D02*
X0268885Y0126708D01*
X0268885Y0128306D02*
X0012643Y0128306D01*
X0012643Y0129905D02*
X0268885Y0129905D01*
X0268885Y0131503D02*
X0012643Y0131503D01*
X0012643Y0133102D02*
X0268885Y0133102D01*
X0268885Y0134700D02*
X0012643Y0134700D01*
X0012643Y0136299D02*
X0268885Y0136299D01*
X0268885Y0137897D02*
X0215771Y0137897D01*
X0215768Y0137894D02*
X0217823Y0139949D01*
X0218935Y0142635D01*
X0218935Y0152257D01*
X0219139Y0152109D01*
X0219805Y0151770D01*
X0220517Y0151539D01*
X0221256Y0151422D01*
X0221446Y0151422D01*
X0221446Y0155990D01*
X0221814Y0155990D01*
X0221814Y0151422D01*
X0222004Y0151422D01*
X0222743Y0151539D01*
X0223454Y0151770D01*
X0224121Y0152109D01*
X0224726Y0152549D01*
X0225255Y0153078D01*
X0225695Y0153683D01*
X0226034Y0154350D01*
X0226266Y0155061D01*
X0226383Y0155800D01*
X0226383Y0155990D01*
X0221814Y0155990D01*
X0221814Y0156359D01*
X0221446Y0156359D01*
X0221446Y0160927D01*
X0221256Y0160927D01*
X0220517Y0160810D01*
X0219805Y0160579D01*
X0219139Y0160239D01*
X0218534Y0159800D01*
X0218182Y0159447D01*
X0217823Y0160313D01*
X0215768Y0162368D01*
X0213083Y0163480D01*
X0210177Y0163480D01*
X0207492Y0162368D01*
X0205437Y0160313D01*
X0204913Y0159047D01*
X0204096Y0159864D01*
X0202496Y0160527D01*
X0200764Y0160527D01*
X0199164Y0159864D01*
X0197940Y0158640D01*
X0197277Y0157040D01*
X0197277Y0155309D01*
X0197940Y0153709D01*
X0199164Y0152484D01*
X0200764Y0151822D01*
X0202496Y0151822D01*
X0204096Y0152484D01*
X0204324Y0152713D01*
X0204324Y0142635D01*
X0205437Y0139949D01*
X0207492Y0137894D01*
X0210177Y0136782D01*
X0213083Y0136782D01*
X0215768Y0137894D01*
X0217370Y0139496D02*
X0268885Y0139496D01*
X0268885Y0141094D02*
X0218297Y0141094D01*
X0218935Y0142693D02*
X0268885Y0142693D01*
X0268885Y0144291D02*
X0218935Y0144291D01*
X0218935Y0145890D02*
X0268885Y0145890D01*
X0268885Y0147488D02*
X0218935Y0147488D01*
X0218935Y0149087D02*
X0268885Y0149087D01*
X0268885Y0150685D02*
X0218935Y0150685D01*
X0221446Y0152284D02*
X0221814Y0152284D01*
X0221814Y0153883D02*
X0221446Y0153883D01*
X0221446Y0155481D02*
X0221814Y0155481D01*
X0221814Y0156359D02*
X0226383Y0156359D01*
X0226383Y0156548D01*
X0226266Y0157287D01*
X0226034Y0157999D01*
X0225695Y0158665D01*
X0225255Y0159271D01*
X0224726Y0159800D01*
X0224121Y0160239D01*
X0223454Y0160579D01*
X0222743Y0160810D01*
X0222004Y0160927D01*
X0221814Y0160927D01*
X0221814Y0156359D01*
X0221814Y0157080D02*
X0221446Y0157080D01*
X0221446Y0158678D02*
X0221814Y0158678D01*
X0221814Y0160277D02*
X0221446Y0160277D01*
X0219212Y0160277D02*
X0217838Y0160277D01*
X0216261Y0161875D02*
X0268885Y0161875D01*
X0268885Y0160277D02*
X0224048Y0160277D01*
X0225686Y0158678D02*
X0268885Y0158678D01*
X0268885Y0157080D02*
X0226299Y0157080D01*
X0226332Y0155481D02*
X0268885Y0155481D01*
X0268885Y0153883D02*
X0225796Y0153883D01*
X0224361Y0152284D02*
X0268885Y0152284D01*
X0268885Y0163474D02*
X0213098Y0163474D01*
X0210162Y0163474D02*
X0165854Y0163474D01*
X0165839Y0163480D02*
X0162933Y0163480D01*
X0160248Y0162368D01*
X0158193Y0160313D01*
X0157668Y0159047D01*
X0156851Y0159864D01*
X0155252Y0160527D01*
X0153520Y0160527D01*
X0151920Y0159864D01*
X0150696Y0158640D01*
X0150033Y0157040D01*
X0150033Y0155309D01*
X0150696Y0153709D01*
X0151920Y0152484D01*
X0153520Y0151822D01*
X0155252Y0151822D01*
X0156851Y0152484D01*
X0157080Y0152713D01*
X0157080Y0142635D01*
X0158193Y0139949D01*
X0160248Y0137894D01*
X0162933Y0136782D01*
X0165839Y0136782D01*
X0168524Y0137894D01*
X0170579Y0139949D01*
X0171691Y0142635D01*
X0171691Y0152257D01*
X0171895Y0152109D01*
X0172561Y0151770D01*
X0173273Y0151539D01*
X0174012Y0151422D01*
X0174202Y0151422D01*
X0174202Y0155990D01*
X0174570Y0155990D01*
X0174570Y0151422D01*
X0174760Y0151422D01*
X0175499Y0151539D01*
X0176210Y0151770D01*
X0176877Y0152109D01*
X0177482Y0152549D01*
X0178011Y0153078D01*
X0178451Y0153683D01*
X0178790Y0154350D01*
X0179022Y0155061D01*
X0179139Y0155800D01*
X0179139Y0155990D01*
X0174570Y0155990D01*
X0174570Y0156359D01*
X0174202Y0156359D01*
X0174202Y0160927D01*
X0174012Y0160927D01*
X0173273Y0160810D01*
X0172561Y0160579D01*
X0171895Y0160239D01*
X0171290Y0159800D01*
X0170937Y0159447D01*
X0170579Y0160313D01*
X0168524Y0162368D01*
X0165839Y0163480D01*
X0162918Y0163474D02*
X0118610Y0163474D01*
X0118595Y0163480D02*
X0115689Y0163480D01*
X0113003Y0162368D01*
X0110948Y0160313D01*
X0110424Y0159047D01*
X0109607Y0159864D01*
X0108008Y0160527D01*
X0106276Y0160527D01*
X0104676Y0159864D01*
X0103452Y0158640D01*
X0102789Y0157040D01*
X0102789Y0155309D01*
X0103452Y0153709D01*
X0104676Y0152484D01*
X0106276Y0151822D01*
X0108008Y0151822D01*
X0109607Y0152484D01*
X0109836Y0152713D01*
X0109836Y0142635D01*
X0110948Y0139949D01*
X0113003Y0137894D01*
X0115689Y0136782D01*
X0118595Y0136782D01*
X0121280Y0137894D01*
X0123335Y0139949D01*
X0124447Y0142635D01*
X0124447Y0152257D01*
X0124651Y0152109D01*
X0125317Y0151770D01*
X0126029Y0151539D01*
X0126768Y0151422D01*
X0126957Y0151422D01*
X0126957Y0155990D01*
X0127326Y0155990D01*
X0127326Y0151422D01*
X0127516Y0151422D01*
X0128255Y0151539D01*
X0128966Y0151770D01*
X0129633Y0152109D01*
X0130238Y0152549D01*
X0130767Y0153078D01*
X0131207Y0153683D01*
X0131546Y0154350D01*
X0131777Y0155061D01*
X0131894Y0155800D01*
X0131894Y0155990D01*
X0127326Y0155990D01*
X0127326Y0156359D01*
X0126957Y0156359D01*
X0126957Y0160927D01*
X0126768Y0160927D01*
X0126029Y0160810D01*
X0125317Y0160579D01*
X0124651Y0160239D01*
X0124046Y0159800D01*
X0123693Y0159447D01*
X0123335Y0160313D01*
X0121280Y0162368D01*
X0118595Y0163480D01*
X0115674Y0163474D02*
X0071366Y0163474D01*
X0071351Y0163480D02*
X0068444Y0163480D01*
X0065759Y0162368D01*
X0063704Y0160313D01*
X0063180Y0159047D01*
X0062363Y0159864D01*
X0060763Y0160527D01*
X0059032Y0160527D01*
X0057432Y0159864D01*
X0056208Y0158640D01*
X0055545Y0157040D01*
X0055545Y0155309D01*
X0056208Y0153709D01*
X0057432Y0152484D01*
X0059032Y0151822D01*
X0060763Y0151822D01*
X0062363Y0152484D01*
X0062592Y0152713D01*
X0062592Y0142635D01*
X0063704Y0139949D01*
X0065759Y0137894D01*
X0068444Y0136782D01*
X0071351Y0136782D01*
X0074036Y0137894D01*
X0076091Y0139949D01*
X0077203Y0142635D01*
X0077203Y0152257D01*
X0077407Y0152109D01*
X0078073Y0151770D01*
X0078785Y0151539D01*
X0079524Y0151422D01*
X0079713Y0151422D01*
X0079713Y0155990D01*
X0080082Y0155990D01*
X0080082Y0156359D01*
X0079713Y0156359D01*
X0079713Y0160927D01*
X0079524Y0160927D01*
X0078785Y0160810D01*
X0078073Y0160579D01*
X0077407Y0160239D01*
X0076801Y0159800D01*
X0076449Y0159447D01*
X0076091Y0160313D01*
X0074036Y0162368D01*
X0071351Y0163480D01*
X0068429Y0163474D02*
X0012643Y0163474D01*
X0012643Y0165072D02*
X0268885Y0165072D01*
X0268885Y0166671D02*
X0012643Y0166671D01*
X0012643Y0168269D02*
X0268885Y0168269D01*
X0268885Y0169868D02*
X0012643Y0169868D01*
X0012643Y0171466D02*
X0268885Y0171466D01*
X0268885Y0173065D02*
X0012643Y0173065D01*
X0012643Y0174663D02*
X0268885Y0174663D01*
X0268885Y0176262D02*
X0012643Y0176262D01*
X0012643Y0177860D02*
X0268885Y0177860D01*
X0268885Y0179459D02*
X0083344Y0179459D01*
X0083288Y0179402D02*
X0084072Y0180186D01*
X0084496Y0181210D01*
X0084496Y0182319D01*
X0084072Y0183344D01*
X0083609Y0183807D01*
X0083609Y0195471D01*
X0084072Y0195934D01*
X0084496Y0196958D01*
X0084496Y0198067D01*
X0084072Y0199092D01*
X0083288Y0199876D01*
X0082263Y0200300D01*
X0081154Y0200300D01*
X0080130Y0199876D01*
X0079740Y0199486D01*
X0079351Y0199876D01*
X0078326Y0200300D01*
X0077217Y0200300D01*
X0076193Y0199876D01*
X0075409Y0199092D01*
X0074984Y0198067D01*
X0074984Y0196958D01*
X0075409Y0195934D01*
X0075872Y0195471D01*
X0075872Y0183807D01*
X0075409Y0183344D01*
X0074984Y0182319D01*
X0074984Y0181210D01*
X0075409Y0180186D01*
X0076193Y0179402D01*
X0077217Y0178977D01*
X0078326Y0178977D01*
X0079351Y0179402D01*
X0079740Y0179791D01*
X0080130Y0179402D01*
X0081154Y0178977D01*
X0082263Y0178977D01*
X0083288Y0179402D01*
X0084433Y0181057D02*
X0268885Y0181057D01*
X0268885Y0182656D02*
X0084357Y0182656D01*
X0083609Y0184254D02*
X0251678Y0184254D01*
X0251728Y0184066D02*
X0251965Y0183656D01*
X0252300Y0183321D01*
X0252711Y0183084D01*
X0253169Y0182961D01*
X0256721Y0182961D01*
X0256721Y0188077D01*
X0251606Y0188077D01*
X0251606Y0184524D01*
X0251728Y0184066D01*
X0251606Y0185853D02*
X0083609Y0185853D01*
X0083609Y0187451D02*
X0251606Y0187451D01*
X0251606Y0188445D02*
X0256721Y0188445D01*
X0256721Y0188077D01*
X0257090Y0188077D01*
X0257090Y0188445D01*
X0262205Y0188445D01*
X0262205Y0191998D01*
X0262083Y0192456D01*
X0261846Y0192866D01*
X0261511Y0193201D01*
X0261100Y0193438D01*
X0260642Y0193561D01*
X0258363Y0193561D01*
X0259681Y0194107D01*
X0261060Y0195485D01*
X0261805Y0197286D01*
X0261805Y0199236D01*
X0261060Y0201037D01*
X0259681Y0202415D01*
X0257880Y0203161D01*
X0255931Y0203161D01*
X0254130Y0202415D01*
X0252751Y0201037D01*
X0252006Y0199236D01*
X0252006Y0197286D01*
X0252751Y0195485D01*
X0254130Y0194107D01*
X0255448Y0193561D01*
X0253169Y0193561D01*
X0252711Y0193438D01*
X0252300Y0193201D01*
X0251965Y0192866D01*
X0251728Y0192456D01*
X0251606Y0191998D01*
X0251606Y0188445D01*
X0251606Y0189050D02*
X0083609Y0189050D01*
X0083609Y0190648D02*
X0251606Y0190648D01*
X0251672Y0192247D02*
X0083609Y0192247D01*
X0083609Y0193845D02*
X0254761Y0193845D01*
X0252793Y0195444D02*
X0083609Y0195444D01*
X0084496Y0197042D02*
X0252107Y0197042D01*
X0252006Y0198641D02*
X0084259Y0198641D01*
X0082410Y0200239D02*
X0252421Y0200239D01*
X0253553Y0201838D02*
X0012643Y0201838D01*
X0012643Y0203436D02*
X0255749Y0203436D01*
X0255931Y0203361D02*
X0257880Y0203361D01*
X0259681Y0204107D01*
X0261060Y0205485D01*
X0261805Y0207286D01*
X0261805Y0209236D01*
X0261060Y0211037D01*
X0259681Y0212415D01*
X0257880Y0213161D01*
X0255931Y0213161D01*
X0254130Y0212415D01*
X0252751Y0211037D01*
X0252006Y0209236D01*
X0252006Y0207286D01*
X0252751Y0205485D01*
X0254130Y0204107D01*
X0255931Y0203361D01*
X0258062Y0203436D02*
X0268885Y0203436D01*
X0268885Y0201838D02*
X0260258Y0201838D01*
X0261390Y0200239D02*
X0268885Y0200239D01*
X0268885Y0198641D02*
X0261805Y0198641D01*
X0261704Y0197042D02*
X0268885Y0197042D01*
X0268885Y0195444D02*
X0261018Y0195444D01*
X0259050Y0193845D02*
X0268885Y0193845D01*
X0268885Y0192247D02*
X0262139Y0192247D01*
X0262205Y0190648D02*
X0268885Y0190648D01*
X0268885Y0189050D02*
X0262205Y0189050D01*
X0262205Y0188077D02*
X0257090Y0188077D01*
X0257090Y0182961D01*
X0260642Y0182961D01*
X0261100Y0183084D01*
X0261511Y0183321D01*
X0261846Y0183656D01*
X0262083Y0184066D01*
X0262205Y0184524D01*
X0262205Y0188077D01*
X0262205Y0187451D02*
X0268885Y0187451D01*
X0268885Y0185853D02*
X0262205Y0185853D01*
X0262133Y0184254D02*
X0268885Y0184254D01*
X0257090Y0184254D02*
X0256721Y0184254D01*
X0256721Y0185853D02*
X0257090Y0185853D01*
X0257090Y0187451D02*
X0256721Y0187451D01*
X0253202Y0205035D02*
X0012643Y0205035D01*
X0012643Y0206633D02*
X0252276Y0206633D01*
X0252006Y0208232D02*
X0012643Y0208232D01*
X0012643Y0209830D02*
X0252252Y0209830D01*
X0253144Y0211429D02*
X0012643Y0211429D01*
X0012643Y0213027D02*
X0255609Y0213027D01*
X0255931Y0213361D02*
X0257880Y0213361D01*
X0259681Y0214107D01*
X0261060Y0215485D01*
X0261805Y0217286D01*
X0261805Y0219236D01*
X0261060Y0221037D01*
X0259681Y0222415D01*
X0257880Y0223161D01*
X0255931Y0223161D01*
X0254130Y0222415D01*
X0252751Y0221037D01*
X0252006Y0219236D01*
X0252006Y0217286D01*
X0252751Y0215485D01*
X0254130Y0214107D01*
X0255931Y0213361D01*
X0258202Y0213027D02*
X0268885Y0213027D01*
X0268885Y0211429D02*
X0260667Y0211429D01*
X0261559Y0209830D02*
X0268885Y0209830D01*
X0268885Y0208232D02*
X0261805Y0208232D01*
X0261535Y0206633D02*
X0268885Y0206633D01*
X0268885Y0205035D02*
X0260609Y0205035D01*
X0260200Y0214626D02*
X0268885Y0214626D01*
X0268885Y0216224D02*
X0261366Y0216224D01*
X0261805Y0217823D02*
X0268885Y0217823D01*
X0268885Y0219421D02*
X0261729Y0219421D01*
X0261066Y0221020D02*
X0268885Y0221020D01*
X0268885Y0222619D02*
X0259190Y0222619D01*
X0257880Y0223361D02*
X0259681Y0224107D01*
X0261060Y0225485D01*
X0261805Y0227286D01*
X0261805Y0229236D01*
X0261060Y0231037D01*
X0259681Y0232415D01*
X0257880Y0233161D01*
X0255931Y0233161D01*
X0254130Y0232415D01*
X0252751Y0231037D01*
X0252006Y0229236D01*
X0252006Y0227286D01*
X0252751Y0225485D01*
X0254130Y0224107D01*
X0255931Y0223361D01*
X0257880Y0223361D01*
X0259791Y0224217D02*
X0268885Y0224217D01*
X0268885Y0225816D02*
X0261196Y0225816D01*
X0261805Y0227414D02*
X0268885Y0227414D01*
X0268885Y0229013D02*
X0261805Y0229013D01*
X0261236Y0230611D02*
X0268885Y0230611D01*
X0268885Y0232210D02*
X0259887Y0232210D01*
X0258960Y0233808D02*
X0268885Y0233808D01*
X0268885Y0235407D02*
X0260981Y0235407D01*
X0261060Y0235485D02*
X0261805Y0237286D01*
X0261805Y0239236D01*
X0261060Y0241037D01*
X0259681Y0242415D01*
X0257880Y0243161D01*
X0255931Y0243161D01*
X0254130Y0242415D01*
X0252751Y0241037D01*
X0252006Y0239236D01*
X0252006Y0237286D01*
X0252751Y0235485D01*
X0254130Y0234107D01*
X0255931Y0233361D01*
X0257880Y0233361D01*
X0259681Y0234107D01*
X0261060Y0235485D01*
X0261689Y0237005D02*
X0268885Y0237005D01*
X0268885Y0238604D02*
X0261805Y0238604D01*
X0261405Y0240202D02*
X0268885Y0240202D01*
X0268885Y0241801D02*
X0260295Y0241801D01*
X0253516Y0241801D02*
X0012643Y0241801D01*
X0012643Y0243399D02*
X0268885Y0243399D01*
X0268885Y0244998D02*
X0012643Y0244998D01*
X0012643Y0246596D02*
X0268885Y0246596D01*
X0268885Y0248195D02*
X0012643Y0248195D01*
X0012643Y0249793D02*
X0099964Y0249793D01*
X0099964Y0251392D02*
X0012643Y0251392D01*
X0012643Y0252990D02*
X0099964Y0252990D01*
X0099964Y0254589D02*
X0012643Y0254589D01*
X0012643Y0256187D02*
X0099964Y0256187D01*
X0099964Y0257786D02*
X0029028Y0257786D01*
X0032154Y0259384D02*
X0099964Y0259384D01*
X0099964Y0260983D02*
X0034066Y0260983D01*
X0035429Y0262581D02*
X0099964Y0262581D01*
X0099964Y0264180D02*
X0036406Y0264180D01*
X0037125Y0265778D02*
X0099964Y0265778D01*
X0099964Y0267377D02*
X0037592Y0267377D01*
X0037851Y0268975D02*
X0099964Y0268975D01*
X0099964Y0270574D02*
X0025422Y0270574D01*
X0025422Y0268975D02*
X0023822Y0268975D01*
X0023822Y0267377D02*
X0025422Y0267377D01*
X0025422Y0265778D02*
X0023822Y0265778D01*
X0023822Y0264180D02*
X0025422Y0264180D01*
X0025422Y0262581D02*
X0023822Y0262581D01*
X0023822Y0260983D02*
X0025422Y0260983D01*
X0025422Y0259384D02*
X0023822Y0259384D01*
X0023822Y0257786D02*
X0025422Y0257786D01*
X0020216Y0257786D02*
X0012643Y0257786D01*
X0012643Y0259384D02*
X0017090Y0259384D01*
X0015178Y0260983D02*
X0012643Y0260983D01*
X0012643Y0262581D02*
X0013816Y0262581D01*
X0012838Y0264180D02*
X0012643Y0264180D01*
X0031476Y0281763D02*
X0099964Y0281763D01*
X0099964Y0280165D02*
X0033614Y0280165D01*
X0035082Y0278566D02*
X0099964Y0278566D01*
X0099964Y0276968D02*
X0036164Y0276968D01*
X0036938Y0275369D02*
X0099964Y0275369D01*
X0099964Y0273771D02*
X0037482Y0273771D01*
X0037807Y0272172D02*
X0099964Y0272172D01*
X0081007Y0200239D02*
X0078473Y0200239D01*
X0077070Y0200239D02*
X0012643Y0200239D01*
X0012643Y0198641D02*
X0075222Y0198641D01*
X0074984Y0197042D02*
X0012643Y0197042D01*
X0012643Y0195444D02*
X0075872Y0195444D01*
X0075872Y0193845D02*
X0012643Y0193845D01*
X0012643Y0192247D02*
X0075872Y0192247D01*
X0075872Y0190648D02*
X0012643Y0190648D01*
X0012643Y0189050D02*
X0075872Y0189050D01*
X0075872Y0187451D02*
X0012643Y0187451D01*
X0012643Y0185853D02*
X0075872Y0185853D01*
X0075872Y0184254D02*
X0012643Y0184254D01*
X0012643Y0182656D02*
X0075124Y0182656D01*
X0075048Y0181057D02*
X0012643Y0181057D01*
X0012643Y0179459D02*
X0076136Y0179459D01*
X0079407Y0179459D02*
X0080073Y0179459D01*
X0074528Y0161875D02*
X0112511Y0161875D01*
X0110934Y0160277D02*
X0108612Y0160277D01*
X0105671Y0160277D02*
X0082315Y0160277D01*
X0082389Y0160239D02*
X0081722Y0160579D01*
X0081011Y0160810D01*
X0080272Y0160927D01*
X0080082Y0160927D01*
X0080082Y0156359D01*
X0084650Y0156359D01*
X0084650Y0156548D01*
X0084533Y0157287D01*
X0084302Y0157999D01*
X0083963Y0158665D01*
X0083523Y0159271D01*
X0082994Y0159800D01*
X0082389Y0160239D01*
X0083953Y0158678D02*
X0103490Y0158678D01*
X0102805Y0157080D02*
X0084566Y0157080D01*
X0084650Y0155990D02*
X0080082Y0155990D01*
X0080082Y0151422D01*
X0080272Y0151422D01*
X0081011Y0151539D01*
X0081722Y0151770D01*
X0082389Y0152109D01*
X0082994Y0152549D01*
X0083523Y0153078D01*
X0083963Y0153683D01*
X0084302Y0154350D01*
X0084533Y0155061D01*
X0084650Y0155800D01*
X0084650Y0155990D01*
X0084600Y0155481D02*
X0102789Y0155481D01*
X0103380Y0153883D02*
X0084064Y0153883D01*
X0082629Y0152284D02*
X0105159Y0152284D01*
X0109124Y0152284D02*
X0109836Y0152284D01*
X0109836Y0150685D02*
X0077203Y0150685D01*
X0077203Y0149087D02*
X0109836Y0149087D01*
X0109836Y0147488D02*
X0077203Y0147488D01*
X0077203Y0145890D02*
X0109836Y0145890D01*
X0109836Y0144291D02*
X0077203Y0144291D01*
X0077203Y0142693D02*
X0109836Y0142693D01*
X0110474Y0141094D02*
X0076565Y0141094D01*
X0075637Y0139496D02*
X0111402Y0139496D01*
X0113000Y0137897D02*
X0074039Y0137897D01*
X0065756Y0137897D02*
X0012643Y0137897D01*
X0012643Y0139496D02*
X0064158Y0139496D01*
X0063230Y0141094D02*
X0012643Y0141094D01*
X0012643Y0142693D02*
X0062592Y0142693D01*
X0062592Y0144291D02*
X0012643Y0144291D01*
X0012643Y0145890D02*
X0062592Y0145890D01*
X0062592Y0147488D02*
X0012643Y0147488D01*
X0012643Y0149087D02*
X0062592Y0149087D01*
X0062592Y0150685D02*
X0012643Y0150685D01*
X0012643Y0152284D02*
X0057915Y0152284D01*
X0056136Y0153883D02*
X0012643Y0153883D01*
X0012643Y0155481D02*
X0055545Y0155481D01*
X0055561Y0157080D02*
X0012643Y0157080D01*
X0012643Y0158678D02*
X0056246Y0158678D01*
X0058427Y0160277D02*
X0012643Y0160277D01*
X0012643Y0161875D02*
X0065267Y0161875D01*
X0063689Y0160277D02*
X0061368Y0160277D01*
X0061880Y0152284D02*
X0062592Y0152284D01*
X0076106Y0160277D02*
X0077480Y0160277D01*
X0079713Y0160277D02*
X0080082Y0160277D01*
X0080082Y0158678D02*
X0079713Y0158678D01*
X0079713Y0157080D02*
X0080082Y0157080D01*
X0080082Y0155481D02*
X0079713Y0155481D01*
X0079713Y0153883D02*
X0080082Y0153883D01*
X0080082Y0152284D02*
X0079713Y0152284D01*
X0121773Y0161875D02*
X0159755Y0161875D01*
X0158178Y0160277D02*
X0155856Y0160277D01*
X0152915Y0160277D02*
X0129559Y0160277D01*
X0129633Y0160239D02*
X0128966Y0160579D01*
X0128255Y0160810D01*
X0127516Y0160927D01*
X0127326Y0160927D01*
X0127326Y0156359D01*
X0131894Y0156359D01*
X0131894Y0156548D01*
X0131777Y0157287D01*
X0131546Y0157999D01*
X0131207Y0158665D01*
X0130767Y0159271D01*
X0130238Y0159800D01*
X0129633Y0160239D01*
X0131197Y0158678D02*
X0150734Y0158678D01*
X0150049Y0157080D02*
X0131810Y0157080D01*
X0131844Y0155481D02*
X0150033Y0155481D01*
X0150624Y0153883D02*
X0131308Y0153883D01*
X0129873Y0152284D02*
X0152404Y0152284D01*
X0156368Y0152284D02*
X0157080Y0152284D01*
X0157080Y0150685D02*
X0124447Y0150685D01*
X0124447Y0149087D02*
X0157080Y0149087D01*
X0157080Y0147488D02*
X0124447Y0147488D01*
X0124447Y0145890D02*
X0157080Y0145890D01*
X0157080Y0144291D02*
X0124447Y0144291D01*
X0124447Y0142693D02*
X0157080Y0142693D01*
X0157718Y0141094D02*
X0123809Y0141094D01*
X0122881Y0139496D02*
X0158646Y0139496D01*
X0160245Y0137897D02*
X0121283Y0137897D01*
X0126957Y0152284D02*
X0127326Y0152284D01*
X0127326Y0153883D02*
X0126957Y0153883D01*
X0126957Y0155481D02*
X0127326Y0155481D01*
X0127326Y0157080D02*
X0126957Y0157080D01*
X0126957Y0158678D02*
X0127326Y0158678D01*
X0127326Y0160277D02*
X0126957Y0160277D01*
X0124724Y0160277D02*
X0123350Y0160277D01*
X0168527Y0137897D02*
X0207489Y0137897D01*
X0205890Y0139496D02*
X0170126Y0139496D01*
X0171053Y0141094D02*
X0204962Y0141094D01*
X0204324Y0142693D02*
X0171691Y0142693D01*
X0171691Y0144291D02*
X0204324Y0144291D01*
X0204324Y0145890D02*
X0171691Y0145890D01*
X0171691Y0147488D02*
X0204324Y0147488D01*
X0204324Y0149087D02*
X0171691Y0149087D01*
X0171691Y0150685D02*
X0204324Y0150685D01*
X0204324Y0152284D02*
X0203612Y0152284D01*
X0199648Y0152284D02*
X0177117Y0152284D01*
X0178552Y0153883D02*
X0197868Y0153883D01*
X0197277Y0155481D02*
X0179088Y0155481D01*
X0179139Y0156359D02*
X0174570Y0156359D01*
X0174570Y0160927D01*
X0174760Y0160927D01*
X0175499Y0160810D01*
X0176210Y0160579D01*
X0176877Y0160239D01*
X0177482Y0159800D01*
X0178011Y0159271D01*
X0178451Y0158665D01*
X0178790Y0157999D01*
X0179022Y0157287D01*
X0179139Y0156548D01*
X0179139Y0156359D01*
X0179054Y0157080D02*
X0197293Y0157080D01*
X0197978Y0158678D02*
X0178441Y0158678D01*
X0176804Y0160277D02*
X0200159Y0160277D01*
X0203101Y0160277D02*
X0205422Y0160277D01*
X0206999Y0161875D02*
X0169017Y0161875D01*
X0170594Y0160277D02*
X0171968Y0160277D01*
X0174202Y0160277D02*
X0174570Y0160277D01*
X0174570Y0158678D02*
X0174202Y0158678D01*
X0174202Y0157080D02*
X0174570Y0157080D01*
X0174570Y0155481D02*
X0174202Y0155481D01*
X0174202Y0153883D02*
X0174570Y0153883D01*
X0174570Y0152284D02*
X0174202Y0152284D01*
X0252445Y0216224D02*
X0012643Y0216224D01*
X0012643Y0214626D02*
X0253611Y0214626D01*
X0252006Y0217823D02*
X0012643Y0217823D01*
X0012643Y0219421D02*
X0252083Y0219421D01*
X0252745Y0221020D02*
X0012643Y0221020D01*
X0012643Y0222619D02*
X0254621Y0222619D01*
X0254020Y0224217D02*
X0012643Y0224217D01*
X0012643Y0225816D02*
X0252615Y0225816D01*
X0252006Y0227414D02*
X0012643Y0227414D01*
X0012643Y0229013D02*
X0252006Y0229013D01*
X0252575Y0230611D02*
X0012643Y0230611D01*
X0012643Y0232210D02*
X0253925Y0232210D01*
X0254851Y0233808D02*
X0012643Y0233808D01*
X0012643Y0235407D02*
X0252830Y0235407D01*
X0252122Y0237005D02*
X0012643Y0237005D01*
X0012643Y0238604D02*
X0252006Y0238604D01*
X0252406Y0240202D02*
X0012643Y0240202D01*
X0181564Y0249793D02*
X0268885Y0249793D01*
X0268885Y0251392D02*
X0181564Y0251392D01*
X0181564Y0252990D02*
X0268885Y0252990D01*
X0268885Y0254589D02*
X0181564Y0254589D01*
X0181564Y0256187D02*
X0268885Y0256187D01*
X0268885Y0257786D02*
X0261312Y0257786D01*
X0264437Y0259384D02*
X0268885Y0259384D01*
X0268885Y0260983D02*
X0266350Y0260983D01*
X0267712Y0262581D02*
X0268885Y0262581D01*
X0268885Y0264180D02*
X0268689Y0264180D01*
X0257705Y0264180D02*
X0256106Y0264180D01*
X0256106Y0265778D02*
X0257705Y0265778D01*
X0257705Y0267377D02*
X0256106Y0267377D01*
X0256106Y0268975D02*
X0257705Y0268975D01*
X0256105Y0270574D02*
X0181564Y0270574D01*
X0181564Y0272172D02*
X0243721Y0272172D01*
X0244046Y0273771D02*
X0181564Y0273771D01*
X0181564Y0275369D02*
X0244590Y0275369D01*
X0245363Y0276968D02*
X0181564Y0276968D01*
X0181564Y0278566D02*
X0246445Y0278566D01*
X0247914Y0280165D02*
X0181564Y0280165D01*
X0181564Y0281763D02*
X0250051Y0281763D01*
X0243676Y0268975D02*
X0181564Y0268975D01*
X0181564Y0267377D02*
X0243936Y0267377D01*
X0244402Y0265778D02*
X0181564Y0265778D01*
X0181564Y0264180D02*
X0245122Y0264180D01*
X0246099Y0262581D02*
X0181564Y0262581D01*
X0181564Y0260983D02*
X0247461Y0260983D01*
X0249374Y0259384D02*
X0181564Y0259384D01*
X0181564Y0257786D02*
X0252499Y0257786D01*
X0256106Y0257786D02*
X0257705Y0257786D01*
X0257705Y0259384D02*
X0256106Y0259384D01*
X0256106Y0260983D02*
X0257705Y0260983D01*
X0257705Y0262581D02*
X0256106Y0262581D01*
D19*
X0081709Y0197513D02*
X0081709Y0181765D01*
X0077772Y0181765D02*
X0077772Y0197513D01*
D20*
X0069898Y0156174D02*
X0069898Y0144088D01*
X0117142Y0144088D02*
X0117142Y0156174D01*
X0164386Y0156174D02*
X0164386Y0144088D01*
X0211630Y0144088D02*
X0211630Y0156174D01*
X0211630Y0054088D02*
X0199504Y0041962D01*
X0199504Y0034127D01*
X0179504Y0034127D02*
X0179504Y0038970D01*
X0164386Y0054088D01*
X0130606Y0040623D02*
X0130606Y0034127D01*
X0130606Y0040623D02*
X0117142Y0054088D01*
X0110606Y0034127D02*
X0090646Y0054088D01*
X0069898Y0054088D01*
M02*
